STARTFONT 2.1
COMMENT 
COMMENT Copyright (C) 2012-2015 Uwe Waldmann
COMMENT 
COMMENT Permission is hereby granted, free of charge, to any person obtaining
COMMENT a copy of this font software and associated files (the "Software"),
COMMENT to deal in the Software without restriction, including without
COMMENT limitation the rights to use, copy, modify, merge, publish,
COMMENT distribute, embed, sublicense, and/or sell copies of the Software,
COMMENT and to permit persons to whom the Software is furnished to do so,
COMMENT subject to the following conditions:
COMMENT 
COMMENT (1) The above copyright notice, this permission notice, and the
COMMENT     disclaimer below shall be included in all copies or substantial
COMMENT     portions of the Software.
COMMENT 
COMMENT (2) If the design of any glyphs in the fonts that are contained in the
COMMENT     Software or generated during the installation process is modified
COMMENT     or if additional glyphs are added to the fonts, the fonts
COMMENT     must be renamed. The new names may not contain the word "UW",
COMMENT     irrespective of capitalisation; the new names may contain the word
COMMENT     "ttyp0", irrespective of capitalisation, only if preceded by a
COMMENT     foundry name different from "UW".
COMMENT 
COMMENT THE SOFTWARE IS PROVIDED "AS IS", WITHOUT WARRANTY OF ANY KIND, EXPRESS
COMMENT OR IMPLIED, INCLUDING BUT NOT LIMITED TO THE WARRANTIES OF
COMMENT MERCHANTABILITY, FITNESS FOR A PARTICULAR PURPOSE AND NONINFRINGEMENT.
COMMENT IN NO EVENT SHALL THE AUTHORS OR COPYRIGHT HOLDERS BE LIABLE FOR ANY
COMMENT CLAIM, DAMAGES OR OTHER LIABILITY, WHETHER IN AN ACTION OF CONTRACT,
COMMENT TORT OR OTHERWISE, ARISING FROM, OUT OF OR IN CONNECTION WITH THE
COMMENT SOFTWARE OR THE USE OR OTHER DEALINGS IN THE SOFTWARE.
COMMENT 
FONT -UW-Ttyp0-Medium-R-Normal--16-150-75-75-C-80-ISO10646-1
SIZE 16 75 75
FONTBOUNDINGBOX 8 16 0 -4
STARTPROPERTIES 19
FONTNAME_REGISTRY ""
FOUNDRY "UW"
FAMILY_NAME "Ttyp0"
WEIGHT_NAME "Medium"

STARTCHAR DDefaultChar
ENCODING 0
SWIDTH 960 0
DWIDTH 8 0
BBX 8 16 0 -4
BITMAP
00
00
5a
42
42
00
42
42
00
42
42
5a
00
00
00
00
ENDCHAR
STARTCHAR Space
ENCODING 32
SWIDTH 960 0
DWIDTH 8 0
BBX 8 16 0 -4
BITMAP
00
00
00
00
00
00
00
00
00
00
00
00
00
00
00
00
ENDCHAR
STARTCHAR PExclam
ENCODING 33
SWIDTH 960 0
DWIDTH 8 0
BBX 8 16 0 -4
BITMAP
00
00
08
08
08
08
08
08
08
00
08
08
00
00
00
00
ENDCHAR
STARTCHAR PQuote2Ascii
ENCODING 34
SWIDTH 960 0
DWIDTH 8 0
BBX 8 16 0 -4
BITMAP
00
00
24
24
24
00
00
00
00
00
00
00
00
00
00
00
ENDCHAR
STARTCHAR SNumberSign
ENCODING 35
SWIDTH 960 0
DWIDTH 8 0
BBX 8 16 0 -4
BITMAP
00
00
00
24
24
7e
24
24
7e
24
24
00
00
00
00
00
ENDCHAR
STARTCHAR CurrDollar
ENCODING 36
SWIDTH 960 0
DWIDTH 8 0
BBX 8 16 0 -4
BITMAP
00
00
08
1c
2a
28
28
1c
0a
0a
2a
1c
08
00
00
00
ENDCHAR
STARTCHAR SPercent
ENCODING 37
SWIDTH 960 0
DWIDTH 8 0
BBX 8 16 0 -4
BITMAP
00
00
22
52
54
28
08
10
14
2a
4a
44
00
00
00
00
ENDCHAR
STARTCHAR SAmpersand
ENCODING 38
SWIDTH 960 0
DWIDTH 8 0
BBX 8 16 0 -4
BITMAP
00
00
18
24
24
28
10
29
4a
44
44
3b
00
00
00
00
ENDCHAR
STARTCHAR PApostropheAscii
ENCODING 39
SWIDTH 960 0
DWIDTH 8 0
BBX 8 16 0 -4
BITMAP
00
0c
0c
08
10
00
00
00
00
00
00
00
00
00
00
00
ENDCHAR
STARTCHAR PParenL
ENCODING 40
SWIDTH 960 0
DWIDTH 8 0
BBX 8 16 0 -4
BITMAP
00
04
08
08
10
10
10
10
10
10
08
08
04
00
00
00
ENDCHAR
STARTCHAR PParenR
ENCODING 41
SWIDTH 960 0
DWIDTH 8 0
BBX 8 16 0 -4
BITMAP
00
20
10
10
08
08
08
08
08
08
10
10
20
00
00
00
ENDCHAR
STARTCHAR SAsterisk
ENCODING 42
SWIDTH 960 0
DWIDTH 8 0
BBX 8 16 0 -4
BITMAP
00
00
00
00
00
24
18
7e
18
24
00
00
00
00
00
00
ENDCHAR
STARTCHAR MPlus
ENCODING 43
SWIDTH 960 0
DWIDTH 8 0
BBX 8 16 0 -4
BITMAP
00
00
00
00
08
08
08
7f
08
08
08
00
00
00
00
00
ENDCHAR
STARTCHAR PComma
ENCODING 44
SWIDTH 960 0
DWIDTH 8 0
BBX 8 16 0 -4
BITMAP
00
00
00
00
00
00
00
00
00
00
18
18
10
20
00
00
ENDCHAR
STARTCHAR PHyphenMinus
ENCODING 45
SWIDTH 960 0
DWIDTH 8 0
BBX 8 16 0 -4
BITMAP
00
00
00
00
00
00
00
7e
00
00
00
00
00
00
00
00
ENDCHAR
STARTCHAR PFullStop
ENCODING 46
SWIDTH 960 0
DWIDTH 8 0
BBX 8 16 0 -4
BITMAP
00
00
00
00
00
00
00
00
00
00
18
18
00
00
00
00
ENDCHAR
STARTCHAR PSolidus
ENCODING 47
SWIDTH 960 0
DWIDTH 8 0
BBX 8 16 0 -4
BITMAP
00
02
02
04
04
08
08
10
10
20
20
40
40
00
00
00
ENDCHAR
STARTCHAR Digit0
ENCODING 48
SWIDTH 960 0
DWIDTH 8 0
BBX 8 16 0 -4
BITMAP
00
00
18
24
42
42
42
42
42
42
24
18
00
00
00
00
ENDCHAR
STARTCHAR Digit1
ENCODING 49
SWIDTH 960 0
DWIDTH 8 0
BBX 8 16 0 -4
BITMAP
00
00
08
18
28
08
08
08
08
08
08
08
00
00
00
00
ENDCHAR
STARTCHAR Digit2
ENCODING 50
SWIDTH 960 0
DWIDTH 8 0
BBX 8 16 0 -4
BITMAP
00
00
3c
42
42
02
04
08
10
20
40
7e
00
00
00
00
ENDCHAR
STARTCHAR Digit3
ENCODING 51
SWIDTH 960 0
DWIDTH 8 0
BBX 8 16 0 -4
BITMAP
00
00
3c
42
02
04
1c
02
02
02
42
3c
00
00
00
00
ENDCHAR
STARTCHAR Digit4
ENCODING 52
SWIDTH 960 0
DWIDTH 8 0
BBX 8 16 0 -4
BITMAP
00
00
04
0c
14
14
24
44
7e
04
04
04
00
00
00
00
ENDCHAR
STARTCHAR Digit5
ENCODING 53
SWIDTH 960 0
DWIDTH 8 0
BBX 8 16 0 -4
BITMAP
00
00
7c
40
40
78
44
02
02
02
44
38
00
00
00
00
ENDCHAR
STARTCHAR Digit6
ENCODING 54
SWIDTH 960 0
DWIDTH 8 0
BBX 8 16 0 -4
BITMAP
00
00
1c
20
40
40
5c
62
42
42
42
3c
00
00
00
00
ENDCHAR
STARTCHAR Digit7
ENCODING 55
SWIDTH 960 0
DWIDTH 8 0
BBX 8 16 0 -4
BITMAP
00
00
7e
02
02
04
04
08
08
10
10
10
00
00
00
00
ENDCHAR
STARTCHAR Digit8
ENCODING 56
SWIDTH 960 0
DWIDTH 8 0
BBX 8 16 0 -4
BITMAP
00
00
3c
42
42
42
3c
42
42
42
42
3c
00
00
00
00
ENDCHAR
STARTCHAR Digit9
ENCODING 57
SWIDTH 960 0
DWIDTH 8 0
BBX 8 16 0 -4
BITMAP
00
00
3c
42
42
42
46
3a
02
02
04
38
00
00
00
00
ENDCHAR
STARTCHAR PColon
ENCODING 58
SWIDTH 960 0
DWIDTH 8 0
BBX 8 16 0 -4
BITMAP
00
00
00
00
00
00
18
18
00
00
18
18
00
00
00
00
ENDCHAR
STARTCHAR PSemicolon
ENCODING 59
SWIDTH 960 0
DWIDTH 8 0
BBX 8 16 0 -4
BITMAP
00
00
00
00
00
00
18
18
00
00
18
18
10
20
00
00
ENDCHAR
STARTCHAR MLess
ENCODING 60
SWIDTH 960 0
DWIDTH 8 0
BBX 8 16 0 -4
BITMAP
00
00
02
04
08
10
20
20
10
08
04
02
00
00
00
00
ENDCHAR
STARTCHAR MEqual
ENCODING 61
SWIDTH 960 0
DWIDTH 8 0
BBX 8 16 0 -4
BITMAP
00
00
00
00
00
00
7e
00
00
7e
00
00
00
00
00
00
ENDCHAR
STARTCHAR MGreater
ENCODING 62
SWIDTH 960 0
DWIDTH 8 0
BBX 8 16 0 -4
BITMAP
00
00
20
10
08
04
02
02
04
08
10
20
00
00
00
00
ENDCHAR
STARTCHAR PQuestion
ENCODING 63
SWIDTH 960 0
DWIDTH 8 0
BBX 8 16 0 -4
BITMAP
00
00
3c
42
42
02
04
08
10
00
10
10
00
00
00
00
ENDCHAR
STARTCHAR SCommercialAt
ENCODING 64
SWIDTH 960 0
DWIDTH 8 0
BBX 8 16 0 -4
BITMAP
00
00
1c
22
4a
56
52
52
52
4e
20
1e
00
00
00
00
ENDCHAR
STARTCHAR LtCapA
ENCODING 65
SWIDTH 960 0
DWIDTH 8 0
BBX 8 16 0 -4
BITMAP
00
00
18
18
24
24
42
42
7e
42
42
42
00
00
00
00
ENDCHAR
STARTCHAR LtCapB
ENCODING 66
SWIDTH 960 0
DWIDTH 8 0
BBX 8 16 0 -4
BITMAP
00
00
7c
42
42
42
7c
42
42
42
42
7c
00
00
00
00
ENDCHAR
STARTCHAR LtCapC
ENCODING 67
SWIDTH 960 0
DWIDTH 8 0
BBX 8 16 0 -4
BITMAP
00
00
1c
22
40
40
40
40
40
40
22
1c
00
00
00
00
ENDCHAR
STARTCHAR LtCapD
ENCODING 68
SWIDTH 960 0
DWIDTH 8 0
BBX 8 16 0 -4
BITMAP
00
00
78
44
42
42
42
42
42
42
44
78
00
00
00
00
ENDCHAR
STARTCHAR LtCapE
ENCODING 69
SWIDTH 960 0
DWIDTH 8 0
BBX 8 16 0 -4
BITMAP
00
00
7e
40
40
40
78
40
40
40
40
7e
00
00
00
00
ENDCHAR
STARTCHAR LtCapF
ENCODING 70
SWIDTH 960 0
DWIDTH 8 0
BBX 8 16 0 -4
BITMAP
00
00
3f
20
20
20
3c
20
20
20
20
20
00
00
00
00
ENDCHAR
STARTCHAR LtCapG
ENCODING 71
SWIDTH 960 0
DWIDTH 8 0
BBX 8 16 0 -4
BITMAP
00
00
1c
22
40
40
40
46
42
42
22
1e
00
00
00
00
ENDCHAR
STARTCHAR LtCapH
ENCODING 72
SWIDTH 960 0
DWIDTH 8 0
BBX 8 16 0 -4
BITMAP
00
00
42
42
42
42
7e
42
42
42
42
42
00
00
00
00
ENDCHAR
STARTCHAR LtCapI
ENCODING 73
SWIDTH 960 0
DWIDTH 8 0
BBX 8 16 0 -4
BITMAP
00
00
3e
08
08
08
08
08
08
08
08
3e
00
00
00
00
ENDCHAR
STARTCHAR LtCapJ
ENCODING 74
SWIDTH 960 0
DWIDTH 8 0
BBX 8 16 0 -4
BITMAP
00
00
0e
04
04
04
04
04
04
44
44
38
00
00
00
00
ENDCHAR
STARTCHAR LtCapK
ENCODING 75
SWIDTH 960 0
DWIDTH 8 0
BBX 8 16 0 -4
BITMAP
00
00
42
42
44
48
50
70
48
44
42
42
00
00
00
00
ENDCHAR
STARTCHAR LtCapL
ENCODING 76
SWIDTH 960 0
DWIDTH 8 0
BBX 8 16 0 -4
BITMAP
00
00
40
40
40
40
40
40
40
40
40
7e
00
00
00
00
ENDCHAR
STARTCHAR LtCapM
ENCODING 77
SWIDTH 960 0
DWIDTH 8 0
BBX 8 16 0 -4
BITMAP
00
00
41
41
63
55
55
49
49
41
41
41
00
00
00
00
ENDCHAR
STARTCHAR LtCapN
ENCODING 78
SWIDTH 960 0
DWIDTH 8 0
BBX 8 16 0 -4
BITMAP
00
00
42
42
62
52
52
4a
4a
46
42
42
00
00
00
00
ENDCHAR
STARTCHAR LtCapO
ENCODING 79
SWIDTH 960 0
DWIDTH 8 0
BBX 8 16 0 -4
BITMAP
00
00
3c
42
42
42
42
42
42
42
42
3c
00
00
00
00
ENDCHAR
STARTCHAR LtCapP
ENCODING 80
SWIDTH 960 0
DWIDTH 8 0
BBX 8 16 0 -4
BITMAP
00
00
7c
42
42
42
42
7c
40
40
40
40
00
00
00
00
ENDCHAR
STARTCHAR LtCapQ
ENCODING 81
SWIDTH 960 0
DWIDTH 8 0
BBX 8 16 0 -4
BITMAP
00
00
3c
42
42
42
42
42
42
4a
46
3c
03
00
00
00
ENDCHAR
STARTCHAR LtCapR
ENCODING 82
SWIDTH 960 0
DWIDTH 8 0
BBX 8 16 0 -4
BITMAP
00
00
7c
42
42
42
7c
48
44
44
42
42
00
00
00
00
ENDCHAR
STARTCHAR LtCapS
ENCODING 83
SWIDTH 960 0
DWIDTH 8 0
BBX 8 16 0 -4
BITMAP
00
00
3c
42
40
40
30
0c
02
02
42
3c
00
00
00
00
ENDCHAR
STARTCHAR LtCapT
ENCODING 84
SWIDTH 960 0
DWIDTH 8 0
BBX 8 16 0 -4
BITMAP
00
00
7f
08
08
08
08
08
08
08
08
08
00
00
00
00
ENDCHAR
STARTCHAR LtCapU
ENCODING 85
SWIDTH 960 0
DWIDTH 8 0
BBX 8 16 0 -4
BITMAP
00
00
42
42
42
42
42
42
42
42
42
3c
00
00
00
00
ENDCHAR
STARTCHAR LtCapV
ENCODING 86
SWIDTH 960 0
DWIDTH 8 0
BBX 8 16 0 -4
BITMAP
00
00
41
41
42
22
22
24
14
14
18
08
00
00
00
00
ENDCHAR
STARTCHAR LtCapW
ENCODING 87
SWIDTH 960 0
DWIDTH 8 0
BBX 8 16 0 -4
BITMAP
00
00
41
41
49
49
49
55
55
22
22
22
00
00
00
00
ENDCHAR
STARTCHAR LtCapX
ENCODING 88
SWIDTH 960 0
DWIDTH 8 0
BBX 8 16 0 -4
BITMAP
00
00
42
42
24
24
18
18
24
24
42
42
00
00
00
00
ENDCHAR
STARTCHAR LtCapY
ENCODING 89
SWIDTH 960 0
DWIDTH 8 0
BBX 8 16 0 -4
BITMAP
00
00
41
22
22
14
14
08
08
08
08
08
00
00
00
00
ENDCHAR
STARTCHAR LtCapZ
ENCODING 90
SWIDTH 960 0
DWIDTH 8 0
BBX 8 16 0 -4
BITMAP
00
00
7e
02
04
08
08
10
20
20
40
7e
00
00
00
00
ENDCHAR
STARTCHAR PSquareBrackL
ENCODING 91
SWIDTH 960 0
DWIDTH 8 0
BBX 8 16 0 -4
BITMAP
00
3c
20
20
20
20
20
20
20
20
20
20
3c
00
00
00
ENDCHAR
STARTCHAR PRevSolidus
ENCODING 92
SWIDTH 960 0
DWIDTH 8 0
BBX 8 16 0 -4
BITMAP
00
40
40
20
20
10
10
08
08
04
04
02
02
00
00
00
ENDCHAR
STARTCHAR PSquareBrackR
ENCODING 93
SWIDTH 960 0
DWIDTH 8 0
BBX 8 16 0 -4
BITMAP
00
3c
04
04
04
04
04
04
04
04
04
04
3c
00
00
00
ENDCHAR
STARTCHAR AccCircumAscii
ENCODING 94
SWIDTH 960 0
DWIDTH 8 0
BBX 8 16 0 -4
BITMAP
00
00
08
14
22
41
00
00
00
00
00
00
00
00
00
00
ENDCHAR
STARTCHAR OLowline
ENCODING 95
SWIDTH 960 0
DWIDTH 8 0
BBX 8 16 0 -4
BITMAP
00
00
00
00
00
00
00
00
00
00
00
7e
00
00
00
00
ENDCHAR
STARTCHAR AccGraveAscii
ENCODING 96
SWIDTH 960 0
DWIDTH 8 0
BBX 8 16 0 -4
BITMAP
00
18
18
08
04
00
00
00
00
00
00
00
00
00
00
00
ENDCHAR
STARTCHAR LtSmlA
ENCODING 97
SWIDTH 960 0
DWIDTH 8 0
BBX 8 16 0 -4
BITMAP
00
00
00
00
00
3c
02
02
3e
42
46
3a
00
00
00
00
ENDCHAR
STARTCHAR LtSmlB
ENCODING 98
SWIDTH 960 0
DWIDTH 8 0
BBX 8 16 0 -4
BITMAP
00
00
40
40
40
5c
62
42
42
42
62
5c
00
00
00
00
ENDCHAR
STARTCHAR LtSmlC
ENCODING 99
SWIDTH 960 0
DWIDTH 8 0
BBX 8 16 0 -4
BITMAP
00
00
00
00
00
3c
42
40
40
40
42
3c
00
00
00
00
ENDCHAR
STARTCHAR LtSmlD
ENCODING 100
SWIDTH 960 0
DWIDTH 8 0
BBX 8 16 0 -4
BITMAP
00
00
02
02
02
3a
46
42
42
42
46
3a
00
00
00
00
ENDCHAR
STARTCHAR LtSmlE
ENCODING 101
SWIDTH 960 0
DWIDTH 8 0
BBX 8 16 0 -4
BITMAP
00
00
00
00
00
3c
42
42
7e
40
40
3c
00
00
00
00
ENDCHAR
STARTCHAR LtSmlF
ENCODING 102
SWIDTH 960 0
DWIDTH 8 0
BBX 8 16 0 -4
BITMAP
00
00
0e
12
10
10
7c
10
10
10
10
10
00
00
00
00
ENDCHAR
STARTCHAR LtSmlG
ENCODING 103
SWIDTH 960 0
DWIDTH 8 0
BBX 8 16 0 -4
BITMAP
00
00
00
00
00
3a
44
44
44
38
40
3c
42
42
3c
00
ENDCHAR
STARTCHAR LtSmlH
ENCODING 104
SWIDTH 960 0
DWIDTH 8 0
BBX 8 16 0 -4
BITMAP
00
00
40
40
40
5c
62
42
42
42
42
42
00
00
00
00
ENDCHAR
STARTCHAR LtSmlI
ENCODING 105
SWIDTH 960 0
DWIDTH 8 0
BBX 8 16 0 -4
BITMAP
00
00
08
08
00
18
08
08
08
08
08
3e
00
00
00
00
ENDCHAR
STARTCHAR LtSmlJ
ENCODING 106
SWIDTH 960 0
DWIDTH 8 0
BBX 8 16 0 -4
BITMAP
00
00
04
04
00
1c
04
04
04
04
04
04
44
44
38
00
ENDCHAR
STARTCHAR LtSmlK
ENCODING 107
SWIDTH 960 0
DWIDTH 8 0
BBX 8 16 0 -4
BITMAP
00
00
40
40
40
42
44
48
70
48
44
42
00
00
00
00
ENDCHAR
STARTCHAR LtSmlL
ENCODING 108
SWIDTH 960 0
DWIDTH 8 0
BBX 8 16 0 -4
BITMAP
00
00
18
08
08
08
08
08
08
08
08
3e
00
00
00
00
ENDCHAR
STARTCHAR LtSmlM
ENCODING 109
SWIDTH 960 0
DWIDTH 8 0
BBX 8 16 0 -4
BITMAP
00
00
00
00
00
76
49
49
49
49
49
49
00
00
00
00
ENDCHAR
STARTCHAR LtSmlN
ENCODING 110
SWIDTH 960 0
DWIDTH 8 0
BBX 8 16 0 -4
BITMAP
00
00
00
00
00
5c
62
42
42
42
42
42
00
00
00
00
ENDCHAR
STARTCHAR LtSmlO
ENCODING 111
SWIDTH 960 0
DWIDTH 8 0
BBX 8 16 0 -4
BITMAP
00
00
00
00
00
3c
42
42
42
42
42
3c
00
00
00
00
ENDCHAR
STARTCHAR LtSmlP
ENCODING 112
SWIDTH 960 0
DWIDTH 8 0
BBX 8 16 0 -4
BITMAP
00
00
00
00
00
5c
62
42
42
42
62
5c
40
40
40
00
ENDCHAR
STARTCHAR LtSmlQ
ENCODING 113
SWIDTH 960 0
DWIDTH 8 0
BBX 8 16 0 -4
BITMAP
00
00
00
00
00
3a
46
42
42
42
46
3a
02
02
02
00
ENDCHAR
STARTCHAR LtSmlR
ENCODING 114
SWIDTH 960 0
DWIDTH 8 0
BBX 8 16 0 -4
BITMAP
00
00
00
00
00
6e
32
20
20
20
20
20
00
00
00
00
ENDCHAR
STARTCHAR LtSmlS
ENCODING 115
SWIDTH 960 0
DWIDTH 8 0
BBX 8 16 0 -4
BITMAP
00
00
00
00
00
3c
42
40
3c
02
42
3c
00
00
00
00
ENDCHAR
STARTCHAR LtSmlT
ENCODING 116
SWIDTH 960 0
DWIDTH 8 0
BBX 8 16 0 -4
BITMAP
00
00
00
10
10
7c
10
10
10
10
12
0c
00
00
00
00
ENDCHAR
STARTCHAR LtSmlU
ENCODING 117
SWIDTH 960 0
DWIDTH 8 0
BBX 8 16 0 -4
BITMAP
00
00
00
00
00
42
42
42
42
42
46
3a
00
00
00
00
ENDCHAR
STARTCHAR LtSmlV
ENCODING 118
SWIDTH 960 0
DWIDTH 8 0
BBX 8 16 0 -4
BITMAP
00
00
00
00
00
42
42
42
24
24
18
18
00
00
00
00
ENDCHAR
STARTCHAR LtSmlW
ENCODING 119
SWIDTH 960 0
DWIDTH 8 0
BBX 8 16 0 -4
BITMAP
00
00
00
00
00
41
49
49
49
36
22
22
00
00
00
00
ENDCHAR
STARTCHAR LtSmlX
ENCODING 120
SWIDTH 960 0
DWIDTH 8 0
BBX 8 16 0 -4
BITMAP
00
00
00
00
00
42
42
24
18
24
42
42
00
00
00
00
ENDCHAR
STARTCHAR LtSmlY
ENCODING 121
SWIDTH 960 0
DWIDTH 8 0
BBX 8 16 0 -4
BITMAP
00
00
00
00
00
42
42
22
24
14
14
08
08
50
20
00
ENDCHAR
STARTCHAR LtSmlZ
ENCODING 122
SWIDTH 960 0
DWIDTH 8 0
BBX 8 16 0 -4
BITMAP
00
00
00
00
00
7e
04
08
10
20
40
7e
00
00
00
00
ENDCHAR
STARTCHAR PCurlyBrackL
ENCODING 123
SWIDTH 960 0
DWIDTH 8 0
BBX 8 16 0 -4
BITMAP
00
06
08
08
08
08
30
30
08
08
08
08
06
00
00
00
ENDCHAR
STARTCHAR OVertBar
ENCODING 124
SWIDTH 960 0
DWIDTH 8 0
BBX 8 16 0 -4
BITMAP
00
08
08
08
08
08
08
08
08
08
08
08
08
00
00
00
ENDCHAR
STARTCHAR PCurlyBrackR
ENCODING 125
SWIDTH 960 0
DWIDTH 8 0
BBX 8 16 0 -4
BITMAP
00
60
10
10
10
10
0c
0c
10
10
10
10
60
00
00
00
ENDCHAR
STARTCHAR AccTildeAscii
ENCODING 126
SWIDTH 960 0
DWIDTH 8 0
BBX 8 16 0 -4
BITMAP
00
00
32
5a
4c
00
00
00
00
00
00
00
00
00
00
00
ENDCHAR
STARTCHAR SpaceNoBreak
ENCODING 160
SWIDTH 960 0
DWIDTH 8 0
BBX 8 16 0 -4
BITMAP
00
00
00
00
00
00
00
00
00
42
42
7e
00
00
00
00
ENDCHAR
STARTCHAR PExclamInv
ENCODING 161
SWIDTH 960 0
DWIDTH 8 0
BBX 8 16 0 -4
BITMAP
00
00
00
00
00
08
08
00
08
08
08
08
08
08
08
00
ENDCHAR
STARTCHAR CurrCent
ENCODING 162
SWIDTH 960 0
DWIDTH 8 0
BBX 8 16 0 -4
BITMAP
00
00
00
00
02
3c
46
48
48
50
52
3c
20
00
00
00
ENDCHAR
STARTCHAR CurrPound
ENCODING 163
SWIDTH 960 0
DWIDTH 8 0
BBX 8 16 0 -4
BITMAP
00
00
1c
22
22
20
20
78
20
20
42
7e
00
00
00
00
ENDCHAR
STARTCHAR CurrGeneral
ENCODING 164
SWIDTH 960 0
DWIDTH 8 0
BBX 8 16 0 -4
BITMAP
00
00
00
00
42
3c
24
24
3c
42
00
00
00
00
00
00
ENDCHAR
STARTCHAR CurrYen
ENCODING 165
SWIDTH 960 0
DWIDTH 8 0
BBX 8 16 0 -4
BITMAP
00
00
41
22
22
14
3e
08
3e
08
08
08
00
00
00
00
ENDCHAR
STARTCHAR OVertBarBroken
ENCODING 166
SWIDTH 960 0
DWIDTH 8 0
BBX 8 16 0 -4
BITMAP
00
08
08
08
08
08
00
00
08
08
08
08
08
00
00
00
ENDCHAR
STARTCHAR SParagraph
ENCODING 167
SWIDTH 960 0
DWIDTH 8 0
BBX 8 16 0 -4
BITMAP
00
00
18
24
20
10
18
24
24
24
18
08
04
24
18
00
ENDCHAR
STARTCHAR AccDrss
ENCODING 168
SWIDTH 960 0
DWIDTH 8 0
BBX 8 16 0 -4
BITMAP
00
24
24
00
00
00
00
00
00
00
00
00
00
00
00
00
ENDCHAR
STARTCHAR SCopyright
ENCODING 169
SWIDTH 960 0
DWIDTH 8 0
BBX 8 16 0 -4
BITMAP
00
00
3c
42
99
a5
a1
a1
a5
99
42
3c
00
00
00
00
ENDCHAR
STARTCHAR OrdFem
ENCODING 170
SWIDTH 960 0
DWIDTH 8 0
BBX 8 16 0 -4
BITMAP
00
00
1c
02
1e
22
1e
00
3e
00
00
00
00
00
00
00
ENDCHAR
STARTCHAR PQuoteAngle2L
ENCODING 171
SWIDTH 960 0
DWIDTH 8 0
BBX 8 16 0 -4
BITMAP
00
00
00
00
00
12
24
48
24
12
00
00
00
00
00
00
ENDCHAR
STARTCHAR MNot
ENCODING 172
SWIDTH 960 0
DWIDTH 8 0
BBX 8 16 0 -4
BITMAP
00
00
00
00
00
00
7e
02
02
02
00
00
00
00
00
00
ENDCHAR
STARTCHAR PHyphenSoft
ENCODING 173
SWIDTH 960 0
DWIDTH 8 0
BBX 8 16 0 -4
BITMAP
00
00
00
00
00
00
00
3c
00
00
00
00
00
00
00
00
ENDCHAR
STARTCHAR SRegistered
ENCODING 174
SWIDTH 960 0
DWIDTH 8 0
BBX 8 16 0 -4
BITMAP
00
00
3c
42
b9
a5
a5
b9
a9
a5
42
3c
00
00
00
00
ENDCHAR
STARTCHAR AccMacronLong
ENCODING 175
SWIDTH 960 0
DWIDTH 8 0
BBX 8 16 0 -4
BITMAP
00
00
7e
00
00
00
00
00
00
00
00
00
00
00
00
00
ENDCHAR
STARTCHAR SDegree
ENCODING 176
SWIDTH 960 0
DWIDTH 8 0
BBX 8 16 0 -4
BITMAP
00
00
18
24
24
18
00
00
00
00
00
00
00
00
00
00
ENDCHAR
STARTCHAR MPlusMinus
ENCODING 177
SWIDTH 960 0
DWIDTH 8 0
BBX 8 16 0 -4
BITMAP
00
00
00
08
08
08
7f
08
08
08
00
7f
00
00
00
00
ENDCHAR
STARTCHAR Sup2
ENCODING 178
SWIDTH 960 0
DWIDTH 8 0
BBX 8 16 0 -4
BITMAP
00
1c
22
02
04
08
10
3e
00
00
00
00
00
00
00
00
ENDCHAR
STARTCHAR Sup3
ENCODING 179
SWIDTH 960 0
DWIDTH 8 0
BBX 8 16 0 -4
BITMAP
00
1c
22
02
0c
02
22
1c
00
00
00
00
00
00
00
00
ENDCHAR
STARTCHAR AccAcute
ENCODING 180
SWIDTH 960 0
DWIDTH 8 0
BBX 8 16 0 -4
BITMAP
00
04
04
08
10
00
00
00
00
00
00
00
00
00
00
00
ENDCHAR
STARTCHAR SMicro
ENCODING 181
SWIDTH 960 0
DWIDTH 8 0
BBX 8 16 0 -4
BITMAP
00
00
00
00
00
42
42
42
42
42
66
5a
40
40
40
00
ENDCHAR
STARTCHAR SPilcrow
ENCODING 182
SWIDTH 960 0
DWIDTH 8 0
BBX 8 16 0 -4
BITMAP
00
00
3e
4a
4a
4a
3a
0a
0a
0a
0a
0a
00
00
00
00
ENDCHAR
STARTCHAR PMiddleDot
ENCODING 183
SWIDTH 960 0
DWIDTH 8 0
BBX 8 16 0 -4
BITMAP
00
00
00
00
00
00
18
18
00
00
00
00
00
00
00
00
ENDCHAR
STARTCHAR AccCedilla
ENCODING 184
SWIDTH 960 0
DWIDTH 8 0
BBX 8 16 0 -4
BITMAP
00
00
00
00
00
00
00
00
00
00
00
10
18
08
30
00
ENDCHAR
STARTCHAR Sup1
ENCODING 185
SWIDTH 960 0
DWIDTH 8 0
BBX 8 16 0 -4
BITMAP
00
08
18
28
08
08
08
08
00
00
00
00
00
00
00
00
ENDCHAR
STARTCHAR OrdMasc
ENCODING 186
SWIDTH 960 0
DWIDTH 8 0
BBX 8 16 0 -4
BITMAP
00
00
1c
22
22
22
1c
00
3e
00
00
00
00
00
00
00
ENDCHAR
STARTCHAR PQuoteAngle2R
ENCODING 187
SWIDTH 960 0
DWIDTH 8 0
BBX 8 16 0 -4
BITMAP
00
00
00
00
00
48
24
12
24
48
00
00
00
00
00
00
ENDCHAR
STARTCHAR Frac14
ENCODING 188
SWIDTH 960 0
DWIDTH 8 0
BBX 8 16 0 -4
BITMAP
00
20
61
22
22
24
28
0a
16
2a
2a
4f
02
00
00
00
ENDCHAR
STARTCHAR Frac12
ENCODING 189
SWIDTH 960 0
DWIDTH 8 0
BBX 8 16 0 -4
BITMAP
00
20
61
22
22
24
28
0e
19
21
26
48
0f
00
00
00
ENDCHAR
STARTCHAR Frac34
ENCODING 190
SWIDTH 960 0
DWIDTH 8 0
BBX 8 16 0 -4
BITMAP
00
30
49
12
0a
4c
34
0a
16
2a
2a
4f
02
00
00
00
ENDCHAR
STARTCHAR PQuestionInv
ENCODING 191
SWIDTH 960 0
DWIDTH 8 0
BBX 8 16 0 -4
BITMAP
00
00
00
00
00
08
08
00
08
10
20
40
42
42
3c
00
ENDCHAR
STARTCHAR LtCapAGrave
ENCODING 192
SWIDTH 960 0
DWIDTH 8 0
BBX 8 16 0 -4
BITMAP
20
18
00
18
18
24
24
42
7e
42
42
42
00
00
00
00
ENDCHAR
STARTCHAR LtCapAAcute
ENCODING 193
SWIDTH 960 0
DWIDTH 8 0
BBX 8 16 0 -4
BITMAP
04
18
00
18
18
24
24
42
7e
42
42
42
00
00
00
00
ENDCHAR
STARTCHAR LtCapACircum
ENCODING 194
SWIDTH 960 0
DWIDTH 8 0
BBX 8 16 0 -4
BITMAP
18
24
00
18
18
24
24
42
7e
42
42
42
00
00
00
00
ENDCHAR
STARTCHAR LtCapATilde
ENCODING 195
SWIDTH 960 0
DWIDTH 8 0
BBX 8 16 0 -4
BITMAP
12
2c
00
18
18
24
24
42
7e
42
42
42
00
00
00
00
ENDCHAR
STARTCHAR LtCapADrss
ENCODING 196
SWIDTH 960 0
DWIDTH 8 0
BBX 8 16 0 -4
BITMAP
24
24
00
18
18
24
24
42
7e
42
42
42
00
00
00
00
ENDCHAR
STARTCHAR LtCapARing
ENCODING 197
SWIDTH 960 0
DWIDTH 8 0
BBX 8 16 0 -4
BITMAP
18
24
24
18
18
24
24
42
7e
42
42
42
00
00
00
00
ENDCHAR
STARTCHAR LtCapAE
ENCODING 198
SWIDTH 960 0
DWIDTH 8 0
BBX 8 16 0 -4
BITMAP
00
00
1f
18
28
28
2e
48
78
48
88
8f
00
00
00
00
ENDCHAR
STARTCHAR LtCapCCedilla
ENCODING 199
SWIDTH 960 0
DWIDTH 8 0
BBX 8 16 0 -4
BITMAP
00
00
1c
22
40
40
40
40
40
40
22
1c
08
04
18
00
ENDCHAR
STARTCHAR LtCapEGrave
ENCODING 200
SWIDTH 960 0
DWIDTH 8 0
BBX 8 16 0 -4
BITMAP
20
18
00
7e
40
40
40
78
40
40
40
7e
00
00
00
00
ENDCHAR
STARTCHAR LtCapEAcute
ENCODING 201
SWIDTH 960 0
DWIDTH 8 0
BBX 8 16 0 -4
BITMAP
04
18
00
7e
40
40
40
78
40
40
40
7e
00
00
00
00
ENDCHAR
STARTCHAR LtCapECircum
ENCODING 202
SWIDTH 960 0
DWIDTH 8 0
BBX 8 16 0 -4
BITMAP
18
24
00
7e
40
40
40
78
40
40
40
7e
00
00
00
00
ENDCHAR
STARTCHAR LtCapEDrss
ENCODING 203
SWIDTH 960 0
DWIDTH 8 0
BBX 8 16 0 -4
BITMAP
24
24
00
7e
40
40
40
78
40
40
40
7e
00
00
00
00
ENDCHAR
STARTCHAR LtCapIGrave
ENCODING 204
SWIDTH 960 0
DWIDTH 8 0
BBX 8 16 0 -4
BITMAP
10
0c
00
3e
08
08
08
08
08
08
08
3e
00
00
00
00
ENDCHAR
STARTCHAR LtCapIAcute
ENCODING 205
SWIDTH 960 0
DWIDTH 8 0
BBX 8 16 0 -4
BITMAP
04
18
00
3e
08
08
08
08
08
08
08
3e
00
00
00
00
ENDCHAR
STARTCHAR LtCapICircum
ENCODING 206
SWIDTH 960 0
DWIDTH 8 0
BBX 8 16 0 -4
BITMAP
0c
12
00
3e
08
08
08
08
08
08
08
3e
00
00
00
00
ENDCHAR
STARTCHAR LtCapIDrss
ENCODING 207
SWIDTH 960 0
DWIDTH 8 0
BBX 8 16 0 -4
BITMAP
12
12
00
3e
08
08
08
08
08
08
08
3e
00
00
00
00
ENDCHAR
STARTCHAR LtCapEth
ENCODING 208
SWIDTH 960 0
DWIDTH 8 0
BBX 8 16 0 -4
BITMAP
00
00
78
44
42
42
f2
42
42
42
44
78
00
00
00
00
ENDCHAR
STARTCHAR LtCapNTilde
ENCODING 209
SWIDTH 960 0
DWIDTH 8 0
BBX 8 16 0 -4
BITMAP
32
4c
00
42
62
52
52
4a
4a
46
42
42
00
00
00
00
ENDCHAR
STARTCHAR LtCapOGrave
ENCODING 210
SWIDTH 960 0
DWIDTH 8 0
BBX 8 16 0 -4
BITMAP
20
18
00
3c
42
42
42
42
42
42
42
3c
00
00
00
00
ENDCHAR
STARTCHAR LtCapOAcute
ENCODING 211
SWIDTH 960 0
DWIDTH 8 0
BBX 8 16 0 -4
BITMAP
04
18
00
3c
42
42
42
42
42
42
42
3c
00
00
00
00
ENDCHAR
STARTCHAR LtCapOCircum
ENCODING 212
SWIDTH 960 0
DWIDTH 8 0
BBX 8 16 0 -4
BITMAP
18
24
00
3c
42
42
42
42
42
42
42
3c
00
00
00
00
ENDCHAR
STARTCHAR LtCapOTilde
ENCODING 213
SWIDTH 960 0
DWIDTH 8 0
BBX 8 16 0 -4
BITMAP
12
2c
00
3c
42
42
42
42
42
42
42
3c
00
00
00
00
ENDCHAR
STARTCHAR LtCapODrss
ENCODING 214
SWIDTH 960 0
DWIDTH 8 0
BBX 8 16 0 -4
BITMAP
24
24
00
3c
42
42
42
42
42
42
42
3c
00
00
00
00
ENDCHAR
STARTCHAR MMultiply
ENCODING 215
SWIDTH 960 0
DWIDTH 8 0
BBX 8 16 0 -4
BITMAP
00
00
00
00
00
42
24
18
18
24
42
00
00
00
00
00
ENDCHAR
STARTCHAR LtCapOStroke
ENCODING 216
SWIDTH 960 0
DWIDTH 8 0
BBX 8 16 0 -4
BITMAP
00
02
3a
24
46
4a
4a
52
52
62
24
5c
40
00
00
00
ENDCHAR
STARTCHAR LtCapUGrave
ENCODING 217
SWIDTH 960 0
DWIDTH 8 0
BBX 8 16 0 -4
BITMAP
20
18
00
42
42
42
42
42
42
42
42
3c
00
00
00
00
ENDCHAR
STARTCHAR LtCapUAcute
ENCODING 218
SWIDTH 960 0
DWIDTH 8 0
BBX 8 16 0 -4
BITMAP
04
18
00
42
42
42
42
42
42
42
42
3c
00
00
00
00
ENDCHAR
STARTCHAR LtCapUCircum
ENCODING 219
SWIDTH 960 0
DWIDTH 8 0
BBX 8 16 0 -4
BITMAP
18
24
00
42
42
42
42
42
42
42
42
3c
00
00
00
00
ENDCHAR
STARTCHAR LtCapUDrss
ENCODING 220
SWIDTH 960 0
DWIDTH 8 0
BBX 8 16 0 -4
BITMAP
24
24
00
42
42
42
42
42
42
42
42
3c
00
00
00
00
ENDCHAR
STARTCHAR LtCapYAcute
ENCODING 221
SWIDTH 960 0
DWIDTH 8 0
BBX 8 16 0 -4
BITMAP
02
0c
00
41
22
22
14
14
08
08
08
08
00
00
00
00
ENDCHAR
STARTCHAR LtCapThorn
ENCODING 222
SWIDTH 960 0
DWIDTH 8 0
BBX 8 16 0 -4
BITMAP
00
00
40
40
7c
42
42
42
42
7c
40
40
00
00
00
00
ENDCHAR
STARTCHAR LtSmlSz
ENCODING 223
SWIDTH 960 0
DWIDTH 8 0
BBX 8 16 0 -4
BITMAP
00
00
38
44
44
48
4c
42
42
42
52
4c
00
00
00
00
ENDCHAR
STARTCHAR LtSmlAGrave
ENCODING 224
SWIDTH 960 0
DWIDTH 8 0
BBX 8 16 0 -4
BITMAP
00
10
10
08
00
3c
02
02
3e
42
46
3a
00
00
00
00
ENDCHAR
STARTCHAR LtSmlAAcute
ENCODING 225
SWIDTH 960 0
DWIDTH 8 0
BBX 8 16 0 -4
BITMAP
00
08
08
10
00
3c
02
02
3e
42
46
3a
00
00
00
00
ENDCHAR
STARTCHAR LtSmlACircum
ENCODING 226
SWIDTH 960 0
DWIDTH 8 0
BBX 8 16 0 -4
BITMAP
00
00
18
24
00
3c
02
02
3e
42
46
3a
00
00
00
00
ENDCHAR
STARTCHAR LtSmlATilde
ENCODING 227
SWIDTH 960 0
DWIDTH 8 0
BBX 8 16 0 -4
BITMAP
00
00
12
2c
00
3c
02
02
3e
42
46
3a
00
00
00
00
ENDCHAR
STARTCHAR LtSmlADrss
ENCODING 228
SWIDTH 960 0
DWIDTH 8 0
BBX 8 16 0 -4
BITMAP
00
00
24
24
00
3c
02
02
3e
42
46
3a
00
00
00
00
ENDCHAR
STARTCHAR LtSmlARing
ENCODING 229
SWIDTH 960 0
DWIDTH 8 0
BBX 8 16 0 -4
BITMAP
00
18
24
18
00
3c
02
02
3e
42
46
3a
00
00
00
00
ENDCHAR
STARTCHAR LtSmlAE
ENCODING 230
SWIDTH 960 0
DWIDTH 8 0
BBX 8 16 0 -4
BITMAP
00
00
00
00
00
76
09
09
3f
48
48
37
00
00
00
00
ENDCHAR
STARTCHAR LtSmlCCedilla
ENCODING 231
SWIDTH 960 0
DWIDTH 8 0
BBX 8 16 0 -4
BITMAP
00
00
00
00
00
3c
42
40
40
40
42
3c
10
08
30
00
ENDCHAR
STARTCHAR LtSmlEGrave
ENCODING 232
SWIDTH 960 0
DWIDTH 8 0
BBX 8 16 0 -4
BITMAP
00
10
10
08
00
3c
42
42
7e
40
40
3c
00
00
00
00
ENDCHAR
STARTCHAR LtSmlEAcute
ENCODING 233
SWIDTH 960 0
DWIDTH 8 0
BBX 8 16 0 -4
BITMAP
00
08
08
10
00
3c
42
42
7e
40
40
3c
00
00
00
00
ENDCHAR
STARTCHAR LtSmlECircum
ENCODING 234
SWIDTH 960 0
DWIDTH 8 0
BBX 8 16 0 -4
BITMAP
00
00
18
24
00
3c
42
42
7e
40
40
3c
00
00
00
00
ENDCHAR
STARTCHAR LtSmlEDrss
ENCODING 235
SWIDTH 960 0
DWIDTH 8 0
BBX 8 16 0 -4
BITMAP
00
00
24
24
00
3c
42
42
7e
40
40
3c
00
00
00
00
ENDCHAR
STARTCHAR LtSmlIGrave
ENCODING 236
SWIDTH 960 0
DWIDTH 8 0
BBX 8 16 0 -4
BITMAP
00
10
10
08
00
18
08
08
08
08
08
3e
00
00
00
00
ENDCHAR
STARTCHAR LtSmlIAcute
ENCODING 237
SWIDTH 960 0
DWIDTH 8 0
BBX 8 16 0 -4
BITMAP
00
08
08
10
00
18
08
08
08
08
08
3e
00
00
00
00
ENDCHAR
STARTCHAR LtSmlICircum
ENCODING 238
SWIDTH 960 0
DWIDTH 8 0
BBX 8 16 0 -4
BITMAP
00
00
18
24
00
18
08
08
08
08
08
3e
00
00
00
00
ENDCHAR
STARTCHAR LtSmlIDrss
ENCODING 239
SWIDTH 960 0
DWIDTH 8 0
BBX 8 16 0 -4
BITMAP
00
00
24
24
00
18
08
08
08
08
08
3e
00
00
00
00
ENDCHAR
STARTCHAR LtSmlEth
ENCODING 240
SWIDTH 960 0
DWIDTH 8 0
BBX 8 16 0 -4
BITMAP
00
00
48
30
48
1c
22
42
42
42
42
3c
00
00
00
00
ENDCHAR
STARTCHAR LtSmlNTilde
ENCODING 241
SWIDTH 960 0
DWIDTH 8 0
BBX 8 16 0 -4
BITMAP
00
00
32
4c
00
5c
62
42
42
42
42
42
00
00
00
00
ENDCHAR
STARTCHAR LtSmlOGrave
ENCODING 242
SWIDTH 960 0
DWIDTH 8 0
BBX 8 16 0 -4
BITMAP
00
10
10
08
00
3c
42
42
42
42
42
3c
00
00
00
00
ENDCHAR
STARTCHAR LtSmlOAcute
ENCODING 243
SWIDTH 960 0
DWIDTH 8 0
BBX 8 16 0 -4
BITMAP
00
08
08
10
00
3c
42
42
42
42
42
3c
00
00
00
00
ENDCHAR
STARTCHAR LtSmlOCircum
ENCODING 244
SWIDTH 960 0
DWIDTH 8 0
BBX 8 16 0 -4
BITMAP
00
00
18
24
00
3c
42
42
42
42
42
3c
00
00
00
00
ENDCHAR
STARTCHAR LtSmlOTilde
ENCODING 245
SWIDTH 960 0
DWIDTH 8 0
BBX 8 16 0 -4
BITMAP
00
00
12
2c
00
3c
42
42
42
42
42
3c
00
00
00
00
ENDCHAR
STARTCHAR LtSmlODrss
ENCODING 246
SWIDTH 960 0
DWIDTH 8 0
BBX 8 16 0 -4
BITMAP
00
00
24
24
00
3c
42
42
42
42
42
3c
00
00
00
00
ENDCHAR
STARTCHAR MDivision
ENCODING 247
SWIDTH 960 0
DWIDTH 8 0
BBX 8 16 0 -4
BITMAP
00
00
00
08
1c
08
00
7f
00
08
1c
08
00
00
00
00
ENDCHAR
STARTCHAR LtSmlOStroke
ENCODING 248
SWIDTH 960 0
DWIDTH 8 0
BBX 8 16 0 -4
BITMAP
00
00
00
00
02
3c
46
4a
52
52
62
3c
40
00
00
00
ENDCHAR
STARTCHAR LtSmlUGrave
ENCODING 249
SWIDTH 960 0
DWIDTH 8 0
BBX 8 16 0 -4
BITMAP
00
10
10
08
00
42
42
42
42
42
46
3a
00
00
00
00
ENDCHAR
STARTCHAR LtSmlUAcute
ENCODING 250
SWIDTH 960 0
DWIDTH 8 0
BBX 8 16 0 -4
BITMAP
00
08
08
10
00
42
42
42
42
42
46
3a
00
00
00
00
ENDCHAR
STARTCHAR LtSmlUCircum
ENCODING 251
SWIDTH 960 0
DWIDTH 8 0
BBX 8 16 0 -4
BITMAP
00
00
18
24
00
42
42
42
42
42
46
3a
00
00
00
00
ENDCHAR
STARTCHAR LtSmlUDrss
ENCODING 252
SWIDTH 960 0
DWIDTH 8 0
BBX 8 16 0 -4
BITMAP
00
00
24
24
00
42
42
42
42
42
46
3a
00
00
00
00
ENDCHAR
STARTCHAR LtSmlYAcute
ENCODING 253
SWIDTH 960 0
DWIDTH 8 0
BBX 8 16 0 -4
BITMAP
00
08
08
10
00
42
42
22
24
14
14
08
08
50
20
00
ENDCHAR
STARTCHAR LtSmlThorn
ENCODING 254
SWIDTH 960 0
DWIDTH 8 0
BBX 8 16 0 -4
BITMAP
00
00
40
40
40
5c
62
42
42
42
62
5c
40
40
40
00
ENDCHAR
STARTCHAR LtSmlYDrss
ENCODING 255
SWIDTH 960 0
DWIDTH 8 0
BBX 8 16 0 -4
BITMAP
00
00
24
24
00
42
42
22
24
14
14
08
08
50
20
00
ENDCHAR
STARTCHAR LtCapAMacron
ENCODING 256
SWIDTH 960 0
DWIDTH 8 0
BBX 8 16 0 -4
BITMAP
3c
00
18
18
24
24
42
42
7e
42
42
42
00
00
00
00
ENDCHAR
STARTCHAR LtSmlAMacron
ENCODING 257
SWIDTH 960 0
DWIDTH 8 0
BBX 8 16 0 -4
BITMAP
00
00
3c
00
00
3c
02
02
3e
42
46
3a
00
00
00
00
ENDCHAR
STARTCHAR LtCapABreve
ENCODING 258
SWIDTH 960 0
DWIDTH 8 0
BBX 8 16 0 -4
BITMAP
24
18
00
18
18
24
24
42
7e
42
42
42
00
00
00
00
ENDCHAR
STARTCHAR LtSmlABreve
ENCODING 259
SWIDTH 960 0
DWIDTH 8 0
BBX 8 16 0 -4
BITMAP
00
00
24
18
00
3c
02
02
3e
42
46
3a
00
00
00
00
ENDCHAR
STARTCHAR LtCapAOgonek
ENCODING 260
SWIDTH 960 0
DWIDTH 8 0
BBX 8 16 0 -4
BITMAP
00
00
18
18
24
24
42
42
7e
42
42
42
04
08
06
00
ENDCHAR
STARTCHAR LtSmlAOgonek
ENCODING 261
SWIDTH 960 0
DWIDTH 8 0
BBX 8 16 0 -4
BITMAP
00
00
00
00
00
3c
02
02
3e
42
46
3a
04
08
06
00
ENDCHAR
STARTCHAR LtCapCAcute
ENCODING 262
SWIDTH 960 0
DWIDTH 8 0
BBX 8 16 0 -4
BITMAP
04
18
00
1c
22
40
40
40
40
40
22
1c
00
00
00
00
ENDCHAR
STARTCHAR LtSmlCAcute
ENCODING 263
SWIDTH 960 0
DWIDTH 8 0
BBX 8 16 0 -4
BITMAP
00
08
08
10
00
3c
42
40
40
40
42
3c
00
00
00
00
ENDCHAR
STARTCHAR LtCapCCircum
ENCODING 264
SWIDTH 960 0
DWIDTH 8 0
BBX 8 16 0 -4
BITMAP
18
24
00
1c
22
40
40
40
40
40
22
1c
00
00
00
00
ENDCHAR
STARTCHAR LtSmlCCircum
ENCODING 265
SWIDTH 960 0
DWIDTH 8 0
BBX 8 16 0 -4
BITMAP
00
00
18
24
00
3c
42
40
40
40
42
3c
00
00
00
00
ENDCHAR
STARTCHAR LtCapCDot
ENCODING 266
SWIDTH 960 0
DWIDTH 8 0
BBX 8 16 0 -4
BITMAP
08
08
00
1c
22
40
40
40
40
40
22
1c
00
00
00
00
ENDCHAR
STARTCHAR LtSmlCDot
ENCODING 267
SWIDTH 960 0
DWIDTH 8 0
BBX 8 16 0 -4
BITMAP
00
00
08
08
00
3c
42
40
40
40
42
3c
00
00
00
00
ENDCHAR
STARTCHAR LtCapCCaron
ENCODING 268
SWIDTH 960 0
DWIDTH 8 0
BBX 8 16 0 -4
BITMAP
12
0c
00
1c
22
40
40
40
40
40
22
1c
00
00
00
00
ENDCHAR
STARTCHAR LtSmlCCaron
ENCODING 269
SWIDTH 960 0
DWIDTH 8 0
BBX 8 16 0 -4
BITMAP
00
00
24
18
00
3c
42
40
40
40
42
3c
00
00
00
00
ENDCHAR
STARTCHAR LtCapDCaron
ENCODING 270
SWIDTH 960 0
DWIDTH 8 0
BBX 8 16 0 -4
BITMAP
48
30
00
78
44
42
42
42
42
42
44
78
00
00
00
00
ENDCHAR
STARTCHAR LtSmlDCaron
ENCODING 271
SWIDTH 960 0
DWIDTH 8 0
BBX 8 16 0 -4
BITMAP
00
03
05
05
06
34
4c
44
44
44
4c
34
00
00
00
00
ENDCHAR
STARTCHAR LtCapDStroke
ENCODING 272
SWIDTH 960 0
DWIDTH 8 0
BBX 8 16 0 -4
BITMAP
00
00
78
44
42
42
f2
42
42
42
44
78
00
00
00
00
ENDCHAR
STARTCHAR LtSmlDStroke
ENCODING 273
SWIDTH 960 0
DWIDTH 8 0
BBX 8 16 0 -4
BITMAP
00
00
02
0f
02
3a
46
42
42
42
46
3a
00
00
00
00
ENDCHAR
STARTCHAR LtCapEMacron
ENCODING 274
SWIDTH 960 0
DWIDTH 8 0
BBX 8 16 0 -4
BITMAP
3c
00
7e
40
40
40
78
40
40
40
40
7e
00
00
00
00
ENDCHAR
STARTCHAR LtSmlEMacron
ENCODING 275
SWIDTH 960 0
DWIDTH 8 0
BBX 8 16 0 -4
BITMAP
00
00
3c
00
00
3c
42
42
7e
40
40
3c
00
00
00
00
ENDCHAR
STARTCHAR LtCapEBreve
ENCODING 276
SWIDTH 960 0
DWIDTH 8 0
BBX 8 16 0 -4
BITMAP
24
18
00
7e
40
40
40
78
40
40
40
7e
00
00
00
00
ENDCHAR
STARTCHAR LtSmlEBreve
ENCODING 277
SWIDTH 960 0
DWIDTH 8 0
BBX 8 16 0 -4
BITMAP
00
00
24
18
00
3c
42
42
7e
40
40
3c
00
00
00
00
ENDCHAR
STARTCHAR LtCapEDot
ENCODING 278
SWIDTH 960 0
DWIDTH 8 0
BBX 8 16 0 -4
BITMAP
10
10
00
7e
40
40
40
78
40
40
40
7e
00
00
00
00
ENDCHAR
STARTCHAR LtSmlEDot
ENCODING 279
SWIDTH 960 0
DWIDTH 8 0
BBX 8 16 0 -4
BITMAP
00
00
08
08
00
3c
42
42
7e
40
40
3c
00
00
00
00
ENDCHAR
STARTCHAR LtCapEOgonek
ENCODING 280
SWIDTH 960 0
DWIDTH 8 0
BBX 8 16 0 -4
BITMAP
00
00
7e
40
40
40
78
40
40
40
40
7e
04
08
06
00
ENDCHAR
STARTCHAR LtSmlEOgonek
ENCODING 281
SWIDTH 960 0
DWIDTH 8 0
BBX 8 16 0 -4
BITMAP
00
00
00
00
00
3c
42
42
7e
40
40
3c
08
10
0c
00
ENDCHAR
STARTCHAR LtCapECaron
ENCODING 282
SWIDTH 960 0
DWIDTH 8 0
BBX 8 16 0 -4
BITMAP
24
18
00
7e
40
40
40
78
40
40
40
7e
00
00
00
00
ENDCHAR
STARTCHAR LtSmlECaron
ENCODING 283
SWIDTH 960 0
DWIDTH 8 0
BBX 8 16 0 -4
BITMAP
00
00
24
18
00
3c
42
42
7e
40
40
3c
00
00
00
00
ENDCHAR
STARTCHAR LtCapGCircum
ENCODING 284
SWIDTH 960 0
DWIDTH 8 0
BBX 8 16 0 -4
BITMAP
18
24
00
1c
22
40
40
46
42
42
22
1e
00
00
00
00
ENDCHAR
STARTCHAR LtSmlGCircum
ENCODING 285
SWIDTH 960 0
DWIDTH 8 0
BBX 8 16 0 -4
BITMAP
00
00
18
24
00
3a
44
44
44
38
40
3c
42
42
3c
00
ENDCHAR
STARTCHAR LtCapGBreve
ENCODING 286
SWIDTH 960 0
DWIDTH 8 0
BBX 8 16 0 -4
BITMAP
12
0c
00
1c
22
40
40
46
42
42
22
1e
00
00
00
00
ENDCHAR
STARTCHAR LtSmlGBreve
ENCODING 287
SWIDTH 960 0
DWIDTH 8 0
BBX 8 16 0 -4
BITMAP
00
00
24
18
00
3a
44
44
44
38
40
3c
42
42
3c
00
ENDCHAR
STARTCHAR LtCapGDot
ENCODING 288
SWIDTH 960 0
DWIDTH 8 0
BBX 8 16 0 -4
BITMAP
08
08
00
1c
22
40
40
46
42
42
22
1e
00
00
00
00
ENDCHAR
STARTCHAR LtSmlGDot
ENCODING 289
SWIDTH 960 0
DWIDTH 8 0
BBX 8 16 0 -4
BITMAP
00
00
10
10
00
3a
44
44
44
38
40
3c
42
42
3c
00
ENDCHAR
STARTCHAR LtCapGComma
ENCODING 290
SWIDTH 960 0
DWIDTH 8 0
BBX 8 16 0 -4
BITMAP
00
00
1c
22
40
40
40
46
42
42
22
1e
10
08
10
00
ENDCHAR
STARTCHAR LtSmlGComma
ENCODING 291
SWIDTH 960 0
DWIDTH 8 0
BBX 8 16 0 -4
BITMAP
00
08
10
08
00
3a
44
44
44
38
40
3c
42
42
3c
00
ENDCHAR
STARTCHAR LtCapHCircum
ENCODING 292
SWIDTH 960 0
DWIDTH 8 0
BBX 8 16 0 -4
BITMAP
18
24
00
42
42
42
42
7e
42
42
42
42
00
00
00
00
ENDCHAR
STARTCHAR LtSmlHCircum
ENCODING 293
SWIDTH 960 0
DWIDTH 8 0
BBX 8 16 0 -4
BITMAP
0c
12
40
40
40
5c
62
42
42
42
42
42
00
00
00
00
ENDCHAR
STARTCHAR LtCapHStroke
ENCODING 294
SWIDTH 960 0
DWIDTH 8 0
BBX 8 16 0 -4
BITMAP
00
00
42
42
42
7e
42
7e
42
42
42
42
00
00
00
00
ENDCHAR
STARTCHAR LtSmlHStroke
ENCODING 295
SWIDTH 960 0
DWIDTH 8 0
BBX 8 16 0 -4
BITMAP
00
00
40
f0
40
5c
62
42
42
42
42
42
00
00
00
00
ENDCHAR
STARTCHAR LtCapITilde
ENCODING 296
SWIDTH 960 0
DWIDTH 8 0
BBX 8 16 0 -4
BITMAP
12
2c
00
3e
08
08
08
08
08
08
08
3e
00
00
00
00
ENDCHAR
STARTCHAR LtSmlITilde
ENCODING 297
SWIDTH 960 0
DWIDTH 8 0
BBX 8 16 0 -4
BITMAP
00
00
12
2c
00
18
08
08
08
08
08
3e
00
00
00
00
ENDCHAR
STARTCHAR LtCapIMacron
ENCODING 298
SWIDTH 960 0
DWIDTH 8 0
BBX 8 16 0 -4
BITMAP
1e
00
3e
08
08
08
08
08
08
08
08
3e
00
00
00
00
ENDCHAR
STARTCHAR LtSmlIMacron
ENCODING 299
SWIDTH 960 0
DWIDTH 8 0
BBX 8 16 0 -4
BITMAP
00
00
3c
00
00
18
08
08
08
08
08
3e
00
00
00
00
ENDCHAR
STARTCHAR LtCapIBreve
ENCODING 300
SWIDTH 960 0
DWIDTH 8 0
BBX 8 16 0 -4
BITMAP
22
1c
00
3e
08
08
08
08
08
08
08
3e
00
00
00
00
ENDCHAR
STARTCHAR LtSmlIBreve
ENCODING 301
SWIDTH 960 0
DWIDTH 8 0
BBX 8 16 0 -4
BITMAP
00
00
24
18
00
18
08
08
08
08
08
3e
00
00
00
00
ENDCHAR
STARTCHAR LtCapIOgonek
ENCODING 302
SWIDTH 960 0
DWIDTH 8 0
BBX 8 16 0 -4
BITMAP
00
00
3e
08
08
08
08
08
08
08
08
3e
04
08
06
00
ENDCHAR
STARTCHAR LtSmlIOgonek
ENCODING 303
SWIDTH 960 0
DWIDTH 8 0
BBX 8 16 0 -4
BITMAP
00
00
08
08
00
18
08
08
08
08
08
3e
04
08
06
00
ENDCHAR
STARTCHAR LtCapIDot
ENCODING 304
SWIDTH 960 0
DWIDTH 8 0
BBX 8 16 0 -4
BITMAP
08
08
00
3e
08
08
08
08
08
08
08
3e
00
00
00
00
ENDCHAR
STARTCHAR LtSmlIDotless
ENCODING 305
SWIDTH 960 0
DWIDTH 8 0
BBX 8 16 0 -4
BITMAP
00
00
00
00
00
18
08
08
08
08
08
3e
00
00
00
00
ENDCHAR
STARTCHAR LtCapIJ
ENCODING 306
SWIDTH 960 0
DWIDTH 8 0
BBX 8 16 0 -4
BITMAP
00
00
e7
42
42
42
42
42
42
52
52
ec
00
00
00
00
ENDCHAR
STARTCHAR LtSmlIJ
ENCODING 307
SWIDTH 960 0
DWIDTH 8 0
BBX 8 16 0 -4
BITMAP
00
00
22
22
00
66
22
22
22
22
22
72
02
02
0c
00
ENDCHAR
STARTCHAR LtCapJCircum
ENCODING 308
SWIDTH 960 0
DWIDTH 8 0
BBX 8 16 0 -4
BITMAP
0c
12
00
0e
04
04
04
04
04
44
44
38
00
00
00
00
ENDCHAR
STARTCHAR LtSmlJCircum
ENCODING 309
SWIDTH 960 0
DWIDTH 8 0
BBX 8 16 0 -4
BITMAP
00
00
0c
12
00
1c
04
04
04
04
04
04
44
44
38
00
ENDCHAR
STARTCHAR LtCapKComma
ENCODING 310
SWIDTH 960 0
DWIDTH 8 0
BBX 8 16 0 -4
BITMAP
00
00
42
42
44
48
50
70
48
44
42
42
10
08
10
00
ENDCHAR
STARTCHAR LtSmlKComma
ENCODING 311
SWIDTH 960 0
DWIDTH 8 0
BBX 8 16 0 -4
BITMAP
00
00
40
40
40
42
44
48
70
48
44
42
10
08
10
00
ENDCHAR
STARTCHAR LtSmlKra
ENCODING 312
SWIDTH 960 0
DWIDTH 8 0
BBX 8 16 0 -4
BITMAP
00
00
00
00
00
42
44
48
70
48
44
42
00
00
00
00
ENDCHAR
STARTCHAR LtCapLAcute
ENCODING 313
SWIDTH 960 0
DWIDTH 8 0
BBX 8 16 0 -4
BITMAP
04
18
00
40
40
40
40
40
40
40
40
7e
00
00
00
00
ENDCHAR
STARTCHAR LtSmlLAcute
ENCODING 314
SWIDTH 960 0
DWIDTH 8 0
BBX 8 16 0 -4
BITMAP
04
18
00
18
08
08
08
08
08
08
08
3e
00
00
00
00
ENDCHAR
STARTCHAR LtCapLComma
ENCODING 315
SWIDTH 960 0
DWIDTH 8 0
BBX 8 16 0 -4
BITMAP
00
00
40
40
40
40
40
40
40
40
40
7e
10
08
10
00
ENDCHAR
STARTCHAR LtSmlLComma
ENCODING 316
SWIDTH 960 0
DWIDTH 8 0
BBX 8 16 0 -4
BITMAP
00
00
18
08
08
08
08
08
08
08
08
3e
08
04
08
00
ENDCHAR
STARTCHAR LtCapLCaron
ENCODING 317
SWIDTH 960 0
DWIDTH 8 0
BBX 8 16 0 -4
BITMAP
00
06
42
42
44
40
40
40
40
40
40
7e
00
00
00
00
ENDCHAR
STARTCHAR LtSmlLCaron
ENCODING 318
SWIDTH 960 0
DWIDTH 8 0
BBX 8 16 0 -4
BITMAP
00
06
32
12
14
10
10
10
10
10
10
7c
00
00
00
00
ENDCHAR
STARTCHAR LtCapLMdot
ENCODING 319
SWIDTH 960 0
DWIDTH 8 0
BBX 8 16 0 -4
BITMAP
00
00
40
40
40
40
42
42
40
40
40
7e
00
00
00
00
ENDCHAR
STARTCHAR LtSmlLMdot
ENCODING 320
SWIDTH 960 0
DWIDTH 8 0
BBX 8 16 0 -4
BITMAP
00
00
30
10
10
10
11
11
10
10
10
7c
00
00
00
00
ENDCHAR
STARTCHAR LtCapLStroke
ENCODING 321
SWIDTH 960 0
DWIDTH 8 0
BBX 8 16 0 -4
BITMAP
00
00
20
20
20
28
30
60
20
20
20
3f
00
00
00
00
ENDCHAR
STARTCHAR LtSmlLStroke
ENCODING 322
SWIDTH 960 0
DWIDTH 8 0
BBX 8 16 0 -4
BITMAP
00
00
18
08
08
08
0c
18
08
08
08
3e
00
00
00
00
ENDCHAR
STARTCHAR LtCapNAcute
ENCODING 323
SWIDTH 960 0
DWIDTH 8 0
BBX 8 16 0 -4
BITMAP
04
18
00
42
62
52
52
4a
4a
46
42
42
00
00
00
00
ENDCHAR
STARTCHAR LtSmlNAcute
ENCODING 324
SWIDTH 960 0
DWIDTH 8 0
BBX 8 16 0 -4
BITMAP
00
08
08
10
00
5c
62
42
42
42
42
42
00
00
00
00
ENDCHAR
STARTCHAR LtCapNComma
ENCODING 325
SWIDTH 960 0
DWIDTH 8 0
BBX 8 16 0 -4
BITMAP
00
00
42
42
62
52
52
4a
4a
46
42
42
10
08
10
00
ENDCHAR
STARTCHAR LtSmlNComma
ENCODING 326
SWIDTH 960 0
DWIDTH 8 0
BBX 8 16 0 -4
BITMAP
00
00
00
00
00
5c
62
42
42
42
42
42
10
08
10
00
ENDCHAR
STARTCHAR LtCapNCaron
ENCODING 327
SWIDTH 960 0
DWIDTH 8 0
BBX 8 16 0 -4
BITMAP
24
18
00
42
62
52
52
4a
4a
46
42
42
00
00
00
00
ENDCHAR
STARTCHAR LtSmlNCaron
ENCODING 328
SWIDTH 960 0
DWIDTH 8 0
BBX 8 16 0 -4
BITMAP
00
00
24
18
00
5c
62
42
42
42
42
42
00
00
00
00
ENDCHAR
STARTCHAR LtSmlNApostr
ENCODING 329
SWIDTH 960 0
DWIDTH 8 0
BBX 8 16 0 -4
BITMAP
00
c0
40
40
80
2e
31
21
21
21
21
21
00
00
00
00
ENDCHAR
STARTCHAR LtCapEng
ENCODING 330
SWIDTH 960 0
DWIDTH 8 0
BBX 8 16 0 -4
BITMAP
00
00
5c
62
42
42
42
42
42
42
4a
44
00
00
00
00
ENDCHAR
STARTCHAR LtSmlEng
ENCODING 331
SWIDTH 960 0
DWIDTH 8 0
BBX 8 16 0 -4
BITMAP
00
00
00
00
00
5c
62
42
42
42
42
42
02
12
0c
00
ENDCHAR
STARTCHAR LtCapOMacron
ENCODING 332
SWIDTH 960 0
DWIDTH 8 0
BBX 8 16 0 -4
BITMAP
3c
00
3c
42
42
42
42
42
42
42
42
3c
00
00
00
00
ENDCHAR
STARTCHAR LtSmlOMacron
ENCODING 333
SWIDTH 960 0
DWIDTH 8 0
BBX 8 16 0 -4
BITMAP
00
00
3c
00
00
3c
42
42
42
42
42
3c
00
00
00
00
ENDCHAR
STARTCHAR LtCapOBreve
ENCODING 334
SWIDTH 960 0
DWIDTH 8 0
BBX 8 16 0 -4
BITMAP
24
18
00
3c
42
42
42
42
42
42
42
3c
00
00
00
00
ENDCHAR
STARTCHAR LtSmlOBreve
ENCODING 335
SWIDTH 960 0
DWIDTH 8 0
BBX 8 16 0 -4
BITMAP
00
00
24
18
00
3c
42
42
42
42
42
3c
00
00
00
00
ENDCHAR
STARTCHAR LtCapOAcute2
ENCODING 336
SWIDTH 960 0
DWIDTH 8 0
BBX 8 16 0 -4
BITMAP
12
24
00
3c
42
42
42
42
42
42
42
3c
00
00
00
00
ENDCHAR
STARTCHAR LtSmlOAcute2
ENCODING 337
SWIDTH 960 0
DWIDTH 8 0
BBX 8 16 0 -4
BITMAP
00
12
12
24
00
3c
42
42
42
42
42
3c
00
00
00
00
ENDCHAR
STARTCHAR LtCapOE
ENCODING 338
SWIDTH 960 0
DWIDTH 8 0
BBX 8 16 0 -4
BITMAP
00
00
3f
48
48
48
4e
48
48
48
48
3f
00
00
00
00
ENDCHAR
STARTCHAR LtSmlOE
ENCODING 339
SWIDTH 960 0
DWIDTH 8 0
BBX 8 16 0 -4
BITMAP
00
00
00
00
00
36
49
49
4f
48
48
37
00
00
00
00
ENDCHAR
STARTCHAR LtCapRAcute
ENCODING 340
SWIDTH 960 0
DWIDTH 8 0
BBX 8 16 0 -4
BITMAP
04
18
00
7c
42
42
42
7c
48
44
42
42
00
00
00
00
ENDCHAR
STARTCHAR LtSmlRAcute
ENCODING 341
SWIDTH 960 0
DWIDTH 8 0
BBX 8 16 0 -4
BITMAP
00
08
08
10
00
6e
32
20
20
20
20
20
00
00
00
00
ENDCHAR
STARTCHAR LtCapRComma
ENCODING 342
SWIDTH 960 0
DWIDTH 8 0
BBX 8 16 0 -4
BITMAP
00
00
7c
42
42
42
7c
48
44
44
42
42
10
08
10
00
ENDCHAR
STARTCHAR LtSmlRComma
ENCODING 343
SWIDTH 960 0
DWIDTH 8 0
BBX 8 16 0 -4
BITMAP
00
00
00
00
00
6e
32
20
20
20
20
20
10
08
10
00
ENDCHAR
STARTCHAR LtCapRCaron
ENCODING 344
SWIDTH 960 0
DWIDTH 8 0
BBX 8 16 0 -4
BITMAP
24
18
00
7c
42
42
42
7c
48
44
42
42
00
00
00
00
ENDCHAR
STARTCHAR LtSmlRCaron
ENCODING 345
SWIDTH 960 0
DWIDTH 8 0
BBX 8 16 0 -4
BITMAP
00
00
24
18
00
6e
32
20
20
20
20
20
00
00
00
00
ENDCHAR
STARTCHAR LtCapSAcute
ENCODING 346
SWIDTH 960 0
DWIDTH 8 0
BBX 8 16 0 -4
BITMAP
04
18
00
3c
42
40
20
18
04
02
42
3c
00
00
00
00
ENDCHAR
STARTCHAR LtSmlSAcute
ENCODING 347
SWIDTH 960 0
DWIDTH 8 0
BBX 8 16 0 -4
BITMAP
00
08
08
10
00
3c
42
40
3c
02
42
3c
00
00
00
00
ENDCHAR
STARTCHAR LtCapSCircum
ENCODING 348
SWIDTH 960 0
DWIDTH 8 0
BBX 8 16 0 -4
BITMAP
18
24
00
3c
42
40
20
18
04
02
42
3c
00
00
00
00
ENDCHAR
STARTCHAR LtSmlSCircum
ENCODING 349
SWIDTH 960 0
DWIDTH 8 0
BBX 8 16 0 -4
BITMAP
00
00
18
24
00
3c
42
40
3c
02
42
3c
00
00
00
00
ENDCHAR
STARTCHAR LtCapSCedilla
ENCODING 350
SWIDTH 960 0
DWIDTH 8 0
BBX 8 16 0 -4
BITMAP
00
00
3c
42
40
40
30
0c
02
02
42
3c
10
08
30
00
ENDCHAR
STARTCHAR LtSmlSCedilla
ENCODING 351
SWIDTH 960 0
DWIDTH 8 0
BBX 8 16 0 -4
BITMAP
00
00
00
00
00
3c
42
40
3c
02
42
3c
10
08
30
00
ENDCHAR
STARTCHAR LtCapSCaron
ENCODING 352
SWIDTH 960 0
DWIDTH 8 0
BBX 8 16 0 -4
BITMAP
24
18
00
3c
42
40
20
18
04
02
42
3c
00
00
00
00
ENDCHAR
STARTCHAR LtSmlSCaron
ENCODING 353
SWIDTH 960 0
DWIDTH 8 0
BBX 8 16 0 -4
BITMAP
00
00
24
18
00
3c
42
40
3c
02
42
3c
00
00
00
00
ENDCHAR
STARTCHAR LtCapTCedilla
ENCODING 354
SWIDTH 960 0
DWIDTH 8 0
BBX 8 16 0 -4
BITMAP
00
00
7f
08
08
08
08
08
08
08
08
08
0c
04
18
00
ENDCHAR
STARTCHAR LtSmlTCedilla
ENCODING 355
SWIDTH 960 0
DWIDTH 8 0
BBX 8 16 0 -4
BITMAP
00
00
00
10
10
7c
10
10
10
10
12
0c
08
04
18
00
ENDCHAR
STARTCHAR LtCapTCaron
ENCODING 356
SWIDTH 960 0
DWIDTH 8 0
BBX 8 16 0 -4
BITMAP
24
18
00
7f
08
08
08
08
08
08
08
08
00
00
00
00
ENDCHAR
STARTCHAR LtSmlTCaron
ENCODING 357
SWIDTH 960 0
DWIDTH 8 0
BBX 8 16 0 -4
BITMAP
00
03
01
11
12
7c
10
10
10
10
12
0c
00
00
00
00
ENDCHAR
STARTCHAR LtCapTStroke
ENCODING 358
SWIDTH 960 0
DWIDTH 8 0
BBX 8 16 0 -4
BITMAP
00
00
7f
08
08
08
08
3e
08
08
08
08
00
00
00
00
ENDCHAR
STARTCHAR LtSmlTStroke
ENCODING 359
SWIDTH 960 0
DWIDTH 8 0
BBX 8 16 0 -4
BITMAP
00
00
00
10
10
7c
10
7c
10
10
12
0c
00
00
00
00
ENDCHAR
STARTCHAR LtCapUTilde
ENCODING 360
SWIDTH 960 0
DWIDTH 8 0
BBX 8 16 0 -4
BITMAP
32
4c
00
42
42
42
42
42
42
42
42
3c
00
00
00
00
ENDCHAR
STARTCHAR LtSmlUTilde
ENCODING 361
SWIDTH 960 0
DWIDTH 8 0
BBX 8 16 0 -4
BITMAP
00
00
32
4c
00
42
42
42
42
42
46
3a
00
00
00
00
ENDCHAR
STARTCHAR LtCapUMacron
ENCODING 362
SWIDTH 960 0
DWIDTH 8 0
BBX 8 16 0 -4
BITMAP
3c
00
42
42
42
42
42
42
42
42
42
3c
00
00
00
00
ENDCHAR
STARTCHAR LtSmlUMacron
ENCODING 363
SWIDTH 960 0
DWIDTH 8 0
BBX 8 16 0 -4
BITMAP
00
00
3c
00
00
42
42
42
42
42
46
3a
00
00
00
00
ENDCHAR
STARTCHAR LtCapUBreve
ENCODING 364
SWIDTH 960 0
DWIDTH 8 0
BBX 8 16 0 -4
BITMAP
24
18
00
42
42
42
42
42
42
42
42
3c
00
00
00
00
ENDCHAR
STARTCHAR LtSmlUBreve
ENCODING 365
SWIDTH 960 0
DWIDTH 8 0
BBX 8 16 0 -4
BITMAP
00
00
24
18
00
42
42
42
42
42
46
3a
00
00
00
00
ENDCHAR
STARTCHAR LtCapURing
ENCODING 366
SWIDTH 960 0
DWIDTH 8 0
BBX 8 16 0 -4
BITMAP
18
24
18
42
42
42
42
42
42
42
42
3c
00
00
00
00
ENDCHAR
STARTCHAR LtSmlURing
ENCODING 367
SWIDTH 960 0
DWIDTH 8 0
BBX 8 16 0 -4
BITMAP
00
18
24
18
00
42
42
42
42
42
46
3a
00
00
00
00
ENDCHAR
STARTCHAR LtCapUAcute2
ENCODING 368
SWIDTH 960 0
DWIDTH 8 0
BBX 8 16 0 -4
BITMAP
12
24
00
42
42
42
42
42
42
42
42
3c
00
00
00
00
ENDCHAR
STARTCHAR LtSmlUAcute2
ENCODING 369
SWIDTH 960 0
DWIDTH 8 0
BBX 8 16 0 -4
BITMAP
00
12
12
24
00
42
42
42
42
42
46
3a
00
00
00
00
ENDCHAR
STARTCHAR LtCapUOgonek
ENCODING 370
SWIDTH 960 0
DWIDTH 8 0
BBX 8 16 0 -4
BITMAP
00
00
42
42
42
42
42
42
42
42
42
3c
04
08
06
00
ENDCHAR
STARTCHAR LtSmlUOgonek
ENCODING 371
SWIDTH 960 0
DWIDTH 8 0
BBX 8 16 0 -4
BITMAP
00
00
00
00
00
42
42
42
42
42
46
3a
04
08
06
00
ENDCHAR
STARTCHAR LtCapWCircum
ENCODING 372
SWIDTH 960 0
DWIDTH 8 0
BBX 8 16 0 -4
BITMAP
0c
12
00
41
41
49
49
55
55
22
22
22
00
00
00
00
ENDCHAR
STARTCHAR LtSmlWCircum
ENCODING 373
SWIDTH 960 0
DWIDTH 8 0
BBX 8 16 0 -4
BITMAP
00
00
0c
12
00
41
49
49
49
36
22
22
00
00
00
00
ENDCHAR
STARTCHAR LtCapYCircum
ENCODING 374
SWIDTH 960 0
DWIDTH 8 0
BBX 8 16 0 -4
BITMAP
0c
12
00
41
22
22
14
14
08
08
08
08
00
00
00
00
ENDCHAR
STARTCHAR LtSmlYCircum
ENCODING 375
SWIDTH 960 0
DWIDTH 8 0
BBX 8 16 0 -4
BITMAP
00
00
18
24
00
42
42
22
24
14
14
08
08
50
20
00
ENDCHAR
STARTCHAR LtCapYDrss
ENCODING 376
SWIDTH 960 0
DWIDTH 8 0
BBX 8 16 0 -4
BITMAP
12
12
00
41
22
22
14
14
08
08
08
08
00
00
00
00
ENDCHAR
STARTCHAR LtCapZAcute
ENCODING 377
SWIDTH 960 0
DWIDTH 8 0
BBX 8 16 0 -4
BITMAP
04
18
00
7e
04
04
08
08
10
10
20
7e
00
00
00
00
ENDCHAR
STARTCHAR LtSmlZAcute
ENCODING 378
SWIDTH 960 0
DWIDTH 8 0
BBX 8 16 0 -4
BITMAP
00
08
08
10
00
7e
04
08
10
20
40
7e
00
00
00
00
ENDCHAR
STARTCHAR LtCapZDot
ENCODING 379
SWIDTH 960 0
DWIDTH 8 0
BBX 8 16 0 -4
BITMAP
10
10
00
7e
04
04
08
08
10
10
20
7e
00
00
00
00
ENDCHAR
STARTCHAR LtSmlZDot
ENCODING 380
SWIDTH 960 0
DWIDTH 8 0
BBX 8 16 0 -4
BITMAP
00
00
10
10
00
7e
04
08
10
20
40
7e
00
00
00
00
ENDCHAR
STARTCHAR LtCapZCaron
ENCODING 381
SWIDTH 960 0
DWIDTH 8 0
BBX 8 16 0 -4
BITMAP
24
18
00
7e
04
04
08
08
10
10
20
7e
00
00
00
00
ENDCHAR
STARTCHAR LtSmlZCaron
ENCODING 382
SWIDTH 960 0
DWIDTH 8 0
BBX 8 16 0 -4
BITMAP
00
00
24
18
00
7e
04
08
10
20
40
7e
00
00
00
00
ENDCHAR
STARTCHAR LtSmlSLong
ENCODING 383
SWIDTH 960 0
DWIDTH 8 0
BBX 8 16 0 -4
BITMAP
00
00
0e
12
10
10
10
10
10
10
10
10
00
00
00
00
ENDCHAR
STARTCHAR LtSmlBStroke
ENCODING 384
SWIDTH 960 0
DWIDTH 8 0
BBX 8 16 0 -4
BITMAP
00
00
40
f8
40
5c
62
42
42
42
62
5c
00
00
00
00
ENDCHAR
STARTCHAR LtCapBHook
ENCODING 385
SWIDTH 960 0
DWIDTH 8 0
BBX 8 16 0 -4
BITMAP
00
00
3e
51
51
51
1e
11
11
11
11
1e
00
00
00
00
ENDCHAR
STARTCHAR LtCapBTopbar
ENCODING 386
SWIDTH 960 0
DWIDTH 8 0
BBX 8 16 0 -4
BITMAP
00
00
7c
40
40
40
7c
42
42
42
42
7c
00
00
00
00
ENDCHAR
STARTCHAR LtSmlBTopbar
ENCODING 387
SWIDTH 960 0
DWIDTH 8 0
BBX 8 16 0 -4
BITMAP
00
00
7c
40
40
5c
62
42
42
42
62
5c
00
00
00
00
ENDCHAR
STARTCHAR LtCapTone6
ENCODING 388
SWIDTH 960 0
DWIDTH 8 0
BBX 8 16 0 -4
BITMAP
00
00
40
c0
c0
40
7c
42
42
42
42
7c
00
00
00
00
ENDCHAR
STARTCHAR LtSmlTone6
ENCODING 389
SWIDTH 960 0
DWIDTH 8 0
BBX 8 16 0 -4
BITMAP
00
00
00
00
00
20
60
60
3c
22
22
3c
00
00
00
00
ENDCHAR
STARTCHAR LtCapCTrnd
ENCODING 390
SWIDTH 960 0
DWIDTH 8 0
BBX 8 16 0 -4
BITMAP
00
00
38
44
02
02
02
02
02
02
44
38
00
00
00
00
ENDCHAR
STARTCHAR LtCapCHook
ENCODING 391
SWIDTH 960 0
DWIDTH 8 0
BBX 8 16 0 -4
BITMAP
03
04
1c
22
40
40
40
40
40
40
22
1c
00
00
00
00
ENDCHAR
STARTCHAR LtSmlCHook
ENCODING 392
SWIDTH 960 0
DWIDTH 8 0
BBX 8 16 0 -4
BITMAP
00
00
03
04
04
3c
42
40
40
40
42
3c
00
00
00
00
ENDCHAR
STARTCHAR LtCapDStrokeAfr
ENCODING 393
SWIDTH 960 0
DWIDTH 8 0
BBX 8 16 0 -4
BITMAP
00
00
78
44
42
42
f2
42
42
42
44
78
00
00
00
00
ENDCHAR
STARTCHAR LtCapDHook
ENCODING 394
SWIDTH 960 0
DWIDTH 8 0
BBX 8 16 0 -4
BITMAP
00
00
3c
52
51
51
11
11
11
11
12
1c
00
00
00
00
ENDCHAR
STARTCHAR LtCapDTopbar
ENCODING 395
SWIDTH 960 0
DWIDTH 8 0
BBX 8 16 0 -4
BITMAP
00
00
3e
02
02
02
3e
42
42
42
42
3e
00
00
00
00
ENDCHAR
STARTCHAR LtSmlDTopbar
ENCODING 396
SWIDTH 960 0
DWIDTH 8 0
BBX 8 16 0 -4
BITMAP
00
00
3e
02
02
3a
46
42
42
42
46
3a
00
00
00
00
ENDCHAR
STARTCHAR LtSmlDelTrnd
ENCODING 397
SWIDTH 960 0
DWIDTH 8 0
BBX 8 16 0 -4
BITMAP
00
00
00
00
00
3c
42
42
42
42
24
18
08
04
38
00
ENDCHAR
STARTCHAR LtCapERev
ENCODING 398
SWIDTH 960 0
DWIDTH 8 0
BBX 8 16 0 -4
BITMAP
00
00
7e
02
02
02
1e
02
02
02
02
7e
00
00
00
00
ENDCHAR
STARTCHAR LtCapSchwa
ENCODING 399
SWIDTH 960 0
DWIDTH 8 0
BBX 8 16 0 -4
BITMAP
00
00
38
24
02
02
02
7e
42
42
24
18
00
00
00
00
ENDCHAR
STARTCHAR LtCapEps
ENCODING 400
SWIDTH 960 0
DWIDTH 8 0
BBX 8 16 0 -4
BITMAP
00
00
3c
42
40
40
38
40
40
40
42
3c
00
00
00
00
ENDCHAR
STARTCHAR LtCapFLhook
ENCODING 401
SWIDTH 960 0
DWIDTH 8 0
BBX 8 16 0 -4
BITMAP
00
00
1f
10
10
10
1e
10
10
50
50
20
00
00
00
00
ENDCHAR
STARTCHAR LtSmlFLhook
ENCODING 402
SWIDTH 960 0
DWIDTH 8 0
BBX 8 16 0 -4
BITMAP
00
00
07
09
08
08
3e
08
08
08
08
08
08
48
70
00
ENDCHAR
STARTCHAR LtCapGHook
ENCODING 403
SWIDTH 960 0
DWIDTH 8 0
BBX 8 16 0 -4
BITMAP
03
04
1c
22
40
40
40
46
42
42
22
1e
00
00
00
00
ENDCHAR
STARTCHAR LtCapGam
ENCODING 404
SWIDTH 960 0
DWIDTH 8 0
BBX 8 16 0 -4
BITMAP
00
00
42
42
24
24
18
18
24
24
24
18
00
00
00
00
ENDCHAR
STARTCHAR LtSmlHwair
ENCODING 405
SWIDTH 960 0
DWIDTH 8 0
BBX 8 16 0 -4
BITMAP
00
00
40
40
40
71
49
49
49
49
49
46
00
00
00
00
ENDCHAR
STARTCHAR LtCapIot
ENCODING 406
SWIDTH 960 0
DWIDTH 8 0
BBX 8 16 0 -4
BITMAP
00
00
70
20
20
20
20
20
20
22
22
1c
00
00
00
00
ENDCHAR
STARTCHAR LtCapIStroke
ENCODING 407
SWIDTH 960 0
DWIDTH 8 0
BBX 8 16 0 -4
BITMAP
00
00
3e
08
08
08
3e
08
08
08
08
3e
00
00
00
00
ENDCHAR
STARTCHAR LtCapKHook
ENCODING 408
SWIDTH 960 0
DWIDTH 8 0
BBX 8 16 0 -4
BITMAP
00
00
46
49
49
50
50
70
48
44
42
42
00
00
00
00
ENDCHAR
STARTCHAR LtSmlKHook
ENCODING 409
SWIDTH 960 0
DWIDTH 8 0
BBX 8 16 0 -4
BITMAP
00
00
38
40
40
42
44
48
70
48
44
42
00
00
00
00
ENDCHAR
STARTCHAR LtSmlLStrokeH
ENCODING 410
SWIDTH 960 0
DWIDTH 8 0
BBX 8 16 0 -4
BITMAP
00
00
18
08
08
08
1c
08
08
08
08
3e
00
00
00
00
ENDCHAR
STARTCHAR LtSmlLamStroke
ENCODING 411
SWIDTH 960 0
DWIDTH 8 0
BBX 8 16 0 -4
BITMAP
00
00
20
24
18
30
48
18
24
24
42
42
00
00
00
00
ENDCHAR
STARTCHAR LtCapMTrnd
ENCODING 412
SWIDTH 960 0
DWIDTH 8 0
BBX 8 16 0 -4
BITMAP
00
00
49
49
49
49
49
49
49
49
49
37
00
00
00
00
ENDCHAR
STARTCHAR LtCapNLhookL
ENCODING 413
SWIDTH 960 0
DWIDTH 8 0
BBX 8 16 0 -4
BITMAP
00
00
11
11
19
19
15
15
13
53
51
21
00
00
00
00
ENDCHAR
STARTCHAR LtSmlNLongleg
ENCODING 414
SWIDTH 960 0
DWIDTH 8 0
BBX 8 16 0 -4
BITMAP
00
00
00
00
00
5c
62
42
42
42
42
42
02
02
02
00
ENDCHAR
STARTCHAR LtCapOStrokeH
ENCODING 415
SWIDTH 960 0
DWIDTH 8 0
BBX 8 16 0 -4
BITMAP
00
00
3c
42
42
42
7e
42
42
42
42
3c
00
00
00
00
ENDCHAR
STARTCHAR LtCapOHorn
ENCODING 416
SWIDTH 960 0
DWIDTH 8 0
BBX 8 16 0 -4
BITMAP
03
01
3e
42
42
42
42
42
42
42
42
3c
00
00
00
00
ENDCHAR
STARTCHAR LtSmlOHorn
ENCODING 417
SWIDTH 960 0
DWIDTH 8 0
BBX 8 16 0 -4
BITMAP
00
00
00
03
01
3e
42
42
42
42
42
3c
00
00
00
00
ENDCHAR
STARTCHAR LtCapOi
ENCODING 418
SWIDTH 960 0
DWIDTH 8 0
BBX 8 16 0 -4
BITMAP
00
00
32
4e
4a
4a
4a
4a
4a
4a
4a
32
02
02
02
00
ENDCHAR
STARTCHAR LtSmlOi
ENCODING 419
SWIDTH 960 0
DWIDTH 8 0
BBX 8 16 0 -4
BITMAP
00
00
00
00
00
32
4e
4a
4a
4a
4a
32
02
02
02
00
ENDCHAR
STARTCHAR LtCapPHook
ENCODING 420
SWIDTH 960 0
DWIDTH 8 0
BBX 8 16 0 -4
BITMAP
00
00
3e
51
51
51
11
1e
10
10
10
10
00
00
00
00
ENDCHAR
STARTCHAR LtSmlPHook
ENCODING 421
SWIDTH 960 0
DWIDTH 8 0
BBX 8 16 0 -4
BITMAP
00
00
06
08
08
5c
62
42
42
42
62
5c
40
40
40
00
ENDCHAR
STARTCHAR LtCapYr
ENCODING 422
SWIDTH 960 0
DWIDTH 8 0
BBX 8 16 0 -4
BITMAP
00
00
40
40
7c
42
42
42
7c
48
44
44
02
02
00
00
ENDCHAR
STARTCHAR LtCapTone2
ENCODING 423
SWIDTH 960 0
DWIDTH 8 0
BBX 8 16 0 -4
BITMAP
00
00
3c
42
02
02
0c
30
40
40
42
3c
00
00
00
00
ENDCHAR
STARTCHAR LtSmlTone2
ENCODING 424
SWIDTH 960 0
DWIDTH 8 0
BBX 8 16 0 -4
BITMAP
00
00
00
00
00
3c
42
02
3c
40
42
3c
00
00
00
00
ENDCHAR
STARTCHAR LtCapEsh
ENCODING 425
SWIDTH 960 0
DWIDTH 8 0
BBX 8 16 0 -4
BITMAP
00
00
7e
40
20
10
08
08
10
20
40
7e
00
00
00
00
ENDCHAR
STARTCHAR LtSmlEshRevLoop
ENCODING 426
SWIDTH 960 0
DWIDTH 8 0
BBX 8 16 0 -4
BITMAP
00
00
30
48
38
08
08
08
08
08
08
08
08
09
07
00
ENDCHAR
STARTCHAR LtSmlTLhookL
ENCODING 427
SWIDTH 960 0
DWIDTH 8 0
BBX 8 16 0 -4
BITMAP
00
00
00
10
10
7c
10
10
10
10
12
0e
02
02
0c
00
ENDCHAR
STARTCHAR LtCapTHook
ENCODING 428
SWIDTH 960 0
DWIDTH 8 0
BBX 8 16 0 -4
BITMAP
00
00
3f
48
48
08
08
08
08
08
08
08
00
00
00
00
ENDCHAR
STARTCHAR LtSmlTHook
ENCODING 429
SWIDTH 960 0
DWIDTH 8 0
BBX 8 16 0 -4
BITMAP
00
00
00
0c
10
7c
10
10
10
10
12
0c
00
00
00
00
ENDCHAR
STARTCHAR LtCapTLhook
ENCODING 430
SWIDTH 960 0
DWIDTH 8 0
BBX 8 16 0 -4
BITMAP
00
00
7f
08
08
08
08
08
08
08
08
06
00
00
00
00
ENDCHAR
STARTCHAR LtCapUHorn
ENCODING 431
SWIDTH 960 0
DWIDTH 8 0
BBX 8 16 0 -4
BITMAP
03
01
42
42
42
42
42
42
42
42
42
3c
00
00
00
00
ENDCHAR
STARTCHAR LtSmlUHorn
ENCODING 432
SWIDTH 960 0
DWIDTH 8 0
BBX 8 16 0 -4
BITMAP
00
00
00
03
01
42
42
42
42
42
46
3a
00
00
00
00
ENDCHAR
STARTCHAR LtCapUps
ENCODING 433
SWIDTH 960 0
DWIDTH 8 0
BBX 8 16 0 -4
BITMAP
00
00
77
14
22
41
41
41
41
41
22
1c
00
00
00
00
ENDCHAR
STARTCHAR LtCapVHook
ENCODING 434
SWIDTH 960 0
DWIDTH 8 0
BBX 8 16 0 -4
BITMAP
00
00
48
44
42
42
42
42
42
42
44
38
00
00
00
00
ENDCHAR
STARTCHAR LtCapYHook
ENCODING 435
SWIDTH 960 0
DWIDTH 8 0
BBX 8 16 0 -4
BITMAP
00
00
42
45
45
28
28
10
10
10
10
10
00
00
00
00
ENDCHAR
STARTCHAR LtSmlYHook
ENCODING 436
SWIDTH 960 0
DWIDTH 8 0
BBX 8 16 0 -4
BITMAP
00
00
00
00
00
42
45
25
24
18
18
08
10
50
20
00
ENDCHAR
STARTCHAR LtCapZStroke
ENCODING 437
SWIDTH 960 0
DWIDTH 8 0
BBX 8 16 0 -4
BITMAP
00
00
7e
02
04
08
3c
10
10
20
40
7e
00
00
00
00
ENDCHAR
STARTCHAR LtSmlZStroke
ENCODING 438
SWIDTH 960 0
DWIDTH 8 0
BBX 8 16 0 -4
BITMAP
00
00
00
00
00
7e
04
08
3c
10
20
7e
00
00
00
00
ENDCHAR
STARTCHAR LtCapEzh
ENCODING 439
SWIDTH 960 0
DWIDTH 8 0
BBX 8 16 0 -4
BITMAP
00
00
7e
02
04
08
1c
02
02
02
42
3c
00
00
00
00
ENDCHAR
STARTCHAR LtCapEzhRev
ENCODING 440
SWIDTH 960 0
DWIDTH 8 0
BBX 8 16 0 -4
BITMAP
00
00
7e
40
20
10
38
40
40
40
42
3c
00
00
00
00
ENDCHAR
STARTCHAR LtSmlEzhRev
ENCODING 441
SWIDTH 960 0
DWIDTH 8 0
BBX 8 16 0 -4
BITMAP
00
00
00
00
00
7e
40
20
10
38
40
40
40
42
3c
00
ENDCHAR
STARTCHAR LtSmlEzhTail
ENCODING 442
SWIDTH 960 0
DWIDTH 8 0
BBX 8 16 0 -4
BITMAP
00
00
00
00
00
7e
04
08
1c
02
02
3c
40
42
3c
00
ENDCHAR
STARTCHAR LtSmlTwoStroke
ENCODING 443
SWIDTH 960 0
DWIDTH 8 0
BBX 8 16 0 -4
BITMAP
00
00
3c
42
42
02
04
3e
10
20
40
7e
00
00
00
00
ENDCHAR
STARTCHAR LtCapTone5
ENCODING 444
SWIDTH 960 0
DWIDTH 8 0
BBX 8 16 0 -4
BITMAP
00
00
7c
40
40
78
04
02
02
02
44
38
00
00
00
00
ENDCHAR
STARTCHAR LtSmlTone5
ENCODING 445
SWIDTH 960 0
DWIDTH 8 0
BBX 8 16 0 -4
BITMAP
00
00
00
00
00
7e
40
7c
02
02
42
3c
00
00
00
00
ENDCHAR
STARTCHAR LtSmlGlotInvStroke
ENCODING 446
SWIDTH 960 0
DWIDTH 8 0
BBX 8 16 0 -4
BITMAP
00
00
08
08
08
3e
08
04
02
22
22
1c
00
00
00
00
ENDCHAR
STARTCHAR LtSmlWynn
ENCODING 447
SWIDTH 960 0
DWIDTH 8 0
BBX 8 16 0 -4
BITMAP
00
00
00
00
00
2c
32
22
22
24
28
30
20
20
20
00
ENDCHAR
STARTCHAR LtSmlPipe
ENCODING 448
SWIDTH 960 0
DWIDTH 8 0
BBX 8 16 0 -4
BITMAP
00
00
08
08
08
08
08
08
08
08
08
08
00
00
00
00
ENDCHAR
STARTCHAR LtSmlPipe2
ENCODING 449
SWIDTH 960 0
DWIDTH 8 0
BBX 8 16 0 -4
BITMAP
00
00
14
14
14
14
14
14
14
14
14
14
00
00
00
00
ENDCHAR
STARTCHAR LtSmlPipeStroke2
ENCODING 450
SWIDTH 960 0
DWIDTH 8 0
BBX 8 16 0 -4
BITMAP
00
00
08
08
08
08
3e
08
3e
08
08
08
00
00
00
00
ENDCHAR
STARTCHAR LtSmlExcl
ENCODING 451
SWIDTH 960 0
DWIDTH 8 0
BBX 8 16 0 -4
BITMAP
00
00
08
08
08
08
08
08
08
00
08
08
00
00
00
00
ENDCHAR
STARTCHAR LtCapDZCaron
ENCODING 452
SWIDTH 960 0
DWIDTH 8 0
BBX 8 16 0 -4
BITMAP
05
02
60
57
49
49
4a
4a
4a
4c
54
67
00
00
00
00
ENDCHAR
STARTCHAR LtMixDZCaron
ENCODING 453
SWIDTH 960 0
DWIDTH 8 0
BBX 8 16 0 -4
BITMAP
00
00
65
52
48
4f
49
49
4a
4a
54
67
00
00
00
00
ENDCHAR
STARTCHAR LtSmlDZCaron
ENCODING 454
SWIDTH 960 0
DWIDTH 8 0
BBX 8 16 0 -4
BITMAP
00
05
0b
0a
08
3f
49
49
4a
4a
5c
2f
00
00
00
00
ENDCHAR
STARTCHAR LtCapLJ
ENCODING 455
SWIDTH 960 0
DWIDTH 8 0
BBX 8 16 0 -4
BITMAP
00
00
43
41
41
41
41
41
41
45
45
7a
00
00
00
00
ENDCHAR
STARTCHAR LtMixLJ
ENCODING 456
SWIDTH 960 0
DWIDTH 8 0
BBX 8 16 0 -4
BITMAP
00
00
41
41
40
43
41
41
41
41
41
7d
01
01
06
00
ENDCHAR
STARTCHAR LtSmlLJ
ENCODING 457
SWIDTH 960 0
DWIDTH 8 0
BBX 8 16 0 -4
BITMAP
00
00
62
22
20
26
22
22
22
22
22
72
02
02
0c
00
ENDCHAR
STARTCHAR LtCapNJ
ENCODING 458
SWIDTH 960 0
DWIDTH 8 0
BBX 8 16 0 -4
BITMAP
00
00
4b
49
49
69
69
59
59
49
4d
4a
00
00
00
00
ENDCHAR
STARTCHAR LtMixNJ
ENCODING 459
SWIDTH 960 0
DWIDTH 8 0
BBX 8 16 0 -4
BITMAP
00
00
45
45
64
65
55
55
4d
4d
45
45
01
01
06
00
ENDCHAR
STARTCHAR LtSmlNJ
ENCODING 460
SWIDTH 960 0
DWIDTH 8 0
BBX 8 16 0 -4
BITMAP
00
00
01
01
00
59
65
45
45
45
45
45
01
01
06
00
ENDCHAR
STARTCHAR LtCapACaron
ENCODING 461
SWIDTH 960 0
DWIDTH 8 0
BBX 8 16 0 -4
BITMAP
24
18
00
18
18
24
24
42
7e
42
42
42
00
00
00
00
ENDCHAR
STARTCHAR LtSmlACaron
ENCODING 462
SWIDTH 960 0
DWIDTH 8 0
BBX 8 16 0 -4
BITMAP
00
00
24
18
00
3c
02
02
3e
42
46
3a
00
00
00
00
ENDCHAR
STARTCHAR LtCapICaron
ENCODING 463
SWIDTH 960 0
DWIDTH 8 0
BBX 8 16 0 -4
BITMAP
12
0c
00
3e
08
08
08
08
08
08
08
3e
00
00
00
00
ENDCHAR
STARTCHAR LtSmlICaron
ENCODING 464
SWIDTH 960 0
DWIDTH 8 0
BBX 8 16 0 -4
BITMAP
00
00
24
18
00
18
08
08
08
08
08
3e
00
00
00
00
ENDCHAR
STARTCHAR LtCapOCaron
ENCODING 465
SWIDTH 960 0
DWIDTH 8 0
BBX 8 16 0 -4
BITMAP
24
18
00
3c
42
42
42
42
42
42
42
3c
00
00
00
00
ENDCHAR
STARTCHAR LtSmlOCaron
ENCODING 466
SWIDTH 960 0
DWIDTH 8 0
BBX 8 16 0 -4
BITMAP
00
00
24
18
00
3c
42
42
42
42
42
3c
00
00
00
00
ENDCHAR
STARTCHAR LtCapUCaron
ENCODING 467
SWIDTH 960 0
DWIDTH 8 0
BBX 8 16 0 -4
BITMAP
24
18
00
42
42
42
42
42
42
42
42
3c
00
00
00
00
ENDCHAR
STARTCHAR LtSmlUCaron
ENCODING 468
SWIDTH 960 0
DWIDTH 8 0
BBX 8 16 0 -4
BITMAP
00
00
24
18
00
42
42
42
42
42
46
3a
00
00
00
00
ENDCHAR
STARTCHAR LtCapUDrssMacron
ENCODING 469
SWIDTH 960 0
DWIDTH 8 0
BBX 8 16 0 -4
BITMAP
3c
00
66
00
42
42
42
42
42
42
42
3c
00
00
00
00
ENDCHAR
STARTCHAR LtSmlUDrssMacron
ENCODING 470
SWIDTH 960 0
DWIDTH 8 0
BBX 8 16 0 -4
BITMAP
3c
00
24
24
00
42
42
42
42
42
46
3a
00
00
00
00
ENDCHAR
STARTCHAR LtCapUDrssAcute
ENCODING 471
SWIDTH 960 0
DWIDTH 8 0
BBX 8 16 0 -4
BITMAP
0c
10
66
00
42
42
42
42
42
42
42
3c
00
00
00
00
ENDCHAR
STARTCHAR LtSmlUDrssAcute
ENCODING 472
SWIDTH 960 0
DWIDTH 8 0
BBX 8 16 0 -4
BITMAP
04
18
00
66
00
42
42
42
42
42
46
3a
00
00
00
00
ENDCHAR
STARTCHAR LtCapUDrssCaron
ENCODING 473
SWIDTH 960 0
DWIDTH 8 0
BBX 8 16 0 -4
BITMAP
24
18
66
00
42
42
42
42
42
42
42
3c
00
00
00
00
ENDCHAR
STARTCHAR LtSmlUDrssCaron
ENCODING 474
SWIDTH 960 0
DWIDTH 8 0
BBX 8 16 0 -4
BITMAP
24
18
00
66
00
42
42
42
42
42
46
3a
00
00
00
00
ENDCHAR
STARTCHAR LtCapUDrssGrave
ENCODING 475
SWIDTH 960 0
DWIDTH 8 0
BBX 8 16 0 -4
BITMAP
30
08
66
00
42
42
42
42
42
42
42
3c
00
00
00
00
ENDCHAR
STARTCHAR LtSmlUDrssGrave
ENCODING 476
SWIDTH 960 0
DWIDTH 8 0
BBX 8 16 0 -4
BITMAP
20
18
00
66
00
42
42
42
42
42
46
3a
00
00
00
00
ENDCHAR
STARTCHAR LtSmlSchwaNig
ENCODING 477
SWIDTH 960 0
DWIDTH 8 0
BBX 8 16 0 -4
BITMAP
00
00
00
00
00
38
04
02
7e
42
24
18
00
00
00
00
ENDCHAR
STARTCHAR LtCapADrssMacron
ENCODING 478
SWIDTH 960 0
DWIDTH 8 0
BBX 8 16 0 -4
BITMAP
3c
00
66
00
18
24
42
42
7e
42
42
42
00
00
00
00
ENDCHAR
STARTCHAR LtSmlADrssMacron
ENCODING 479
SWIDTH 960 0
DWIDTH 8 0
BBX 8 16 0 -4
BITMAP
3c
00
24
24
00
3c
02
02
3e
42
46
3a
00
00
00
00
ENDCHAR
STARTCHAR LtCapADotMacron
ENCODING 480
SWIDTH 960 0
DWIDTH 8 0
BBX 8 16 0 -4
BITMAP
3c
00
18
00
18
24
42
42
7e
42
42
42
00
00
00
00
ENDCHAR
STARTCHAR LtSmlADotMacron
ENCODING 481
SWIDTH 960 0
DWIDTH 8 0
BBX 8 16 0 -4
BITMAP
3e
00
08
08
00
3c
02
02
3e
42
46
3a
00
00
00
00
ENDCHAR
STARTCHAR LtCapAEMacron
ENCODING 482
SWIDTH 960 0
DWIDTH 8 0
BBX 8 16 0 -4
BITMAP
3e
00
1f
18
28
28
2e
48
78
48
88
8f
00
00
00
00
ENDCHAR
STARTCHAR LtSmlAEMacron
ENCODING 483
SWIDTH 960 0
DWIDTH 8 0
BBX 8 16 0 -4
BITMAP
00
00
3e
00
00
76
09
09
3f
48
48
37
00
00
00
00
ENDCHAR
STARTCHAR LtCapGStroke
ENCODING 484
SWIDTH 960 0
DWIDTH 8 0
BBX 8 16 0 -4
BITMAP
00
00
1c
22
40
40
40
46
42
4f
22
1e
00
00
00
00
ENDCHAR
STARTCHAR LtSmlGStroke
ENCODING 485
SWIDTH 960 0
DWIDTH 8 0
BBX 8 16 0 -4
BITMAP
00
00
00
00
00
3a
44
44
44
38
40
3c
4f
42
3c
00
ENDCHAR
STARTCHAR LtCapGCaron
ENCODING 486
SWIDTH 960 0
DWIDTH 8 0
BBX 8 16 0 -4
BITMAP
12
0c
00
1c
22
40
40
46
42
42
22
1e
00
00
00
00
ENDCHAR
STARTCHAR LtSmlGCaron
ENCODING 487
SWIDTH 960 0
DWIDTH 8 0
BBX 8 16 0 -4
BITMAP
00
00
24
18
00
3a
44
44
44
38
40
3c
42
42
3c
00
ENDCHAR
STARTCHAR LtCapKCaron
ENCODING 488
SWIDTH 960 0
DWIDTH 8 0
BBX 8 16 0 -4
BITMAP
24
18
00
42
42
44
48
70
48
44
42
42
00
00
00
00
ENDCHAR
STARTCHAR LtSmlKCaron
ENCODING 489
SWIDTH 960 0
DWIDTH 8 0
BBX 8 16 0 -4
BITMAP
24
18
00
40
40
42
44
48
70
48
44
42
00
00
00
00
ENDCHAR
STARTCHAR LtCapOOgonek
ENCODING 490
SWIDTH 960 0
DWIDTH 8 0
BBX 8 16 0 -4
BITMAP
00
00
3c
42
42
42
42
42
42
42
42
3c
08
10
0c
00
ENDCHAR
STARTCHAR LtSmlOOgonek
ENCODING 491
SWIDTH 960 0
DWIDTH 8 0
BBX 8 16 0 -4
BITMAP
00
00
00
00
00
3c
42
42
42
42
42
3c
08
10
0c
00
ENDCHAR
STARTCHAR LtCapOMacronOgonek
ENCODING 492
SWIDTH 960 0
DWIDTH 8 0
BBX 8 16 0 -4
BITMAP
3c
00
3c
42
42
42
42
42
42
42
42
3c
08
10
0c
00
ENDCHAR
STARTCHAR LtSmlOMacronOgonek
ENCODING 493
SWIDTH 960 0
DWIDTH 8 0
BBX 8 16 0 -4
BITMAP
00
00
3c
00
00
3c
42
42
42
42
42
3c
08
10
0c
00
ENDCHAR
STARTCHAR LtCapEzhCaron
ENCODING 494
SWIDTH 960 0
DWIDTH 8 0
BBX 8 16 0 -4
BITMAP
24
18
00
7e
02
04
08
1c
02
02
42
3c
00
00
00
00
ENDCHAR
STARTCHAR LtSmlEzhCaron
ENCODING 495
SWIDTH 960 0
DWIDTH 8 0
BBX 8 16 0 -4
BITMAP
00
00
24
18
00
7e
02
04
08
1c
02
02
02
42
3c
00
ENDCHAR
STARTCHAR LtSmlJCaron
ENCODING 496
SWIDTH 960 0
DWIDTH 8 0
BBX 8 16 0 -4
BITMAP
00
00
12
0c
00
1c
04
04
04
04
04
04
44
44
38
00
ENDCHAR
STARTCHAR LtCapDZ
ENCODING 497
SWIDTH 960 0
DWIDTH 8 0
BBX 8 16 0 -4
BITMAP
00
00
67
51
49
4a
4a
4a
4a
4c
54
67
00
00
00
00
ENDCHAR
STARTCHAR LtMixDZ
ENCODING 498
SWIDTH 960 0
DWIDTH 8 0
BBX 8 16 0 -4
BITMAP
00
00
60
50
48
4f
49
49
4a
4a
54
67
00
00
00
00
ENDCHAR
STARTCHAR LtSmlDZ
ENCODING 499
SWIDTH 960 0
DWIDTH 8 0
BBX 8 16 0 -4
BITMAP
00
00
08
08
08
3f
49
49
4a
4a
5c
2f
00
00
00
00
ENDCHAR
STARTCHAR LtCapGAcute
ENCODING 500
SWIDTH 960 0
DWIDTH 8 0
BBX 8 16 0 -4
BITMAP
04
18
00
1c
22
40
40
46
42
42
22
1e
00
00
00
00
ENDCHAR
STARTCHAR LtSmlGAcute
ENCODING 501
SWIDTH 960 0
DWIDTH 8 0
BBX 8 16 0 -4
BITMAP
00
08
08
10
00
3a
44
44
44
38
40
3c
42
42
3c
00
ENDCHAR
STARTCHAR LtCapHwair
ENCODING 502
SWIDTH 960 0
DWIDTH 8 0
BBX 8 16 0 -4
BITMAP
00
00
48
48
48
49
79
49
49
49
49
46
00
00
00
00
ENDCHAR
STARTCHAR LtCapWynn
ENCODING 503
SWIDTH 960 0
DWIDTH 8 0
BBX 8 16 0 -4
BITMAP
00
00
5c
62
42
44
48
50
60
40
40
40
00
00
00
00
ENDCHAR
STARTCHAR LtCapNGrave
ENCODING 504
SWIDTH 960 0
DWIDTH 8 0
BBX 8 16 0 -4
BITMAP
20
18
00
42
62
52
52
4a
4a
46
42
42
00
00
00
00
ENDCHAR
STARTCHAR LtSmlNGrave
ENCODING 505
SWIDTH 960 0
DWIDTH 8 0
BBX 8 16 0 -4
BITMAP
00
10
10
08
00
5c
62
42
42
42
42
42
00
00
00
00
ENDCHAR
STARTCHAR LtCapARingAcute
ENCODING 506
SWIDTH 960 0
DWIDTH 8 0
BBX 8 16 0 -4
BITMAP
04
08
18
24
18
24
42
42
7e
42
42
42
00
00
00
00
ENDCHAR
STARTCHAR LtSmlARingAcute
ENCODING 507
SWIDTH 960 0
DWIDTH 8 0
BBX 8 16 0 -4
BITMAP
0c
30
18
24
18
3c
02
02
3e
42
46
3a
00
00
00
00
ENDCHAR
STARTCHAR LtCapAEAcute
ENCODING 508
SWIDTH 960 0
DWIDTH 8 0
BBX 8 16 0 -4
BITMAP
04
18
00
1f
18
28
28
4e
78
48
88
8f
00
00
00
00
ENDCHAR
STARTCHAR LtSmlAEAcute
ENCODING 509
SWIDTH 960 0
DWIDTH 8 0
BBX 8 16 0 -4
BITMAP
00
04
04
08
00
76
09
09
3f
48
48
37
00
00
00
00
ENDCHAR
STARTCHAR LtCapOStrokeAcute
ENCODING 510
SWIDTH 960 0
DWIDTH 8 0
BBX 8 16 0 -4
BITMAP
04
18
02
3a
24
46
4a
4a
52
62
24
5c
40
00
00
00
ENDCHAR
STARTCHAR LtSmlOStrokeAcute
ENCODING 511
SWIDTH 960 0
DWIDTH 8 0
BBX 8 16 0 -4
BITMAP
00
04
04
08
02
3c
46
4a
52
52
62
3c
40
00
00
00
ENDCHAR
STARTCHAR LtCapAGrave2
ENCODING 512
SWIDTH 960 0
DWIDTH 8 0
BBX 8 16 0 -4
BITMAP
48
24
00
18
18
24
24
42
7e
42
42
42
00
00
00
00
ENDCHAR
STARTCHAR LtSmlAGrave2
ENCODING 513
SWIDTH 960 0
DWIDTH 8 0
BBX 8 16 0 -4
BITMAP
00
48
48
24
00
3c
02
02
3e
42
46
3a
00
00
00
00
ENDCHAR
STARTCHAR LtCapAInvbreve
ENCODING 514
SWIDTH 960 0
DWIDTH 8 0
BBX 8 16 0 -4
BITMAP
18
24
00
18
18
24
24
42
7e
42
42
42
00
00
00
00
ENDCHAR
STARTCHAR LtSmlAInvbreve
ENCODING 515
SWIDTH 960 0
DWIDTH 8 0
BBX 8 16 0 -4
BITMAP
00
00
18
24
00
3c
02
02
3e
42
46
3a
00
00
00
00
ENDCHAR
STARTCHAR LtCapEGrave2
ENCODING 516
SWIDTH 960 0
DWIDTH 8 0
BBX 8 16 0 -4
BITMAP
48
24
00
7e
40
40
40
78
40
40
40
7e
00
00
00
00
ENDCHAR
STARTCHAR LtSmlEGrave2
ENCODING 517
SWIDTH 960 0
DWIDTH 8 0
BBX 8 16 0 -4
BITMAP
00
48
48
24
00
3c
42
42
7e
40
40
3c
00
00
00
00
ENDCHAR
STARTCHAR LtCapEInvbreve
ENCODING 518
SWIDTH 960 0
DWIDTH 8 0
BBX 8 16 0 -4
BITMAP
18
24
00
7e
40
40
40
78
40
40
40
7e
00
00
00
00
ENDCHAR
STARTCHAR LtSmlEInvbreve
ENCODING 519
SWIDTH 960 0
DWIDTH 8 0
BBX 8 16 0 -4
BITMAP
00
00
18
24
00
3c
42
42
7e
40
40
3c
00
00
00
00
ENDCHAR
STARTCHAR LtCapIGrave2
ENCODING 520
SWIDTH 960 0
DWIDTH 8 0
BBX 8 16 0 -4
BITMAP
24
12
00
3e
08
08
08
08
08
08
08
3e
00
00
00
00
ENDCHAR
STARTCHAR LtSmlIGrave2
ENCODING 521
SWIDTH 960 0
DWIDTH 8 0
BBX 8 16 0 -4
BITMAP
00
48
48
24
00
18
08
08
08
08
08
3e
00
00
00
00
ENDCHAR
STARTCHAR LtCapIInvbreve
ENCODING 522
SWIDTH 960 0
DWIDTH 8 0
BBX 8 16 0 -4
BITMAP
1c
22
00
3e
08
08
08
08
08
08
08
3e
00
00
00
00
ENDCHAR
STARTCHAR LtSmlIInvbreve
ENCODING 523
SWIDTH 960 0
DWIDTH 8 0
BBX 8 16 0 -4
BITMAP
00
00
18
24
00
18
08
08
08
08
08
3e
00
00
00
00
ENDCHAR
STARTCHAR LtCapOGrave2
ENCODING 524
SWIDTH 960 0
DWIDTH 8 0
BBX 8 16 0 -4
BITMAP
48
24
00
3c
42
42
42
42
42
42
42
3c
00
00
00
00
ENDCHAR
STARTCHAR LtSmlOGrave2
ENCODING 525
SWIDTH 960 0
DWIDTH 8 0
BBX 8 16 0 -4
BITMAP
00
48
48
24
00
3c
42
42
42
42
42
3c
00
00
00
00
ENDCHAR
STARTCHAR LtCapOInvbreve
ENCODING 526
SWIDTH 960 0
DWIDTH 8 0
BBX 8 16 0 -4
BITMAP
18
24
00
3c
42
42
42
42
42
42
42
3c
00
00
00
00
ENDCHAR
STARTCHAR LtSmlOInvbreve
ENCODING 527
SWIDTH 960 0
DWIDTH 8 0
BBX 8 16 0 -4
BITMAP
00
00
18
24
00
3c
42
42
42
42
42
3c
00
00
00
00
ENDCHAR
STARTCHAR LtCapRGrave2
ENCODING 528
SWIDTH 960 0
DWIDTH 8 0
BBX 8 16 0 -4
BITMAP
48
24
00
7c
42
42
42
7c
48
44
42
42
00
00
00
00
ENDCHAR
STARTCHAR LtSmlRGrave2
ENCODING 529
SWIDTH 960 0
DWIDTH 8 0
BBX 8 16 0 -4
BITMAP
00
48
48
24
00
6e
32
20
20
20
20
20
00
00
00
00
ENDCHAR
STARTCHAR LtCapRInvbreve
ENCODING 530
SWIDTH 960 0
DWIDTH 8 0
BBX 8 16 0 -4
BITMAP
18
24
00
7c
42
42
42
7c
48
44
42
42
00
00
00
00
ENDCHAR
STARTCHAR LtSmlRInvbreve
ENCODING 531
SWIDTH 960 0
DWIDTH 8 0
BBX 8 16 0 -4
BITMAP
00
00
18
24
00
6e
32
20
20
20
20
20
00
00
00
00
ENDCHAR
STARTCHAR LtCapUGrave2
ENCODING 532
SWIDTH 960 0
DWIDTH 8 0
BBX 8 16 0 -4
BITMAP
48
24
00
42
42
42
42
42
42
42
42
3c
00
00
00
00
ENDCHAR
STARTCHAR LtSmlUGrave2
ENCODING 533
SWIDTH 960 0
DWIDTH 8 0
BBX 8 16 0 -4
BITMAP
00
48
48
24
00
42
42
42
42
42
46
3a
00
00
00
00
ENDCHAR
STARTCHAR LtCapUInvbreve
ENCODING 534
SWIDTH 960 0
DWIDTH 8 0
BBX 8 16 0 -4
BITMAP
18
24
00
42
42
42
42
42
42
42
42
3c
00
00
00
00
ENDCHAR
STARTCHAR LtSmlUInvbreve
ENCODING 535
SWIDTH 960 0
DWIDTH 8 0
BBX 8 16 0 -4
BITMAP
00
00
18
24
00
42
42
42
42
42
46
3a
00
00
00
00
ENDCHAR
STARTCHAR LtCapSComma
ENCODING 536
SWIDTH 960 0
DWIDTH 8 0
BBX 8 16 0 -4
BITMAP
00
00
3c
42
40
40
30
0c
02
02
42
3c
10
08
10
00
ENDCHAR
STARTCHAR LtSmlSComma
ENCODING 537
SWIDTH 960 0
DWIDTH 8 0
BBX 8 16 0 -4
BITMAP
00
00
00
00
00
3c
42
40
3c
02
42
3c
10
08
10
00
ENDCHAR
STARTCHAR LtCapTComma
ENCODING 538
SWIDTH 960 0
DWIDTH 8 0
BBX 8 16 0 -4
BITMAP
00
00
7f
08
08
08
08
08
08
08
08
08
04
04
08
00
ENDCHAR
STARTCHAR LtSmlTComma
ENCODING 539
SWIDTH 960 0
DWIDTH 8 0
BBX 8 16 0 -4
BITMAP
00
00
00
10
10
7c
10
10
10
10
12
0c
08
04
08
00
ENDCHAR
STARTCHAR LtCapYogh
ENCODING 540
SWIDTH 960 0
DWIDTH 8 0
BBX 8 16 0 -4
BITMAP
00
00
7c
02
02
04
1c
22
02
04
18
60
00
00
00
00
ENDCHAR
STARTCHAR LtSmlYogh
ENCODING 541
SWIDTH 960 0
DWIDTH 8 0
BBX 8 16 0 -4
BITMAP
00
00
00
00
00
7c
02
02
04
1c
22
02
04
18
60
00
ENDCHAR
STARTCHAR LtCapHCaron
ENCODING 542
SWIDTH 960 0
DWIDTH 8 0
BBX 8 16 0 -4
BITMAP
24
18
00
42
42
42
42
7e
42
42
42
42
00
00
00
00
ENDCHAR
STARTCHAR LtSmlHCaron
ENCODING 543
SWIDTH 960 0
DWIDTH 8 0
BBX 8 16 0 -4
BITMAP
12
0c
40
40
40
5c
62
42
42
42
42
42
00
00
00
00
ENDCHAR
STARTCHAR LtCapNLongleg
ENCODING 544
SWIDTH 960 0
DWIDTH 8 0
BBX 8 16 0 -4
BITMAP
00
00
5c
62
42
42
42
42
42
42
42
42
02
02
02
00
ENDCHAR
STARTCHAR LtSmlDCurl
ENCODING 545
SWIDTH 960 0
DWIDTH 8 0
BBX 8 16 0 -4
BITMAP
00
00
08
08
08
28
58
48
48
4a
5d
26
08
00
00
00
ENDCHAR
STARTCHAR LtCapOu
ENCODING 546
SWIDTH 960 0
DWIDTH 8 0
BBX 8 16 0 -4
BITMAP
00
00
24
42
42
42
3c
42
42
42
42
3c
00
00
00
00
ENDCHAR
STARTCHAR LtSmlOu
ENCODING 547
SWIDTH 960 0
DWIDTH 8 0
BBX 8 16 0 -4
BITMAP
00
00
24
42
42
24
18
24
42
42
42
3c
00
00
00
00
ENDCHAR
STARTCHAR LtCapZLhookL
ENCODING 548
SWIDTH 960 0
DWIDTH 8 0
BBX 8 16 0 -4
BITMAP
00
00
7e
02
04
08
08
10
20
20
40
7c
02
02
04
00
ENDCHAR
STARTCHAR LtSmlZLhookL
ENCODING 549
SWIDTH 960 0
DWIDTH 8 0
BBX 8 16 0 -4
BITMAP
00
00
00
00
00
7e
04
08
10
20
40
7c
02
02
04
00
ENDCHAR
STARTCHAR LtCapADot
ENCODING 550
SWIDTH 960 0
DWIDTH 8 0
BBX 8 16 0 -4
BITMAP
08
08
00
18
18
24
24
42
7e
42
42
42
00
00
00
00
ENDCHAR
STARTCHAR LtSmlADot
ENCODING 551
SWIDTH 960 0
DWIDTH 8 0
BBX 8 16 0 -4
BITMAP
00
00
08
08
00
3c
02
02
3e
42
46
3a
00
00
00
00
ENDCHAR
STARTCHAR LtCapECedilla
ENCODING 552
SWIDTH 960 0
DWIDTH 8 0
BBX 8 16 0 -4
BITMAP
00
00
7e
40
40
40
78
40
40
40
40
7e
10
08
30
00
ENDCHAR
STARTCHAR LtSmlECedilla
ENCODING 553
SWIDTH 960 0
DWIDTH 8 0
BBX 8 16 0 -4
BITMAP
00
00
00
00
00
3c
42
42
7e
40
40
3c
10
08
30
00
ENDCHAR
STARTCHAR LtCapODrssMacron
ENCODING 554
SWIDTH 960 0
DWIDTH 8 0
BBX 8 16 0 -4
BITMAP
3c
00
66
00
3c
42
42
42
42
42
42
3c
00
00
00
00
ENDCHAR
STARTCHAR LtSmlODrssMacron
ENCODING 555
SWIDTH 960 0
DWIDTH 8 0
BBX 8 16 0 -4
BITMAP
3c
00
24
24
00
3c
42
42
42
42
42
3c
00
00
00
00
ENDCHAR
STARTCHAR LtCapOTildeMacron
ENCODING 556
SWIDTH 960 0
DWIDTH 8 0
BBX 8 16 0 -4
BITMAP
3c
00
34
48
3c
42
42
42
42
42
42
3c
00
00
00
00
ENDCHAR
STARTCHAR LtSmlOTildeMacron
ENCODING 557
SWIDTH 960 0
DWIDTH 8 0
BBX 8 16 0 -4
BITMAP
3c
00
24
58
00
3c
42
42
42
42
42
3c
00
00
00
00
ENDCHAR
STARTCHAR LtCapODot
ENCODING 558
SWIDTH 960 0
DWIDTH 8 0
BBX 8 16 0 -4
BITMAP
08
08
00
3c
42
42
42
42
42
42
42
3c
00
00
00
00
ENDCHAR
STARTCHAR LtSmlODot
ENCODING 559
SWIDTH 960 0
DWIDTH 8 0
BBX 8 16 0 -4
BITMAP
00
00
08
08
00
3c
42
42
42
42
42
3c
00
00
00
00
ENDCHAR
STARTCHAR LtCapODotMacron
ENCODING 560
SWIDTH 960 0
DWIDTH 8 0
BBX 8 16 0 -4
BITMAP
3c
00
18
00
3c
42
42
42
42
42
42
3c
00
00
00
00
ENDCHAR
STARTCHAR LtSmlODotMacron
ENCODING 561
SWIDTH 960 0
DWIDTH 8 0
BBX 8 16 0 -4
BITMAP
3e
00
08
08
00
3c
42
42
42
42
42
3c
00
00
00
00
ENDCHAR
STARTCHAR LtCapYMacron
ENCODING 562
SWIDTH 960 0
DWIDTH 8 0
BBX 8 16 0 -4
BITMAP
3e
00
41
22
22
14
14
08
08
08
08
08
00
00
00
00
ENDCHAR
STARTCHAR LtSmlYMacron
ENCODING 563
SWIDTH 960 0
DWIDTH 8 0
BBX 8 16 0 -4
BITMAP
00
00
3c
00
00
42
42
22
24
14
14
08
08
50
20
00
ENDCHAR
STARTCHAR LtSmlLCurl
ENCODING 564
SWIDTH 960 0
DWIDTH 8 0
BBX 8 16 0 -4
BITMAP
00
00
30
10
10
10
10
10
10
12
15
7e
08
00
00
00
ENDCHAR
STARTCHAR LtSmlNCurl
ENCODING 565
SWIDTH 960 0
DWIDTH 8 0
BBX 8 16 0 -4
BITMAP
00
00
00
00
00
50
68
48
48
4a
4d
46
08
00
00
00
ENDCHAR
STARTCHAR LtSmlTCurl
ENCODING 566
SWIDTH 960 0
DWIDTH 8 0
BBX 8 16 0 -4
BITMAP
00
00
00
10
10
7c
10
10
10
12
15
0e
08
00
00
00
ENDCHAR
STARTCHAR LtSmlJDotless
ENCODING 567
SWIDTH 960 0
DWIDTH 8 0
BBX 8 16 0 -4
BITMAP
00
00
00
00
00
1c
04
04
04
04
04
04
44
44
38
00
ENDCHAR
STARTCHAR LtSmlDB
ENCODING 568
SWIDTH 960 0
DWIDTH 8 0
BBX 8 16 0 -4
BITMAP
00
00
08
08
08
3e
49
49
49
49
49
3e
00
00
00
00
ENDCHAR
STARTCHAR LtSmlQP
ENCODING 569
SWIDTH 960 0
DWIDTH 8 0
BBX 8 16 0 -4
BITMAP
00
00
00
00
00
3e
49
49
49
49
49
3e
08
08
08
00
ENDCHAR
STARTCHAR LtCapAStroke
ENCODING 570
SWIDTH 960 0
DWIDTH 8 0
BBX 8 16 0 -4
BITMAP
00
02
1a
1c
24
2c
4a
52
7e
52
62
62
40
00
00
00
ENDCHAR
STARTCHAR LtCapCStroke
ENCODING 571
SWIDTH 960 0
DWIDTH 8 0
BBX 8 16 0 -4
BITMAP
00
02
1e
24
44
48
48
50
50
60
22
5c
40
00
00
00
ENDCHAR
STARTCHAR LtSmlCStroke
ENCODING 572
SWIDTH 960 0
DWIDTH 8 0
BBX 8 16 0 -4
BITMAP
00
00
00
00
02
3c
46
48
48
50
52
3c
20
00
00
00
ENDCHAR
STARTCHAR LtCapLStrokeH
ENCODING 573
SWIDTH 960 0
DWIDTH 8 0
BBX 8 16 0 -4
BITMAP
00
00
20
20
20
20
78
20
20
20
20
3f
00
00
00
00
ENDCHAR
STARTCHAR LtCapTStrokeD
ENCODING 574
SWIDTH 960 0
DWIDTH 8 0
BBX 8 16 0 -4
BITMAP
00
01
7f
0a
0a
0c
08
08
18
18
28
48
40
00
00
00
ENDCHAR
STARTCHAR LtSmlSSwash
ENCODING 575
SWIDTH 960 0
DWIDTH 8 0
BBX 8 16 0 -4
BITMAP
00
00
00
00
00
3c
42
40
3c
02
42
3c
10
08
06
00
ENDCHAR
STARTCHAR LtSmlZSwash
ENCODING 576
SWIDTH 960 0
DWIDTH 8 0
BBX 8 16 0 -4
BITMAP
00
00
00
00
00
7e
04
08
10
20
40
60
10
08
06
00
ENDCHAR
STARTCHAR LtCapGlot1
ENCODING 577
SWIDTH 960 0
DWIDTH 8 0
BBX 8 16 0 -4
BITMAP
00
00
3c
42
42
02
02
0c
08
08
08
08
00
00
00
00
ENDCHAR
STARTCHAR LtSmlGlot1
ENCODING 578
SWIDTH 960 0
DWIDTH 8 0
BBX 8 16 0 -4
BITMAP
00
00
00
00
00
3c
42
42
02
0c
08
08
00
00
00
00
ENDCHAR
STARTCHAR LtCapBStroke
ENCODING 579
SWIDTH 960 0
DWIDTH 8 0
BBX 8 16 0 -4
BITMAP
00
00
7c
42
42
42
7c
42
f2
42
42
7c
00
00
00
00
ENDCHAR
STARTCHAR LtCapUStroke
ENCODING 580
SWIDTH 960 0
DWIDTH 8 0
BBX 8 16 0 -4
BITMAP
00
00
22
22
22
22
7f
22
22
22
22
1c
00
00
00
00
ENDCHAR
STARTCHAR LtCapVTrnd
ENCODING 581
SWIDTH 960 0
DWIDTH 8 0
BBX 8 16 0 -4
BITMAP
00
00
08
08
14
14
22
22
22
41
41
41
00
00
00
00
ENDCHAR
STARTCHAR LtCapEStroke
ENCODING 582
SWIDTH 960 0
DWIDTH 8 0
BBX 8 16 0 -4
BITMAP
00
02
7e
44
44
48
78
50
50
60
60
7e
40
00
00
00
ENDCHAR
STARTCHAR LtSmlEStroke
ENCODING 583
SWIDTH 960 0
DWIDTH 8 0
BBX 8 16 0 -4
BITMAP
00
00
00
00
02
3c
46
4a
7e
50
50
3c
20
00
00
00
ENDCHAR
STARTCHAR LtCapJStroke
ENCODING 584
SWIDTH 960 0
DWIDTH 8 0
BBX 8 16 0 -4
BITMAP
00
00
0e
04
04
04
1f
04
04
44
44
38
00
00
00
00
ENDCHAR
STARTCHAR LtSmlJStroke
ENCODING 585
SWIDTH 960 0
DWIDTH 8 0
BBX 8 16 0 -4
BITMAP
00
00
04
04
00
1c
04
04
3f
04
04
04
44
44
38
00
ENDCHAR
STARTCHAR LtCapQHooktail
ENCODING 586
SWIDTH 960 0
DWIDTH 8 0
BBX 8 16 0 -4
BITMAP
00
00
3c
44
44
44
44
44
44
44
4c
34
04
04
03
00
ENDCHAR
STARTCHAR LtSmlQHooktail
ENCODING 587
SWIDTH 960 0
DWIDTH 8 0
BBX 8 16 0 -4
BITMAP
00
00
00
00
00
34
4c
44
44
44
4c
34
04
04
03
00
ENDCHAR
STARTCHAR LtCapRStroke
ENCODING 588
SWIDTH 960 0
DWIDTH 8 0
BBX 8 16 0 -4
BITMAP
00
00
3e
21
21
22
7f
24
22
22
21
21
00
00
00
00
ENDCHAR
STARTCHAR LtSmlRStroke
ENCODING 589
SWIDTH 960 0
DWIDTH 8 0
BBX 8 16 0 -4
BITMAP
00
00
00
00
00
6e
32
20
78
20
20
20
00
00
00
00
ENDCHAR
STARTCHAR LtCapYStroke
ENCODING 590
SWIDTH 960 0
DWIDTH 8 0
BBX 8 16 0 -4
BITMAP
00
00
41
22
7f
14
14
08
08
08
08
08
00
00
00
00
ENDCHAR
STARTCHAR LtSmlYStroke
ENCODING 591
SWIDTH 960 0
DWIDTH 8 0
BBX 8 16 0 -4
BITMAP
00
00
00
00
00
42
42
22
24
7e
14
08
08
50
20
00
ENDCHAR
STARTCHAR LtSmlATrnd
ENCODING 592
SWIDTH 960 0
DWIDTH 8 0
BBX 8 16 0 -4
BITMAP
00
00
00
00
00
dc
62
44
78
40
44
3c
00
00
00
00
ENDCHAR
STARTCHAR LtSmlAScr
ENCODING 593
SWIDTH 960 0
DWIDTH 8 0
BBX 8 16 0 -4
BITMAP
00
00
00
00
00
3a
46
42
42
42
46
3b
00
00
00
00
ENDCHAR
STARTCHAR LtSmlAScrTrnd
ENCODING 594
SWIDTH 960 0
DWIDTH 8 0
BBX 8 16 0 -4
BITMAP
00
00
00
00
00
dc
62
42
42
42
62
5c
00
00
00
00
ENDCHAR
STARTCHAR LtSmlBHook
ENCODING 595
SWIDTH 960 0
DWIDTH 8 0
BBX 8 16 0 -4
BITMAP
00
00
38
40
40
5c
62
42
42
42
62
5c
00
00
00
00
ENDCHAR
STARTCHAR LtSmlCTrnd
ENCODING 596
SWIDTH 960 0
DWIDTH 8 0
BBX 8 16 0 -4
BITMAP
00
00
00
00
00
3c
42
02
02
02
42
3c
00
00
00
00
ENDCHAR
STARTCHAR LtSmlCCurl
ENCODING 597
SWIDTH 960 0
DWIDTH 8 0
BBX 8 16 0 -4
BITMAP
00
00
00
00
00
3c
42
40
40
44
4a
3c
10
00
00
00
ENDCHAR
STARTCHAR LtSmlDLhook
ENCODING 598
SWIDTH 960 0
DWIDTH 8 0
BBX 8 16 0 -4
BITMAP
00
00
04
04
04
34
4c
44
44
44
4c
34
04
04
03
00
ENDCHAR
STARTCHAR LtSmlDHook
ENCODING 599
SWIDTH 960 0
DWIDTH 8 0
BBX 8 16 0 -4
BITMAP
00
00
03
04
04
34
4c
44
44
44
4c
34
00
00
00
00
ENDCHAR
STARTCHAR LtSmlERev
ENCODING 600
SWIDTH 960 0
DWIDTH 8 0
BBX 8 16 0 -4
BITMAP
00
00
00
00
00
3c
42
42
7e
02
02
3c
00
00
00
00
ENDCHAR
STARTCHAR LtSmlSchwa
ENCODING 601
SWIDTH 960 0
DWIDTH 8 0
BBX 8 16 0 -4
BITMAP
00
00
00
00
00
38
04
02
7e
42
24
18
00
00
00
00
ENDCHAR
STARTCHAR LtSmlSchwaHook
ENCODING 602
SWIDTH 960 0
DWIDTH 8 0
BBX 8 16 0 -4
BITMAP
00
00
00
00
00
38
06
06
7d
44
44
38
00
00
00
00
ENDCHAR
STARTCHAR LtSmlEps
ENCODING 603
SWIDTH 960 0
DWIDTH 8 0
BBX 8 16 0 -4
BITMAP
00
00
00
00
00
3c
42
40
30
40
42
3c
00
00
00
00
ENDCHAR
STARTCHAR LtSmlEpsRev
ENCODING 604
SWIDTH 960 0
DWIDTH 8 0
BBX 8 16 0 -4
BITMAP
00
00
00
00
00
3c
42
02
0c
02
42
3c
00
00
00
00
ENDCHAR
STARTCHAR LtSmlEpsRevHook
ENCODING 605
SWIDTH 960 0
DWIDTH 8 0
BBX 8 16 0 -4
BITMAP
00
00
00
00
00
38
46
06
19
04
44
38
00
00
00
00
ENDCHAR
STARTCHAR LtSmlEpsRevClsd
ENCODING 606
SWIDTH 960 0
DWIDTH 8 0
BBX 8 16 0 -4
BITMAP
00
00
00
00
00
1c
22
42
4c
42
22
1c
00
00
00
00
ENDCHAR
STARTCHAR LtSmlFTrnd
ENCODING 607
SWIDTH 960 0
DWIDTH 8 0
BBX 8 16 0 -4
BITMAP
00
00
00
00
00
08
08
08
08
08
3e
08
08
48
70
00
ENDCHAR
STARTCHAR LtSmlGHook
ENCODING 608
SWIDTH 960 0
DWIDTH 8 0
BBX 8 16 0 -4
BITMAP
00
00
03
04
04
34
4c
44
44
44
4c
34
04
44
38
00
ENDCHAR
STARTCHAR LtSmlGScr
ENCODING 609
SWIDTH 960 0
DWIDTH 8 0
BBX 8 16 0 -4
BITMAP
00
00
00
00
00
3a
46
42
42
42
46
3a
02
42
3c
00
ENDCHAR
STARTCHAR LtSmlGSmc
ENCODING 610
SWIDTH 960 0
DWIDTH 8 0
BBX 8 16 0 -4
BITMAP
00
00
00
00
00
1e
22
40
4e
42
22
1e
00
00
00
00
ENDCHAR
STARTCHAR LtSmlGam
ENCODING 611
SWIDTH 960 0
DWIDTH 8 0
BBX 8 16 0 -4
BITMAP
00
00
00
00
00
41
22
22
14
08
08
14
14
14
08
00
ENDCHAR
STARTCHAR LtSmlGamSml
ENCODING 612
SWIDTH 960 0
DWIDTH 8 0
BBX 8 16 0 -4
BITMAP
00
00
00
00
00
42
24
18
18
24
24
18
00
00
00
00
ENDCHAR
STARTCHAR LtSmlHTrnd
ENCODING 613
SWIDTH 960 0
DWIDTH 8 0
BBX 8 16 0 -4
BITMAP
00
00
00
00
00
42
42
42
42
42
46
3a
02
02
02
00
ENDCHAR
STARTCHAR LtSmlHHook
ENCODING 614
SWIDTH 960 0
DWIDTH 8 0
BBX 8 16 0 -4
BITMAP
00
00
38
40
40
5c
62
42
42
42
42
42
00
00
00
00
ENDCHAR
STARTCHAR LtSmlHHookLhook
ENCODING 615
SWIDTH 960 0
DWIDTH 8 0
BBX 8 16 0 -4
BITMAP
00
00
38
40
40
5c
62
42
42
42
42
42
02
12
0c
00
ENDCHAR
STARTCHAR LtSmlIStroke
ENCODING 616
SWIDTH 960 0
DWIDTH 8 0
BBX 8 16 0 -4
BITMAP
00
00
08
08
00
18
08
08
3e
08
08
3e
00
00
00
00
ENDCHAR
STARTCHAR LtSmlIot
ENCODING 617
SWIDTH 960 0
DWIDTH 8 0
BBX 8 16 0 -4
BITMAP
00
00
00
00
00
10
10
10
10
10
12
0c
00
00
00
00
ENDCHAR
STARTCHAR LtSmlISmc
ENCODING 618
SWIDTH 960 0
DWIDTH 8 0
BBX 8 16 0 -4
BITMAP
00
00
00
00
00
3e
08
08
08
08
08
3e
00
00
00
00
ENDCHAR
STARTCHAR LtSmlLMtilde
ENCODING 619
SWIDTH 960 0
DWIDTH 8 0
BBX 8 16 0 -4
BITMAP
00
00
18
08
08
08
39
4e
08
08
08
3e
00
00
00
00
ENDCHAR
STARTCHAR LtSmlLBelt
ENCODING 620
SWIDTH 960 0
DWIDTH 8 0
BBX 8 16 0 -4
BITMAP
00
00
18
08
08
18
2a
1c
08
08
08
3e
00
00
00
00
ENDCHAR
STARTCHAR LtSmlLLhook
ENCODING 621
SWIDTH 960 0
DWIDTH 8 0
BBX 8 16 0 -4
BITMAP
00
00
18
08
08
08
08
08
08
08
08
08
08
08
06
00
ENDCHAR
STARTCHAR LtSmlLEzh
ENCODING 622
SWIDTH 960 0
DWIDTH 8 0
BBX 8 16 0 -4
BITMAP
00
00
60
20
20
3e
22
22
24
2c
22
72
02
22
1c
00
ENDCHAR
STARTCHAR LtSmlMTrnd
ENCODING 623
SWIDTH 960 0
DWIDTH 8 0
BBX 8 16 0 -4
BITMAP
00
00
00
00
00
49
49
49
49
49
49
37
00
00
00
00
ENDCHAR
STARTCHAR LtSmlMTrndLongleg
ENCODING 624
SWIDTH 960 0
DWIDTH 8 0
BBX 8 16 0 -4
BITMAP
00
00
00
00
00
49
49
49
49
49
49
37
01
01
01
00
ENDCHAR
STARTCHAR LtSmlMLhook
ENCODING 625
SWIDTH 960 0
DWIDTH 8 0
BBX 8 16 0 -4
BITMAP
00
00
00
00
00
76
49
49
49
49
49
49
01
01
0e
00
ENDCHAR
STARTCHAR LtSmlNLhookL
ENCODING 626
SWIDTH 960 0
DWIDTH 8 0
BBX 8 16 0 -4
BITMAP
00
00
00
00
00
5c
62
42
42
42
42
42
40
40
80
00
ENDCHAR
STARTCHAR LtSmlNLhook
ENCODING 627
SWIDTH 960 0
DWIDTH 8 0
BBX 8 16 0 -4
BITMAP
00
00
00
00
00
58
64
44
44
44
44
44
04
04
03
00
ENDCHAR
STARTCHAR LtSmlNSmc
ENCODING 628
SWIDTH 960 0
DWIDTH 8 0
BBX 8 16 0 -4
BITMAP
00
00
00
00
00
42
62
52
4a
4a
46
42
00
00
00
00
ENDCHAR
STARTCHAR LtSmlOStrokeH
ENCODING 629
SWIDTH 960 0
DWIDTH 8 0
BBX 8 16 0 -4
BITMAP
00
00
00
00
00
3c
42
42
7e
42
42
3c
00
00
00
00
ENDCHAR
STARTCHAR LtSmlOESmc
ENCODING 630
SWIDTH 960 0
DWIDTH 8 0
BBX 8 16 0 -4
BITMAP
00
00
00
00
00
3f
48
48
4e
48
48
3f
00
00
00
00
ENDCHAR
STARTCHAR LtSmlOmeClsd
ENCODING 631
SWIDTH 960 0
DWIDTH 8 0
BBX 8 16 0 -4
BITMAP
00
00
00
00
1c
22
41
49
49
49
49
36
00
00
00
00
ENDCHAR
STARTCHAR LtSmlPhi
ENCODING 632
SWIDTH 960 0
DWIDTH 8 0
BBX 8 16 0 -4
BITMAP
00
00
08
08
08
3e
49
49
49
49
49
3e
08
08
08
00
ENDCHAR
STARTCHAR LtSmlRTrnd
ENCODING 633
SWIDTH 960 0
DWIDTH 8 0
BBX 8 16 0 -4
BITMAP
00
00
00
00
00
04
04
04
04
04
4c
76
00
00
00
00
ENDCHAR
STARTCHAR LtSmlRTrndLongleg
ENCODING 634
SWIDTH 960 0
DWIDTH 8 0
BBX 8 16 0 -4
BITMAP
00
00
04
04
04
04
04
04
04
04
4c
76
00
00
00
00
ENDCHAR
STARTCHAR LtSmlRTrndLhook
ENCODING 635
SWIDTH 960 0
DWIDTH 8 0
BBX 8 16 0 -4
BITMAP
00
00
00
00
00
04
04
04
04
04
4c
74
04
04
03
00
ENDCHAR
STARTCHAR LtSmlRLongleg
ENCODING 636
SWIDTH 960 0
DWIDTH 8 0
BBX 8 16 0 -4
BITMAP
00
00
00
00
00
6e
32
20
20
20
20
20
20
20
20
00
ENDCHAR
STARTCHAR LtSmlRLhook
ENCODING 637
SWIDTH 960 0
DWIDTH 8 0
BBX 8 16 0 -4
BITMAP
00
00
00
00
00
6e
32
20
20
20
20
20
20
20
18
00
ENDCHAR
STARTCHAR LtSmlRFish
ENCODING 638
SWIDTH 960 0
DWIDTH 8 0
BBX 8 16 0 -4
BITMAP
00
00
00
00
00
1c
22
22
20
20
20
20
00
00
00
00
ENDCHAR
STARTCHAR LtSmlRFishRev
ENCODING 639
SWIDTH 960 0
DWIDTH 8 0
BBX 8 16 0 -4
BITMAP
00
00
00
00
00
1c
22
22
02
02
02
02
00
00
00
00
ENDCHAR
STARTCHAR LtSmlRSmc
ENCODING 640
SWIDTH 960 0
DWIDTH 8 0
BBX 8 16 0 -4
BITMAP
00
00
00
00
00
7c
42
42
7c
48
44
42
00
00
00
00
ENDCHAR
STARTCHAR LtSmlRSmcInv
ENCODING 641
SWIDTH 960 0
DWIDTH 8 0
BBX 8 16 0 -4
BITMAP
00
00
00
00
00
42
44
48
7c
42
42
7c
00
00
00
00
ENDCHAR
STARTCHAR LtSmlSLhook
ENCODING 642
SWIDTH 960 0
DWIDTH 8 0
BBX 8 16 0 -4
BITMAP
00
00
00
00
00
3c
42
40
3c
02
42
7c
40
40
30
00
ENDCHAR
STARTCHAR LtSmlEsh
ENCODING 643
SWIDTH 960 0
DWIDTH 8 0
BBX 8 16 0 -4
BITMAP
00
00
07
09
08
08
08
08
08
08
08
08
08
48
70
00
ENDCHAR
STARTCHAR LtSmlFTrndHook
ENCODING 644
SWIDTH 960 0
DWIDTH 8 0
BBX 8 16 0 -4
BITMAP
00
00
07
09
08
08
08
08
08
08
3e
08
08
48
70
00
ENDCHAR
STARTCHAR LtSmlEshSmlRev
ENCODING 645
SWIDTH 960 0
DWIDTH 8 0
BBX 8 16 0 -4
BITMAP
00
00
00
00
00
70
48
08
08
08
09
07
00
00
00
00
ENDCHAR
STARTCHAR LtSmlEshCurl
ENCODING 646
SWIDTH 960 0
DWIDTH 8 0
BBX 8 16 0 -4
BITMAP
00
00
07
09
08
08
08
08
08
08
08
08
3c
4a
72
00
ENDCHAR
STARTCHAR LtSmlTTrnd
ENCODING 647
SWIDTH 960 0
DWIDTH 8 0
BBX 8 16 0 -4
BITMAP
00
00
00
00
00
30
48
08
08
08
08
3e
08
08
00
00
ENDCHAR
STARTCHAR LtSmlTLhook
ENCODING 648
SWIDTH 960 0
DWIDTH 8 0
BBX 8 16 0 -4
BITMAP
00
00
00
10
10
7c
10
10
10
10
10
10
10
12
0c
00
ENDCHAR
STARTCHAR LtSmlUStroke
ENCODING 649
SWIDTH 960 0
DWIDTH 8 0
BBX 8 16 0 -4
BITMAP
00
00
00
00
00
42
42
7f
42
42
46
3a
00
00
00
00
ENDCHAR
STARTCHAR LtSmlUps
ENCODING 650
SWIDTH 960 0
DWIDTH 8 0
BBX 8 16 0 -4
BITMAP
00
00
00
00
00
63
22
41
41
41
22
1c
00
00
00
00
ENDCHAR
STARTCHAR LtSmlVHook
ENCODING 651
SWIDTH 960 0
DWIDTH 8 0
BBX 8 16 0 -4
BITMAP
00
00
00
00
00
44
44
42
42
42
44
38
00
00
00
00
ENDCHAR
STARTCHAR LtSmlVTrnd
ENCODING 652
SWIDTH 960 0
DWIDTH 8 0
BBX 8 16 0 -4
BITMAP
00
00
00
00
00
18
18
24
24
42
42
42
00
00
00
00
ENDCHAR
STARTCHAR LtSmlWTrnd
ENCODING 653
SWIDTH 960 0
DWIDTH 8 0
BBX 8 16 0 -4
BITMAP
00
00
00
00
00
22
22
36
49
49
49
41
00
00
00
00
ENDCHAR
STARTCHAR LtSmlYTrnd
ENCODING 654
SWIDTH 960 0
DWIDTH 8 0
BBX 8 16 0 -4
BITMAP
00
00
04
0a
10
10
28
28
24
44
42
42
00
00
00
00
ENDCHAR
STARTCHAR LtSmlYSmc
ENCODING 655
SWIDTH 960 0
DWIDTH 8 0
BBX 8 16 0 -4
BITMAP
00
00
00
00
00
41
22
14
08
08
08
08
00
00
00
00
ENDCHAR
STARTCHAR LtSmlZLhook
ENCODING 656
SWIDTH 960 0
DWIDTH 8 0
BBX 8 16 0 -4
BITMAP
00
00
00
00
00
7e
04
08
10
20
40
7c
04
04
03
00
ENDCHAR
STARTCHAR LtSmlZCurl
ENCODING 657
SWIDTH 960 0
DWIDTH 8 0
BBX 8 16 0 -4
BITMAP
00
00
00
00
00
7e
04
08
10
24
4a
7c
10
00
00
00
ENDCHAR
STARTCHAR LtSmlEzh
ENCODING 658
SWIDTH 960 0
DWIDTH 8 0
BBX 8 16 0 -4
BITMAP
00
00
00
00
00
7e
02
04
08
1c
02
02
02
42
3c
00
ENDCHAR
STARTCHAR LtSmlEzhCurl
ENCODING 659
SWIDTH 960 0
DWIDTH 8 0
BBX 8 16 0 -4
BITMAP
00
00
00
00
00
7e
02
04
08
1c
02
02
32
4c
3a
00
ENDCHAR
STARTCHAR LtSmlGlot
ENCODING 660
SWIDTH 960 0
DWIDTH 8 0
BBX 8 16 0 -4
BITMAP
00
00
1c
22
22
02
04
08
08
08
08
08
00
00
00
00
ENDCHAR
STARTCHAR LtSmlAin
ENCODING 661
SWIDTH 960 0
DWIDTH 8 0
BBX 8 16 0 -4
BITMAP
00
00
1c
22
22
20
10
08
08
08
08
08
00
00
00
00
ENDCHAR
STARTCHAR LtSmlGlotInv
ENCODING 662
SWIDTH 960 0
DWIDTH 8 0
BBX 8 16 0 -4
BITMAP
00
00
08
08
08
08
08
04
02
22
22
1c
00
00
00
00
ENDCHAR
STARTCHAR LtSmlCStretch
ENCODING 663
SWIDTH 960 0
DWIDTH 8 0
BBX 8 16 0 -4
BITMAP
00
00
00
00
00
1c
22
20
20
20
20
20
20
22
1c
00
ENDCHAR
STARTCHAR LtSmlBullseye
ENCODING 664
SWIDTH 960 0
DWIDTH 8 0
BBX 8 16 0 -4
BITMAP
00
00
00
00
00
1c
22
41
49
41
22
1c
00
00
00
00
ENDCHAR
STARTCHAR LtSmlBSmc
ENCODING 665
SWIDTH 960 0
DWIDTH 8 0
BBX 8 16 0 -4
BITMAP
00
00
00
00
00
7c
42
42
7c
42
42
7c
00
00
00
00
ENDCHAR
STARTCHAR LtSmlEpsClsd
ENCODING 666
SWIDTH 960 0
DWIDTH 8 0
BBX 8 16 0 -4
BITMAP
00
00
00
00
00
38
44
42
32
42
44
38
00
00
00
00
ENDCHAR
STARTCHAR LtSmlGSmcHook
ENCODING 667
SWIDTH 960 0
DWIDTH 8 0
BBX 8 16 0 -4
BITMAP
00
00
03
04
04
1c
24
40
4e
42
22
1e
00
00
00
00
ENDCHAR
STARTCHAR LtSmlHSmc
ENCODING 668
SWIDTH 960 0
DWIDTH 8 0
BBX 8 16 0 -4
BITMAP
00
00
00
00
00
42
42
42
7e
42
42
42
00
00
00
00
ENDCHAR
STARTCHAR LtSmlJCurl
ENCODING 669
SWIDTH 960 0
DWIDTH 8 0
BBX 8 16 0 -4
BITMAP
00
00
04
04
00
1c
04
04
04
04
04
3e
44
44
38
00
ENDCHAR
STARTCHAR LtSmlKTrnd
ENCODING 670
SWIDTH 960 0
DWIDTH 8 0
BBX 8 16 0 -4
BITMAP
00
00
00
00
00
42
22
12
0e
12
22
42
02
02
02
00
ENDCHAR
STARTCHAR LtSmlLSmc
ENCODING 671
SWIDTH 960 0
DWIDTH 8 0
BBX 8 16 0 -4
BITMAP
00
00
00
00
00
40
40
40
40
40
40
7e
00
00
00
00
ENDCHAR
STARTCHAR LtSmlQHook
ENCODING 672
SWIDTH 960 0
DWIDTH 8 0
BBX 8 16 0 -4
BITMAP
00
00
03
04
04
34
4c
44
44
44
4c
34
04
04
04
00
ENDCHAR
STARTCHAR LtSmlGlotStroke
ENCODING 673
SWIDTH 960 0
DWIDTH 8 0
BBX 8 16 0 -4
BITMAP
00
00
1c
22
22
02
04
08
3e
08
08
08
00
00
00
00
ENDCHAR
STARTCHAR LtSmlAinStroke
ENCODING 674
SWIDTH 960 0
DWIDTH 8 0
BBX 8 16 0 -4
BITMAP
00
00
1c
22
22
20
10
08
3e
08
08
08
00
00
00
00
ENDCHAR
STARTCHAR LtSmlDZIpa
ENCODING 675
SWIDTH 960 0
DWIDTH 8 0
BBX 8 16 0 -4
BITMAP
00
00
08
08
08
3f
49
49
4a
4a
5c
2f
00
00
00
00
ENDCHAR
STARTCHAR LtSmlDEzh
ENCODING 676
SWIDTH 960 0
DWIDTH 8 0
BBX 8 16 0 -4
BITMAP
00
00
08
08
08
3f
49
49
4a
4e
59
29
01
11
0e
00
ENDCHAR
STARTCHAR LtSmlDZCurl
ENCODING 677
SWIDTH 960 0
DWIDTH 8 0
BBX 8 16 0 -4
BITMAP
00
00
08
08
08
3f
49
49
4a
4a
5d
2f
02
04
00
00
ENDCHAR
STARTCHAR LtSmlTS
ENCODING 678
SWIDTH 960 0
DWIDTH 8 0
BBX 8 16 0 -4
BITMAP
00
00
00
20
20
fb
25
24
22
21
25
1e
00
00
00
00
ENDCHAR
STARTCHAR LtSmlTEsh
ENCODING 679
SWIDTH 960 0
DWIDTH 8 0
BBX 8 16 0 -4
BITMAP
00
00
03
25
24
fc
24
24
24
24
24
1c
04
14
18
00
ENDCHAR
STARTCHAR LtSmlTCCurl
ENCODING 680
SWIDTH 960 0
DWIDTH 8 0
BBX 8 16 0 -4
BITMAP
00
00
00
20
20
fb
25
24
24
24
25
1b
02
04
00
00
ENDCHAR
STARTCHAR LtSmlFEng
ENCODING 681
SWIDTH 960 0
DWIDTH 8 0
BBX 8 16 0 -4
BITMAP
00
00
30
50
40
54
fa
52
52
52
52
52
02
12
0c
00
ENDCHAR
STARTCHAR LtSmlLS
ENCODING 682
SWIDTH 960 0
DWIDTH 8 0
BBX 8 16 0 -4
BITMAP
00
00
60
20
20
2c
32
30
2c
22
22
7c
00
00
00
00
ENDCHAR
STARTCHAR LtSmlLZ
ENCODING 683
SWIDTH 960 0
DWIDTH 8 0
BBX 8 16 0 -4
BITMAP
00
00
60
20
20
3e
22
24
24
28
28
7e
00
00
00
00
ENDCHAR
STARTCHAR LtSmlW2
ENCODING 684
SWIDTH 960 0
DWIDTH 8 0
BBX 8 16 0 -4
BITMAP
00
00
41
49
49
36
22
00
49
49
36
22
00
00
00
00
ENDCHAR
STARTCHAR LtSmlBridge2
ENCODING 685
SWIDTH 960 0
DWIDTH 8 0
BBX 8 16 0 -4
BITMAP
00
00
7e
42
42
42
00
00
7e
42
42
42
00
00
00
00
ENDCHAR
STARTCHAR LtSmlHTrndHook
ENCODING 686
SWIDTH 960 0
DWIDTH 8 0
BBX 8 16 0 -4
BITMAP
00
00
00
00
00
c2
22
22
22
22
26
1a
02
02
02
00
ENDCHAR
STARTCHAR LtSmlHTrndHookLhook
ENCODING 687
SWIDTH 960 0
DWIDTH 8 0
BBX 8 16 0 -4
BITMAP
00
00
00
00
00
c4
24
24
24
24
24
1c
04
04
03
00
ENDCHAR
STARTCHAR SupSmlH
ENCODING 688
SWIDTH 960 0
DWIDTH 8 0
BBX 8 16 0 -4
BITMAP
20
20
2c
32
22
22
22
22
00
00
00
00
00
00
00
00
ENDCHAR
STARTCHAR SupSmlHHook
ENCODING 689
SWIDTH 960 0
DWIDTH 8 0
BBX 8 16 0 -4
BITMAP
18
20
2c
32
22
22
22
22
00
00
00
00
00
00
00
00
ENDCHAR
STARTCHAR SupSmlJ
ENCODING 690
SWIDTH 960 0
DWIDTH 8 0
BBX 8 16 0 -4
BITMAP
04
00
0c
04
04
04
04
04
18
00
00
00
00
00
00
00
ENDCHAR
STARTCHAR SupSmlR
ENCODING 691
SWIDTH 960 0
DWIDTH 8 0
BBX 8 16 0 -4
BITMAP
00
00
2c
34
20
20
20
20
00
00
00
00
00
00
00
00
ENDCHAR
STARTCHAR SupSmlRTrnd
ENCODING 692
SWIDTH 960 0
DWIDTH 8 0
BBX 8 16 0 -4
BITMAP
00
00
04
04
04
04
2c
34
00
00
00
00
00
00
00
00
ENDCHAR
STARTCHAR SupSmlRTrndLhook
ENCODING 693
SWIDTH 960 0
DWIDTH 8 0
BBX 8 16 0 -4
BITMAP
00
00
04
04
04
04
2c
34
06
00
00
00
00
00
00
00
ENDCHAR
STARTCHAR SupSmlRSmcInv
ENCODING 694
SWIDTH 960 0
DWIDTH 8 0
BBX 8 16 0 -4
BITMAP
00
00
24
28
38
24
24
38
00
00
00
00
00
00
00
00
ENDCHAR
STARTCHAR SupSmlW
ENCODING 695
SWIDTH 960 0
DWIDTH 8 0
BBX 8 16 0 -4
BITMAP
00
00
41
49
49
36
22
22
00
00
00
00
00
00
00
00
ENDCHAR
STARTCHAR SupSmlY
ENCODING 696
SWIDTH 960 0
DWIDTH 8 0
BBX 8 16 0 -4
BITMAP
00
00
22
22
14
14
08
08
30
00
00
00
00
00
00
00
ENDCHAR
STARTCHAR AccPrime
ENCODING 697
SWIDTH 960 0
DWIDTH 8 0
BBX 8 16 0 -4
BITMAP
00
04
0c
08
10
00
00
00
00
00
00
00
00
00
00
00
ENDCHAR
STARTCHAR AccPrime2
ENCODING 698
SWIDTH 960 0
DWIDTH 8 0
BBX 8 16 0 -4
BITMAP
00
12
36
24
48
00
00
00
00
00
00
00
00
00
00
00
ENDCHAR
STARTCHAR AccQuoteL
ENCODING 699
SWIDTH 960 0
DWIDTH 8 0
BBX 8 16 0 -4
BITMAP
00
08
10
18
08
00
00
00
00
00
00
00
00
00
00
00
ENDCHAR
STARTCHAR AccQuoteR
ENCODING 700
SWIDTH 960 0
DWIDTH 8 0
BBX 8 16 0 -4
BITMAP
00
10
18
08
10
00
00
00
00
00
00
00
00
00
00
00
ENDCHAR
STARTCHAR AccQuoteHe
ENCODING 701
SWIDTH 960 0
DWIDTH 8 0
BBX 8 16 0 -4
BITMAP
00
08
18
10
08
00
00
00
00
00
00
00
00
00
00
00
ENDCHAR
STARTCHAR AccRingHalfR
ENCODING 702
SWIDTH 960 0
DWIDTH 8 0
BBX 8 16 0 -4
BITMAP
00
18
04
04
18
00
00
00
00
00
00
00
00
00
00
00
ENDCHAR
STARTCHAR AccRingHalfL
ENCODING 703
SWIDTH 960 0
DWIDTH 8 0
BBX 8 16 0 -4
BITMAP
00
0c
10
10
0c
00
00
00
00
00
00
00
00
00
00
00
ENDCHAR
STARTCHAR AccGlot
ENCODING 704
SWIDTH 960 0
DWIDTH 8 0
BBX 8 16 0 -4
BITMAP
00
1c
22
22
04
08
08
08
00
00
00
00
00
00
00
00
ENDCHAR
STARTCHAR AccAin
ENCODING 705
SWIDTH 960 0
DWIDTH 8 0
BBX 8 16 0 -4
BITMAP
00
1c
22
22
10
08
08
08
00
00
00
00
00
00
00
00
ENDCHAR
STARTCHAR AccArrowheadl
ENCODING 706
SWIDTH 960 0
DWIDTH 8 0
BBX 8 16 0 -4
BITMAP
04
08
30
08
04
00
00
00
00
00
00
00
00
00
00
00
ENDCHAR
STARTCHAR AccArrowheadr
ENCODING 707
SWIDTH 960 0
DWIDTH 8 0
BBX 8 16 0 -4
BITMAP
20
10
0c
10
20
00
00
00
00
00
00
00
00
00
00
00
ENDCHAR
STARTCHAR AccArrowheadu
ENCODING 708
SWIDTH 960 0
DWIDTH 8 0
BBX 8 16 0 -4
BITMAP
08
08
14
22
00
00
00
00
00
00
00
00
00
00
00
00
ENDCHAR
STARTCHAR AccArrowheadd
ENCODING 709
SWIDTH 960 0
DWIDTH 8 0
BBX 8 16 0 -4
BITMAP
22
14
08
08
00
00
00
00
00
00
00
00
00
00
00
00
ENDCHAR
STARTCHAR AccCircum
ENCODING 710
SWIDTH 960 0
DWIDTH 8 0
BBX 8 16 0 -4
BITMAP
00
08
14
22
00
00
00
00
00
00
00
00
00
00
00
00
ENDCHAR
STARTCHAR AccCaron
ENCODING 711
SWIDTH 960 0
DWIDTH 8 0
BBX 8 16 0 -4
BITMAP
00
22
14
08
00
00
00
00
00
00
00
00
00
00
00
00
ENDCHAR
STARTCHAR AccStress
ENCODING 712
SWIDTH 960 0
DWIDTH 8 0
BBX 8 16 0 -4
BITMAP
00
08
08
08
08
00
00
00
00
00
00
00
00
00
00
00
ENDCHAR
STARTCHAR AccMacron
ENCODING 713
SWIDTH 960 0
DWIDTH 8 0
BBX 8 16 0 -4
BITMAP
00
00
3e
00
00
00
00
00
00
00
00
00
00
00
00
00
ENDCHAR
STARTCHAR AccAcuteSml
ENCODING 714
SWIDTH 960 0
DWIDTH 8 0
BBX 8 16 0 -4
BITMAP
00
04
04
08
10
00
00
00
00
00
00
00
00
00
00
00
ENDCHAR
STARTCHAR AccGrave
ENCODING 715
SWIDTH 960 0
DWIDTH 8 0
BBX 8 16 0 -4
BITMAP
00
10
10
08
04
00
00
00
00
00
00
00
00
00
00
00
ENDCHAR
STARTCHAR AccLvline
ENCODING 716
SWIDTH 960 0
DWIDTH 8 0
BBX 8 16 0 -4
BITMAP
00
00
00
00
00
00
00
00
00
00
08
08
08
08
00
00
ENDCHAR
STARTCHAR AccLmacron
ENCODING 717
SWIDTH 960 0
DWIDTH 8 0
BBX 8 16 0 -4
BITMAP
00
00
00
00
00
00
00
00
00
00
00
00
00
3e
00
00
ENDCHAR
STARTCHAR AccLgrave
ENCODING 718
SWIDTH 960 0
DWIDTH 8 0
BBX 8 16 0 -4
BITMAP
00
00
00
00
00
00
00
00
00
00
00
10
10
08
04
00
ENDCHAR
STARTCHAR AccLacute
ENCODING 719
SWIDTH 960 0
DWIDTH 8 0
BBX 8 16 0 -4
BITMAP
00
00
00
00
00
00
00
00
00
00
00
08
08
10
20
00
ENDCHAR
STARTCHAR PColonTrng
ENCODING 720
SWIDTH 960 0
DWIDTH 8 0
BBX 8 16 0 -4
BITMAP
00
00
00
00
00
00
1c
08
00
00
08
1c
00
00
00
00
ENDCHAR
STARTCHAR PColonTrngHalf
ENCODING 721
SWIDTH 960 0
DWIDTH 8 0
BBX 8 16 0 -4
BITMAP
00
00
00
00
00
00
1c
08
00
00
00
00
00
00
00
00
ENDCHAR
STARTCHAR AccCntrdhalfringr
ENCODING 722
SWIDTH 960 0
DWIDTH 8 0
BBX 8 16 0 -4
BITMAP
00
00
00
00
00
18
04
04
04
18
00
00
00
00
00
00
ENDCHAR
STARTCHAR AccCntrdhalfringl
ENCODING 723
SWIDTH 960 0
DWIDTH 8 0
BBX 8 16 0 -4
BITMAP
00
00
00
00
00
0c
10
10
10
0c
00
00
00
00
00
00
ENDCHAR
STARTCHAR AccTacku
ENCODING 724
SWIDTH 960 0
DWIDTH 8 0
BBX 8 16 0 -4
BITMAP
00
00
00
00
00
08
08
08
3e
00
00
00
00
00
00
00
ENDCHAR
STARTCHAR AccTackd
ENCODING 725
SWIDTH 960 0
DWIDTH 8 0
BBX 8 16 0 -4
BITMAP
00
00
00
00
00
00
3e
08
08
08
00
00
00
00
00
00
ENDCHAR
STARTCHAR AccPlus
ENCODING 726
SWIDTH 960 0
DWIDTH 8 0
BBX 8 16 0 -4
BITMAP
00
00
00
00
00
08
08
3e
08
08
00
00
00
00
00
00
ENDCHAR
STARTCHAR AccMinus
ENCODING 727
SWIDTH 960 0
DWIDTH 8 0
BBX 8 16 0 -4
BITMAP
00
00
00
00
00
00
00
3e
00
00
00
00
00
00
00
00
ENDCHAR
STARTCHAR AccBreve
ENCODING 728
SWIDTH 960 0
DWIDTH 8 0
BBX 8 16 0 -4
BITMAP
00
24
24
18
00
00
00
00
00
00
00
00
00
00
00
00
ENDCHAR
STARTCHAR AccDot
ENCODING 729
SWIDTH 960 0
DWIDTH 8 0
BBX 8 16 0 -4
BITMAP
00
18
18
00
00
00
00
00
00
00
00
00
00
00
00
00
ENDCHAR
STARTCHAR AccRing
ENCODING 730
SWIDTH 960 0
DWIDTH 8 0
BBX 8 16 0 -4
BITMAP
00
18
24
24
18
00
00
00
00
00
00
00
00
00
00
00
ENDCHAR
STARTCHAR AccOgonek
ENCODING 731
SWIDTH 960 0
DWIDTH 8 0
BBX 8 16 0 -4
BITMAP
00
00
00
00
00
00
00
00
00
00
00
04
0c
08
06
00
ENDCHAR
STARTCHAR AccTilde
ENCODING 732
SWIDTH 960 0
DWIDTH 8 0
BBX 8 16 0 -4
BITMAP
00
00
32
4c
00
00
00
00
00
00
00
00
00
00
00
00
ENDCHAR
STARTCHAR AccAcute2
ENCODING 733
SWIDTH 960 0
DWIDTH 8 0
BBX 8 16 0 -4
BITMAP
00
12
12
24
00
00
00
00
00
00
00
00
00
00
00
00
ENDCHAR
STARTCHAR AccRhothook
ENCODING 734
SWIDTH 960 0
DWIDTH 8 0
BBX 8 16 0 -4
BITMAP
00
00
00
00
00
00
20
64
98
00
00
00
00
00
00
00
ENDCHAR
STARTCHAR AccCross
ENCODING 735
SWIDTH 960 0
DWIDTH 8 0
BBX 8 16 0 -4
BITMAP
00
22
14
08
14
22
00
00
00
00
00
00
00
00
00
00
ENDCHAR
STARTCHAR SupSmlGam
ENCODING 736
SWIDTH 960 0
DWIDTH 8 0
BBX 8 16 0 -4
BITMAP
00
00
22
22
14
08
14
14
08
00
00
00
00
00
00
00
ENDCHAR
STARTCHAR SupSmlL
ENCODING 737
SWIDTH 960 0
DWIDTH 8 0
BBX 8 16 0 -4
BITMAP
18
08
08
08
08
08
08
1c
00
00
00
00
00
00
00
00
ENDCHAR
STARTCHAR SupSmlS
ENCODING 738
SWIDTH 960 0
DWIDTH 8 0
BBX 8 16 0 -4
BITMAP
00
00
18
24
10
08
24
18
00
00
00
00
00
00
00
00
ENDCHAR
STARTCHAR SupSmlX
ENCODING 739
SWIDTH 960 0
DWIDTH 8 0
BBX 8 16 0 -4
BITMAP
00
00
22
14
08
08
14
22
00
00
00
00
00
00
00
00
ENDCHAR
STARTCHAR SupSmlAin
ENCODING 740
SWIDTH 960 0
DWIDTH 8 0
BBX 8 16 0 -4
BITMAP
1c
22
20
10
08
08
08
08
00
00
00
00
00
00
00
00
ENDCHAR
STARTCHAR LtToneHhigh
ENCODING 741
SWIDTH 960 0
DWIDTH 8 0
BBX 8 16 0 -4
BITMAP
00
00
3c
04
04
04
04
04
04
04
04
04
00
00
00
00
ENDCHAR
STARTCHAR LtToneHigh
ENCODING 742
SWIDTH 960 0
DWIDTH 8 0
BBX 8 16 0 -4
BITMAP
00
00
04
04
3c
04
04
04
04
04
04
04
00
00
00
00
ENDCHAR
STARTCHAR LtToneMid
ENCODING 743
SWIDTH 960 0
DWIDTH 8 0
BBX 8 16 0 -4
BITMAP
00
00
04
04
04
04
3c
04
04
04
04
04
00
00
00
00
ENDCHAR
STARTCHAR LtToneLow
ENCODING 744
SWIDTH 960 0
DWIDTH 8 0
BBX 8 16 0 -4
BITMAP
00
00
04
04
04
04
04
04
04
3c
04
04
00
00
00
00
ENDCHAR
STARTCHAR LtToneLlow
ENCODING 745
SWIDTH 960 0
DWIDTH 8 0
BBX 8 16 0 -4
BITMAP
00
00
04
04
04
04
04
04
04
04
04
3c
00
00
00
00
ENDCHAR
STARTCHAR AccToneYin
ENCODING 746
SWIDTH 960 0
DWIDTH 8 0
BBX 8 16 0 -4
BITMAP
00
00
00
00
00
20
20
20
20
20
20
3c
00
00
00
00
ENDCHAR
STARTCHAR AccToneYang
ENCODING 747
SWIDTH 960 0
DWIDTH 8 0
BBX 8 16 0 -4
BITMAP
00
00
00
00
00
20
20
20
3c
20
20
20
00
00
00
00
ENDCHAR
STARTCHAR AccLcaron
ENCODING 748
SWIDTH 960 0
DWIDTH 8 0
BBX 8 16 0 -4
BITMAP
00
00
00
00
00
00
00
00
00
00
00
00
22
14
08
00
ENDCHAR
STARTCHAR AccMacron2
ENCODING 749
SWIDTH 960 0
DWIDTH 8 0
BBX 8 16 0 -4
BITMAP
7e
00
7e
00
00
00
00
00
00
00
00
00
00
00
00
00
ENDCHAR
STARTCHAR AccApostr2
ENCODING 750
SWIDTH 960 0
DWIDTH 8 0
BBX 8 16 0 -4
BITMAP
00
24
36
12
24
00
00
00
00
00
00
00
00
00
00
00
ENDCHAR
STARTCHAR CombGrave
ENCODING 768
SWIDTH 960 0
DWIDTH 8 0
BBX 8 16 0 -4
BITMAP
00
10
10
08
00
00
00
00
00
00
00
00
00
00
00
00
ENDCHAR
STARTCHAR CombAcute
ENCODING 769
SWIDTH 960 0
DWIDTH 8 0
BBX 8 16 0 -4
BITMAP
00
08
08
10
00
00
00
00
00
00
00
00
00
00
00
00
ENDCHAR
STARTCHAR CombCircum
ENCODING 770
SWIDTH 960 0
DWIDTH 8 0
BBX 8 16 0 -4
BITMAP
00
00
18
24
00
00
00
00
00
00
00
00
00
00
00
00
ENDCHAR
STARTCHAR CombTilde
ENCODING 771
SWIDTH 960 0
DWIDTH 8 0
BBX 8 16 0 -4
BITMAP
00
00
32
4c
00
00
00
00
00
00
00
00
00
00
00
00
ENDCHAR
STARTCHAR CombMacron
ENCODING 772
SWIDTH 960 0
DWIDTH 8 0
BBX 8 16 0 -4
BITMAP
00
00
3c
00
00
00
00
00
00
00
00
00
00
00
00
00
ENDCHAR
STARTCHAR CombOverline
ENCODING 773
SWIDTH 960 0
DWIDTH 8 0
BBX 8 16 0 -4
BITMAP
ff
00
00
00
00
00
00
00
00
00
00
00
00
00
00
00
ENDCHAR
STARTCHAR CombBreve
ENCODING 774
SWIDTH 960 0
DWIDTH 8 0
BBX 8 16 0 -4
BITMAP
00
00
24
18
00
00
00
00
00
00
00
00
00
00
00
00
ENDCHAR
STARTCHAR CombDot
ENCODING 775
SWIDTH 960 0
DWIDTH 8 0
BBX 8 16 0 -4
BITMAP
00
00
08
08
00
00
00
00
00
00
00
00
00
00
00
00
ENDCHAR
STARTCHAR CombDrss
ENCODING 776
SWIDTH 960 0
DWIDTH 8 0
BBX 8 16 0 -4
BITMAP
00
00
24
24
00
00
00
00
00
00
00
00
00
00
00
00
ENDCHAR
STARTCHAR CombVhook
ENCODING 777
SWIDTH 960 0
DWIDTH 8 0
BBX 8 16 0 -4
BITMAP
00
18
04
08
00
00
00
00
00
00
00
00
00
00
00
00
ENDCHAR
STARTCHAR CombRing
ENCODING 778
SWIDTH 960 0
DWIDTH 8 0
BBX 8 16 0 -4
BITMAP
00
18
24
18
00
00
00
00
00
00
00
00
00
00
00
00
ENDCHAR
STARTCHAR CombAcute2
ENCODING 779
SWIDTH 960 0
DWIDTH 8 0
BBX 8 16 0 -4
BITMAP
00
12
12
24
00
00
00
00
00
00
00
00
00
00
00
00
ENDCHAR
STARTCHAR CombCaron
ENCODING 780
SWIDTH 960 0
DWIDTH 8 0
BBX 8 16 0 -4
BITMAP
00
00
24
18
00
00
00
00
00
00
00
00
00
00
00
00
ENDCHAR
STARTCHAR CombStress
ENCODING 781
SWIDTH 960 0
DWIDTH 8 0
BBX 8 16 0 -4
BITMAP
00
08
08
08
00
00
00
00
00
00
00
00
00
00
00
00
ENDCHAR
STARTCHAR CombVline2
ENCODING 782
SWIDTH 960 0
DWIDTH 8 0
BBX 8 16 0 -4
BITMAP
00
24
24
24
00
00
00
00
00
00
00
00
00
00
00
00
ENDCHAR
STARTCHAR CombGrave2
ENCODING 783
SWIDTH 960 0
DWIDTH 8 0
BBX 8 16 0 -4
BITMAP
00
48
48
24
00
00
00
00
00
00
00
00
00
00
00
00
ENDCHAR
STARTCHAR CombCandra
ENCODING 784
SWIDTH 960 0
DWIDTH 8 0
BBX 8 16 0 -4
BITMAP
08
08
22
1c
00
00
00
00
00
00
00
00
00
00
00
00
ENDCHAR
STARTCHAR CombInvbreve
ENCODING 785
SWIDTH 960 0
DWIDTH 8 0
BBX 8 16 0 -4
BITMAP
00
00
18
24
00
00
00
00
00
00
00
00
00
00
00
00
ENDCHAR
STARTCHAR CombQuoteL
ENCODING 786
SWIDTH 960 0
DWIDTH 8 0
BBX 8 16 0 -4
BITMAP
00
00
08
10
08
00
00
00
00
00
00
00
00
00
00
00
ENDCHAR
STARTCHAR CombGkPsili
ENCODING 787
SWIDTH 960 0
DWIDTH 8 0
BBX 8 16 0 -4
BITMAP
00
18
08
10
00
00
00
00
00
00
00
00
00
00
00
00
ENDCHAR
STARTCHAR CombGkDasia
ENCODING 788
SWIDTH 960 0
DWIDTH 8 0
BBX 8 16 0 -4
BITMAP
00
18
10
08
00
00
00
00
00
00
00
00
00
00
00
00
ENDCHAR
STARTCHAR CombQuoteRRight
ENCODING 789
SWIDTH 960 0
DWIDTH 8 0
BBX 8 16 0 -4
BITMAP
00
03
01
01
02
00
00
00
00
00
00
00
00
00
00
00
ENDCHAR
STARTCHAR CombLgrave
ENCODING 790
SWIDTH 960 0
DWIDTH 8 0
BBX 8 16 0 -4
BITMAP
00
00
00
00
00
00
00
00
00
00
00
00
00
10
0c
00
ENDCHAR
STARTCHAR CombLacute
ENCODING 791
SWIDTH 960 0
DWIDTH 8 0
BBX 8 16 0 -4
BITMAP
00
00
00
00
00
00
00
00
00
00
00
00
00
04
18
00
ENDCHAR
STARTCHAR CombLtackl
ENCODING 792
SWIDTH 960 0
DWIDTH 8 0
BBX 8 16 0 -4
BITMAP
00
00
00
00
00
00
00
00
00
00
00
00
04
1c
04
00
ENDCHAR
STARTCHAR CombLtackr
ENCODING 793
SWIDTH 960 0
DWIDTH 8 0
BBX 8 16 0 -4
BITMAP
00
00
00
00
00
00
00
00
00
00
00
00
10
1c
10
00
ENDCHAR
STARTCHAR CombAngle
ENCODING 794
SWIDTH 960 0
DWIDTH 8 0
BBX 8 16 0 -4
BITMAP
07
01
01
00
00
00
00
00
00
00
00
00
00
00
00
00
ENDCHAR
STARTCHAR CombHorn
ENCODING 795
SWIDTH 960 0
DWIDTH 8 0
BBX 8 16 0 -4
BITMAP
00
00
00
03
01
02
00
00
00
00
00
00
00
00
00
00
ENDCHAR
STARTCHAR CombLhalfringl
ENCODING 796
SWIDTH 960 0
DWIDTH 8 0
BBX 8 16 0 -4
BITMAP
00
00
00
00
00
00
00
00
00
00
00
00
08
10
08
00
ENDCHAR
STARTCHAR CombLtacku
ENCODING 797
SWIDTH 960 0
DWIDTH 8 0
BBX 8 16 0 -4
BITMAP
00
00
00
00
00
00
00
00
00
00
00
00
08
08
1c
00
ENDCHAR
STARTCHAR CombLtackd
ENCODING 798
SWIDTH 960 0
DWIDTH 8 0
BBX 8 16 0 -4
BITMAP
00
00
00
00
00
00
00
00
00
00
00
00
00
1c
08
08
ENDCHAR
STARTCHAR CombLplus
ENCODING 799
SWIDTH 960 0
DWIDTH 8 0
BBX 8 16 0 -4
BITMAP
00
00
00
00
00
00
00
00
00
00
00
00
08
1c
08
00
ENDCHAR
STARTCHAR CombLminus
ENCODING 800
SWIDTH 960 0
DWIDTH 8 0
BBX 8 16 0 -4
BITMAP
00
00
00
00
00
00
00
00
00
00
00
00
00
1c
00
00
ENDCHAR
STARTCHAR CombLdot
ENCODING 803
SWIDTH 960 0
DWIDTH 8 0
BBX 8 16 0 -4
BITMAP
00
00
00
00
00
00
00
00
00
00
00
00
00
08
08
00
ENDCHAR
STARTCHAR CombLdrss
ENCODING 804
SWIDTH 960 0
DWIDTH 8 0
BBX 8 16 0 -4
BITMAP
00
00
00
00
00
00
00
00
00
00
00
00
00
24
24
00
ENDCHAR
STARTCHAR CombLring
ENCODING 805
SWIDTH 960 0
DWIDTH 8 0
BBX 8 16 0 -4
BITMAP
00
00
00
00
00
00
00
00
00
00
00
00
08
14
08
00
ENDCHAR
STARTCHAR CombComma
ENCODING 806
SWIDTH 960 0
DWIDTH 8 0
BBX 8 16 0 -4
BITMAP
00
00
00
00
00
00
00
00
00
00
00
00
10
08
10
00
ENDCHAR
STARTCHAR CombCedilla
ENCODING 807
SWIDTH 960 0
DWIDTH 8 0
BBX 8 16 0 -4
BITMAP
00
00
00
00
00
00
00
00
00
00
00
00
10
08
30
00
ENDCHAR
STARTCHAR CombOgonek
ENCODING 808
SWIDTH 960 0
DWIDTH 8 0
BBX 8 16 0 -4
BITMAP
00
00
00
00
00
00
00
00
00
00
00
00
04
08
06
00
ENDCHAR
STARTCHAR CombLvline
ENCODING 809
SWIDTH 960 0
DWIDTH 8 0
BBX 8 16 0 -4
BITMAP
00
00
00
00
00
00
00
00
00
00
00
00
08
08
08
00
ENDCHAR
STARTCHAR CombLbridge
ENCODING 810
SWIDTH 960 0
DWIDTH 8 0
BBX 8 16 0 -4
BITMAP
00
00
00
00
00
00
00
00
00
00
00
00
00
3c
24
00
ENDCHAR
STARTCHAR CombLinvarch2
ENCODING 811
SWIDTH 960 0
DWIDTH 8 0
BBX 8 16 0 -4
BITMAP
00
00
00
00
00
00
00
00
00
00
00
00
00
49
36
00
ENDCHAR
STARTCHAR CombLcaron
ENCODING 812
SWIDTH 960 0
DWIDTH 8 0
BBX 8 16 0 -4
BITMAP
00
00
00
00
00
00
00
00
00
00
00
00
00
24
18
00
ENDCHAR
STARTCHAR CombLcircum
ENCODING 813
SWIDTH 960 0
DWIDTH 8 0
BBX 8 16 0 -4
BITMAP
00
00
00
00
00
00
00
00
00
00
00
00
00
18
24
00
ENDCHAR
STARTCHAR CombLbreve
ENCODING 814
SWIDTH 960 0
DWIDTH 8 0
BBX 8 16 0 -4
BITMAP
00
00
00
00
00
00
00
00
00
00
00
00
00
24
18
00
ENDCHAR
STARTCHAR CombLinvbreve
ENCODING 815
SWIDTH 960 0
DWIDTH 8 0
BBX 8 16 0 -4
BITMAP
00
00
00
00
00
00
00
00
00
00
00
00
00
18
24
00
ENDCHAR
STARTCHAR CombLtilde
ENCODING 816
SWIDTH 960 0
DWIDTH 8 0
BBX 8 16 0 -4
BITMAP
00
00
00
00
00
00
00
00
00
00
00
00
00
32
4c
00
ENDCHAR
STARTCHAR CombLmacron
ENCODING 817
SWIDTH 960 0
DWIDTH 8 0
BBX 8 16 0 -4
BITMAP
00
00
00
00
00
00
00
00
00
00
00
00
00
00
3c
00
ENDCHAR
STARTCHAR CombLowline
ENCODING 818
SWIDTH 960 0
DWIDTH 8 0
BBX 8 16 0 -4
BITMAP
00
00
00
00
00
00
00
00
00
00
00
00
00
00
ff
00
ENDCHAR
STARTCHAR CombLowline2
ENCODING 819
SWIDTH 960 0
DWIDTH 8 0
BBX 8 16 0 -4
BITMAP
00
00
00
00
00
00
00
00
00
00
00
00
00
ff
00
ff
ENDCHAR
STARTCHAR CombMtilde
ENCODING 820
SWIDTH 960 0
DWIDTH 8 0
BBX 8 16 0 -4
BITMAP
00
00
00
00
00
00
71
8e
00
00
00
00
00
00
00
00
ENDCHAR
STARTCHAR CombStrokeHSh
ENCODING 821
SWIDTH 960 0
DWIDTH 8 0
BBX 8 16 0 -4
BITMAP
00
00
00
00
00
00
00
3e
00
00
00
00
00
00
00
00
ENDCHAR
STARTCHAR CombStrokeH
ENCODING 822
SWIDTH 960 0
DWIDTH 8 0
BBX 8 16 0 -4
BITMAP
00
00
00
00
00
00
00
7f
00
00
00
00
00
00
00
00
ENDCHAR
STARTCHAR CombStrokeSh
ENCODING 823
SWIDTH 960 0
DWIDTH 8 0
BBX 8 16 0 -4
BITMAP
00
00
00
00
00
01
02
04
08
10
20
40
00
00
00
00
ENDCHAR
STARTCHAR CombStroke
ENCODING 824
SWIDTH 960 0
DWIDTH 8 0
BBX 8 16 0 -4
BITMAP
00
02
02
04
04
08
08
10
10
20
20
40
40
00
00
00
ENDCHAR
STARTCHAR CombLhalfringr
ENCODING 825
SWIDTH 960 0
DWIDTH 8 0
BBX 8 16 0 -4
BITMAP
00
00
00
00
00
00
00
00
00
00
00
00
10
08
10
00
ENDCHAR
STARTCHAR CombLinvbridge
ENCODING 826
SWIDTH 960 0
DWIDTH 8 0
BBX 8 16 0 -4
BITMAP
00
00
00
00
00
00
00
00
00
00
00
00
00
24
3c
00
ENDCHAR
STARTCHAR CombLsquare
ENCODING 827
SWIDTH 960 0
DWIDTH 8 0
BBX 8 16 0 -4
BITMAP
00
00
00
00
00
00
00
00
00
00
00
00
00
1c
14
1c
ENDCHAR
STARTCHAR CombLseagull
ENCODING 828
SWIDTH 960 0
DWIDTH 8 0
BBX 8 16 0 -4
BITMAP
00
00
00
00
00
00
00
00
00
00
00
00
00
36
49
00
ENDCHAR
STARTCHAR CombCross
ENCODING 829
SWIDTH 960 0
DWIDTH 8 0
BBX 8 16 0 -4
BITMAP
00
24
18
24
00
00
00
00
00
00
00
00
00
00
00
00
ENDCHAR
STARTCHAR CombVtilde
ENCODING 830
SWIDTH 960 0
DWIDTH 8 0
BBX 8 16 0 -4
BITMAP
08
10
08
10
00
00
00
00
00
00
00
00
00
00
00
00
ENDCHAR
STARTCHAR CombOverline2
ENCODING 831
SWIDTH 960 0
DWIDTH 8 0
BBX 8 16 0 -4
BITMAP
ff
00
ff
00
00
00
00
00
00
00
00
00
00
00
00
00
ENDCHAR
STARTCHAR CombGraveTone
ENCODING 832
SWIDTH 960 0
DWIDTH 8 0
BBX 8 16 0 -4
BITMAP
80
40
00
00
00
00
00
00
00
00
00
00
00
00
00
00
ENDCHAR
STARTCHAR CombAcuteTone
ENCODING 833
SWIDTH 960 0
DWIDTH 8 0
BBX 8 16 0 -4
BITMAP
01
02
00
00
00
00
00
00
00
00
00
00
00
00
00
00
ENDCHAR
STARTCHAR CombGkPeri
ENCODING 834
SWIDTH 960 0
DWIDTH 8 0
BBX 8 16 0 -4
BITMAP
00
00
38
44
00
00
00
00
00
00
00
00
00
00
00
00
ENDCHAR
STARTCHAR CombGkKoronis
ENCODING 835
SWIDTH 960 0
DWIDTH 8 0
BBX 8 16 0 -4
BITMAP
00
18
08
10
00
00
00
00
00
00
00
00
00
00
00
00
ENDCHAR
STARTCHAR CombGkDrssTonos
ENCODING 836
SWIDTH 960 0
DWIDTH 8 0
BBX 8 16 0 -4
BITMAP
00
08
4a
52
00
00
00
00
00
00
00
00
00
00
00
00
ENDCHAR
STARTCHAR CombGkYpog
ENCODING 837
SWIDTH 960 0
DWIDTH 8 0
BBX 8 16 0 -4
BITMAP
00
00
00
00
00
00
00
00
00
00
00
00
10
10
10
00
ENDCHAR
STARTCHAR CombBridge
ENCODING 838
SWIDTH 960 0
DWIDTH 8 0
BBX 8 16 0 -4
BITMAP
00
00
3c
24
00
00
00
00
00
00
00
00
00
00
00
00
ENDCHAR
STARTCHAR CombLequals
ENCODING 839
SWIDTH 960 0
DWIDTH 8 0
BBX 8 16 0 -4
BITMAP
00
00
00
00
00
00
00
00
00
00
00
00
00
1c
00
1c
ENDCHAR
STARTCHAR CombLvline2
ENCODING 840
SWIDTH 960 0
DWIDTH 8 0
BBX 8 16 0 -4
BITMAP
00
00
00
00
00
00
00
00
00
00
00
00
24
24
24
00
ENDCHAR
STARTCHAR CombLangle
ENCODING 841
SWIDTH 960 0
DWIDTH 8 0
BBX 8 16 0 -4
BITMAP
00
00
00
00
00
00
00
00
00
00
00
00
00
1c
04
00
ENDCHAR
STARTCHAR CombTildenot
ENCODING 842
SWIDTH 960 0
DWIDTH 8 0
BBX 8 16 0 -4
BITMAP
04
39
4e
10
00
00
00
00
00
00
00
00
00
00
00
00
ENDCHAR
STARTCHAR GkCapHet
ENCODING 880
SWIDTH 960 0
DWIDTH 8 0
BBX 8 16 0 -4
BITMAP
00
00
40
40
40
40
7e
40
40
40
40
40
00
00
00
00
ENDCHAR
STARTCHAR GkSmlHet
ENCODING 881
SWIDTH 960 0
DWIDTH 8 0
BBX 8 16 0 -4
BITMAP
00
00
00
00
00
40
20
20
3e
20
20
20
00
00
00
00
ENDCHAR
STARTCHAR GkCapSamArch
ENCODING 882
SWIDTH 960 0
DWIDTH 8 0
BBX 8 16 0 -4
BITMAP
00
00
7f
49
49
49
49
08
08
08
08
08
00
00
00
00
ENDCHAR
STARTCHAR GkSmlSamArch
ENCODING 883
SWIDTH 960 0
DWIDTH 8 0
BBX 8 16 0 -4
BITMAP
00
00
3e
2a
2a
2a
08
08
08
08
08
08
00
00
00
00
ENDCHAR
STARTCHAR PGkNumsignU
ENCODING 884
SWIDTH 960 0
DWIDTH 8 0
BBX 8 16 0 -4
BITMAP
00
04
0c
08
10
00
00
00
00
00
00
00
00
00
00
00
ENDCHAR
STARTCHAR PGkNumsignL
ENCODING 885
SWIDTH 960 0
DWIDTH 8 0
BBX 8 16 0 -4
BITMAP
00
00
00
00
00
00
00
00
00
00
08
18
10
20
00
00
ENDCHAR
STARTCHAR GkCapDigPamph
ENCODING 886
SWIDTH 960 0
DWIDTH 8 0
BBX 8 16 0 -4
BITMAP
00
00
42
42
46
4a
4a
52
52
62
42
42
00
00
00
00
ENDCHAR
STARTCHAR GkSmlDigPamph
ENCODING 887
SWIDTH 960 0
DWIDTH 8 0
BBX 8 16 0 -4
BITMAP
00
00
00
00
00
42
22
26
2a
32
22
21
00
00
00
00
ENDCHAR
STARTCHAR AccGkYpog
ENCODING 890
SWIDTH 960 0
DWIDTH 8 0
BBX 8 16 0 -4
BITMAP
00
00
00
00
00
00
00
00
00
00
00
10
10
10
10
00
ENDCHAR
STARTCHAR GkSmlSigLunateRev
ENCODING 891
SWIDTH 960 0
DWIDTH 8 0
BBX 8 16 0 -4
BITMAP
00
00
00
00
00
3c
42
02
02
02
42
3c
00
00
00
00
ENDCHAR
STARTCHAR GkSmlSigLunateDot
ENCODING 892
SWIDTH 960 0
DWIDTH 8 0
BBX 8 16 0 -4
BITMAP
00
00
00
00
00
3c
42
40
58
40
42
3c
00
00
00
00
ENDCHAR
STARTCHAR GkSmlSigLunateRevDot
ENCODING 893
SWIDTH 960 0
DWIDTH 8 0
BBX 8 16 0 -4
BITMAP
00
00
00
00
00
3c
42
02
1a
02
42
3c
00
00
00
00
ENDCHAR
STARTCHAR PGkQuestion
ENCODING 894
SWIDTH 960 0
DWIDTH 8 0
BBX 8 16 0 -4
BITMAP
00
00
00
00
00
00
18
18
00
00
18
18
10
20
00
00
ENDCHAR
STARTCHAR AccGkTonos
ENCODING 900
SWIDTH 960 0
DWIDTH 8 0
BBX 8 16 0 -4
BITMAP
00
08
08
10
00
00
00
00
00
00
00
00
00
00
00
00
ENDCHAR
STARTCHAR AccGkDrssTonos
ENCODING 901
SWIDTH 960 0
DWIDTH 8 0
BBX 8 16 0 -4
BITMAP
00
08
4a
52
00
00
00
00
00
00
00
00
00
00
00
00
ENDCHAR
STARTCHAR GkCapAlpTon
ENCODING 902
SWIDTH 960 0
DWIDTH 8 0
BBX 8 16 0 -4
BITMAP
40
40
98
18
24
24
42
42
7e
42
42
42
00
00
00
00
ENDCHAR
STARTCHAR PMiddleDotGk
ENCODING 903
SWIDTH 960 0
DWIDTH 8 0
BBX 8 16 0 -4
BITMAP
00
00
00
00
00
18
18
00
00
00
00
00
00
00
00
00
ENDCHAR
STARTCHAR GkCapEpsTon
ENCODING 904
SWIDTH 960 0
DWIDTH 8 0
BBX 8 16 0 -4
BITMAP
40
40
bf
20
20
20
3c
20
20
20
20
3f
00
00
00
00
ENDCHAR
STARTCHAR GkCapEtaTon
ENCODING 905
SWIDTH 960 0
DWIDTH 8 0
BBX 8 16 0 -4
BITMAP
40
40
a1
21
21
21
3f
21
21
21
21
21
00
00
00
00
ENDCHAR
STARTCHAR GkCapIotTon
ENCODING 906
SWIDTH 960 0
DWIDTH 8 0
BBX 8 16 0 -4
BITMAP
40
40
9f
04
04
04
04
04
04
04
04
1f
00
00
00
00
ENDCHAR
STARTCHAR GkCapOmiTon
ENCODING 908
SWIDTH 960 0
DWIDTH 8 0
BBX 8 16 0 -4
BITMAP
40
40
9e
21
21
21
21
21
21
21
21
1e
00
00
00
00
ENDCHAR
STARTCHAR GkCapUpsTon
ENCODING 910
SWIDTH 960 0
DWIDTH 8 0
BBX 8 16 0 -4
BITMAP
40
40
91
11
11
0a
0a
04
04
04
04
04
00
00
00
00
ENDCHAR
STARTCHAR GkCapOmeTon
ENCODING 911
SWIDTH 960 0
DWIDTH 8 0
BBX 8 16 0 -4
BITMAP
40
40
9c
22
41
41
41
41
22
14
14
77
00
00
00
00
ENDCHAR
STARTCHAR GkSmlIotDrssTon
ENCODING 912
SWIDTH 960 0
DWIDTH 8 0
BBX 8 16 0 -4
BITMAP
00
08
4a
52
00
10
10
10
10
10
12
0c
00
00
00
00
ENDCHAR
STARTCHAR GkCapAlp
ENCODING 913
SWIDTH 960 0
DWIDTH 8 0
BBX 8 16 0 -4
BITMAP
00
00
18
18
24
24
42
42
7e
42
42
42
00
00
00
00
ENDCHAR
STARTCHAR GkCapBet
ENCODING 914
SWIDTH 960 0
DWIDTH 8 0
BBX 8 16 0 -4
BITMAP
00
00
7c
42
42
42
7c
42
42
42
42
7c
00
00
00
00
ENDCHAR
STARTCHAR GkCapGam
ENCODING 915
SWIDTH 960 0
DWIDTH 8 0
BBX 8 16 0 -4
BITMAP
00
00
3f
20
20
20
20
20
20
20
20
20
00
00
00
00
ENDCHAR
STARTCHAR GkCapDel
ENCODING 916
SWIDTH 960 0
DWIDTH 8 0
BBX 8 16 0 -4
BITMAP
00
00
08
08
14
14
22
22
22
41
41
7f
00
00
00
00
ENDCHAR
STARTCHAR GkCapEps
ENCODING 917
SWIDTH 960 0
DWIDTH 8 0
BBX 8 16 0 -4
BITMAP
00
00
7e
40
40
40
78
40
40
40
40
7e
00
00
00
00
ENDCHAR
STARTCHAR GkCapZet
ENCODING 918
SWIDTH 960 0
DWIDTH 8 0
BBX 8 16 0 -4
BITMAP
00
00
7e
02
04
08
08
10
20
20
40
7e
00
00
00
00
ENDCHAR
STARTCHAR GkCapEta
ENCODING 919
SWIDTH 960 0
DWIDTH 8 0
BBX 8 16 0 -4
BITMAP
00
00
42
42
42
42
7e
42
42
42
42
42
00
00
00
00
ENDCHAR
STARTCHAR GkCapThe
ENCODING 920
SWIDTH 960 0
DWIDTH 8 0
BBX 8 16 0 -4
BITMAP
00
00
3c
42
42
42
7e
42
42
42
42
3c
00
00
00
00
ENDCHAR
STARTCHAR GkCapIot
ENCODING 921
SWIDTH 960 0
DWIDTH 8 0
BBX 8 16 0 -4
BITMAP
00
00
3e
08
08
08
08
08
08
08
08
3e
00
00
00
00
ENDCHAR
STARTCHAR GkCapKap
ENCODING 922
SWIDTH 960 0
DWIDTH 8 0
BBX 8 16 0 -4
BITMAP
00
00
42
42
44
48
50
70
48
44
42
42
00
00
00
00
ENDCHAR
STARTCHAR GkCapLam
ENCODING 923
SWIDTH 960 0
DWIDTH 8 0
BBX 8 16 0 -4
BITMAP
00
00
08
08
14
14
22
22
22
41
41
41
00
00
00
00
ENDCHAR
STARTCHAR GkCapMu
ENCODING 924
SWIDTH 960 0
DWIDTH 8 0
BBX 8 16 0 -4
BITMAP
00
00
41
41
63
55
55
49
49
41
41
41
00
00
00
00
ENDCHAR
STARTCHAR GkCapNu
ENCODING 925
SWIDTH 960 0
DWIDTH 8 0
BBX 8 16 0 -4
BITMAP
00
00
42
42
62
52
52
4a
4a
46
42
42
00
00
00
00
ENDCHAR
STARTCHAR GkCapXi
ENCODING 926
SWIDTH 960 0
DWIDTH 8 0
BBX 8 16 0 -4
BITMAP
00
00
7e
42
00
00
3c
00
00
00
42
7e
00
00
00
00
ENDCHAR
STARTCHAR GkCapOmi
ENCODING 927
SWIDTH 960 0
DWIDTH 8 0
BBX 8 16 0 -4
BITMAP
00
00
3c
42
42
42
42
42
42
42
42
3c
00
00
00
00
ENDCHAR
STARTCHAR GkCapPi
ENCODING 928
SWIDTH 960 0
DWIDTH 8 0
BBX 8 16 0 -4
BITMAP
00
00
7e
42
42
42
42
42
42
42
42
42
00
00
00
00
ENDCHAR
STARTCHAR GkCapRho
ENCODING 929
SWIDTH 960 0
DWIDTH 8 0
BBX 8 16 0 -4
BITMAP
00
00
7c
42
42
42
42
7c
40
40
40
40
00
00
00
00
ENDCHAR
STARTCHAR GkCapSig
ENCODING 931
SWIDTH 960 0
DWIDTH 8 0
BBX 8 16 0 -4
BITMAP
00
00
7e
40
20
10
08
08
10
20
40
7e
00
00
00
00
ENDCHAR
STARTCHAR GkCapTau
ENCODING 932
SWIDTH 960 0
DWIDTH 8 0
BBX 8 16 0 -4
BITMAP
00
00
7f
08
08
08
08
08
08
08
08
08
00
00
00
00
ENDCHAR
STARTCHAR GkCapUps
ENCODING 933
SWIDTH 960 0
DWIDTH 8 0
BBX 8 16 0 -4
BITMAP
00
00
41
22
22
14
14
08
08
08
08
08
00
00
00
00
ENDCHAR
STARTCHAR GkCapPhi
ENCODING 934
SWIDTH 960 0
DWIDTH 8 0
BBX 8 16 0 -4
BITMAP
00
00
08
1c
2a
49
49
49
49
2a
1c
08
00
00
00
00
ENDCHAR
STARTCHAR GkCapChi
ENCODING 935
SWIDTH 960 0
DWIDTH 8 0
BBX 8 16 0 -4
BITMAP
00
00
42
42
24
24
18
18
24
24
42
42
00
00
00
00
ENDCHAR
STARTCHAR GkCapPsi
ENCODING 936
SWIDTH 960 0
DWIDTH 8 0
BBX 8 16 0 -4
BITMAP
00
00
49
49
49
49
49
3e
08
08
08
08
00
00
00
00
ENDCHAR
STARTCHAR GkCapOme
ENCODING 937
SWIDTH 960 0
DWIDTH 8 0
BBX 8 16 0 -4
BITMAP
00
00
1c
22
41
41
41
41
22
14
14
77
00
00
00
00
ENDCHAR
STARTCHAR GkCapIotDrss
ENCODING 938
SWIDTH 960 0
DWIDTH 8 0
BBX 8 16 0 -4
BITMAP
12
12
00
3e
08
08
08
08
08
08
08
3e
00
00
00
00
ENDCHAR
STARTCHAR GkCapUpsDrss
ENCODING 939
SWIDTH 960 0
DWIDTH 8 0
BBX 8 16 0 -4
BITMAP
12
12
00
41
22
22
14
14
08
08
08
08
00
00
00
00
ENDCHAR
STARTCHAR GkSmlAlpTon
ENCODING 940
SWIDTH 960 0
DWIDTH 8 0
BBX 8 16 0 -4
BITMAP
00
08
08
10
00
32
4a
44
44
44
4c
33
00
00
00
00
ENDCHAR
STARTCHAR GkSmlEpsTon
ENCODING 941
SWIDTH 960 0
DWIDTH 8 0
BBX 8 16 0 -4
BITMAP
00
08
08
10
00
3c
42
40
30
40
42
3c
00
00
00
00
ENDCHAR
STARTCHAR GkSmlEtaTon
ENCODING 942
SWIDTH 960 0
DWIDTH 8 0
BBX 8 16 0 -4
BITMAP
00
08
08
10
00
5c
62
42
42
42
42
42
02
02
02
00
ENDCHAR
STARTCHAR GkSmlIotTon
ENCODING 943
SWIDTH 960 0
DWIDTH 8 0
BBX 8 16 0 -4
BITMAP
00
08
08
10
00
10
10
10
10
10
12
0c
00
00
00
00
ENDCHAR
STARTCHAR GkSmlUpsDrssTon
ENCODING 944
SWIDTH 960 0
DWIDTH 8 0
BBX 8 16 0 -4
BITMAP
00
08
4a
52
00
42
42
42
42
42
42
3c
00
00
00
00
ENDCHAR
STARTCHAR GkSmlAlp
ENCODING 945
SWIDTH 960 0
DWIDTH 8 0
BBX 8 16 0 -4
BITMAP
00
00
00
00
00
32
4a
44
44
44
4c
33
00
00
00
00
ENDCHAR
STARTCHAR GkSmlBet
ENCODING 946
SWIDTH 960 0
DWIDTH 8 0
BBX 8 16 0 -4
BITMAP
00
00
38
44
44
58
44
42
42
42
62
5c
40
40
40
00
ENDCHAR
STARTCHAR GkSmlGam
ENCODING 947
SWIDTH 960 0
DWIDTH 8 0
BBX 8 16 0 -4
BITMAP
00
00
00
00
00
42
22
22
14
14
08
08
08
08
08
00
ENDCHAR
STARTCHAR GkSmlDel
ENCODING 948
SWIDTH 960 0
DWIDTH 8 0
BBX 8 16 0 -4
BITMAP
00
00
1c
20
10
18
24
42
42
42
42
3c
00
00
00
00
ENDCHAR
STARTCHAR GkSmlEps
ENCODING 949
SWIDTH 960 0
DWIDTH 8 0
BBX 8 16 0 -4
BITMAP
00
00
00
00
00
3c
42
40
30
40
42
3c
00
00
00
00
ENDCHAR
STARTCHAR GkSmlZet
ENCODING 950
SWIDTH 960 0
DWIDTH 8 0
BBX 8 16 0 -4
BITMAP
00
00
3e
04
08
08
10
10
20
20
20
1c
02
04
00
00
ENDCHAR
STARTCHAR GkSmlEta
ENCODING 951
SWIDTH 960 0
DWIDTH 8 0
BBX 8 16 0 -4
BITMAP
00
00
00
00
00
5c
62
42
42
42
42
42
02
02
02
00
ENDCHAR
STARTCHAR GkSmlThe
ENCODING 952
SWIDTH 960 0
DWIDTH 8 0
BBX 8 16 0 -4
BITMAP
00
00
18
24
42
42
7e
42
42
42
24
18
00
00
00
00
ENDCHAR
STARTCHAR GkSmlIot
ENCODING 953
SWIDTH 960 0
DWIDTH 8 0
BBX 8 16 0 -4
BITMAP
00
00
00
00
00
10
10
10
10
10
12
0c
00
00
00
00
ENDCHAR
STARTCHAR GkSmlKap
ENCODING 954
SWIDTH 960 0
DWIDTH 8 0
BBX 8 16 0 -4
BITMAP
00
00
00
00
00
42
44
48
70
48
44
42
00
00
00
00
ENDCHAR
STARTCHAR GkSmlLam
ENCODING 955
SWIDTH 960 0
DWIDTH 8 0
BBX 8 16 0 -4
BITMAP
00
00
20
20
10
10
08
18
24
24
42
42
00
00
00
00
ENDCHAR
STARTCHAR GkSmlMu
ENCODING 956
SWIDTH 960 0
DWIDTH 8 0
BBX 8 16 0 -4
BITMAP
00
00
00
00
00
42
42
42
42
42
66
5a
40
40
40
00
ENDCHAR
STARTCHAR GkSmlNu
ENCODING 957
SWIDTH 960 0
DWIDTH 8 0
BBX 8 16 0 -4
BITMAP
00
00
00
00
00
42
22
22
12
14
08
08
00
00
00
00
ENDCHAR
STARTCHAR GkSmlXi
ENCODING 958
SWIDTH 960 0
DWIDTH 8 0
BBX 8 16 0 -4
BITMAP
00
00
3e
10
20
20
1c
10
20
20
20
1c
02
04
00
00
ENDCHAR
STARTCHAR GkSmlOmi
ENCODING 959
SWIDTH 960 0
DWIDTH 8 0
BBX 8 16 0 -4
BITMAP
00
00
00
00
00
3c
42
42
42
42
42
3c
00
00
00
00
ENDCHAR
STARTCHAR GkSmlPi
ENCODING 960
SWIDTH 960 0
DWIDTH 8 0
BBX 8 16 0 -4
BITMAP
00
00
00
00
00
7f
22
22
22
22
22
22
00
00
00
00
ENDCHAR
STARTCHAR GkSmlRho
ENCODING 961
SWIDTH 960 0
DWIDTH 8 0
BBX 8 16 0 -4
BITMAP
00
00
00
00
00
3c
42
42
42
42
62
5c
40
40
40
00
ENDCHAR
STARTCHAR GkSmlSigTrm
ENCODING 962
SWIDTH 960 0
DWIDTH 8 0
BBX 8 16 0 -4
BITMAP
00
00
00
00
00
1c
22
40
40
40
20
1c
02
04
00
00
ENDCHAR
STARTCHAR GkSmlSig
ENCODING 963
SWIDTH 960 0
DWIDTH 8 0
BBX 8 16 0 -4
BITMAP
00
00
00
00
00
1f
24
42
42
42
24
18
00
00
00
00
ENDCHAR
STARTCHAR GkSmlTau
ENCODING 964
SWIDTH 960 0
DWIDTH 8 0
BBX 8 16 0 -4
BITMAP
00
00
00
00
00
7f
08
08
08
08
08
0c
00
00
00
00
ENDCHAR
STARTCHAR GkSmlUps
ENCODING 965
SWIDTH 960 0
DWIDTH 8 0
BBX 8 16 0 -4
BITMAP
00
00
00
00
00
42
42
42
42
42
42
3c
00
00
00
00
ENDCHAR
STARTCHAR GkSmlPhi
ENCODING 966
SWIDTH 960 0
DWIDTH 8 0
BBX 8 16 0 -4
BITMAP
00
00
00
00
00
06
49
49
49
49
49
3e
08
08
08
00
ENDCHAR
STARTCHAR GkSmlChi
ENCODING 967
SWIDTH 960 0
DWIDTH 8 0
BBX 8 16 0 -4
BITMAP
00
00
00
00
00
42
42
24
24
18
18
24
24
42
42
00
ENDCHAR
STARTCHAR GkSmlPsi
ENCODING 968
SWIDTH 960 0
DWIDTH 8 0
BBX 8 16 0 -4
BITMAP
00
00
08
08
08
49
49
49
49
49
2a
1c
08
08
08
00
ENDCHAR
STARTCHAR GkSmlOme
ENCODING 969
SWIDTH 960 0
DWIDTH 8 0
BBX 8 16 0 -4
BITMAP
00
00
00
00
00
22
41
49
49
49
49
36
00
00
00
00
ENDCHAR
STARTCHAR GkSmlIotDrss
ENCODING 970
SWIDTH 960 0
DWIDTH 8 0
BBX 8 16 0 -4
BITMAP
00
00
24
24
00
10
10
10
10
10
12
0c
00
00
00
00
ENDCHAR
STARTCHAR GkSmlUpsDrss
ENCODING 971
SWIDTH 960 0
DWIDTH 8 0
BBX 8 16 0 -4
BITMAP
00
00
24
24
00
42
42
42
42
42
42
3c
00
00
00
00
ENDCHAR
STARTCHAR GkSmlOmiTon
ENCODING 972
SWIDTH 960 0
DWIDTH 8 0
BBX 8 16 0 -4
BITMAP
00
08
08
10
00
3c
42
42
42
42
42
3c
00
00
00
00
ENDCHAR
STARTCHAR GkSmlUpsTon
ENCODING 973
SWIDTH 960 0
DWIDTH 8 0
BBX 8 16 0 -4
BITMAP
00
08
08
10
00
42
42
42
42
42
42
3c
00
00
00
00
ENDCHAR
STARTCHAR GkSmlOmeTon
ENCODING 974
SWIDTH 960 0
DWIDTH 8 0
BBX 8 16 0 -4
BITMAP
00
04
04
08
00
22
41
49
49
49
49
36
00
00
00
00
ENDCHAR
STARTCHAR SGkCapKai
ENCODING 975
SWIDTH 960 0
DWIDTH 8 0
BBX 8 16 0 -4
BITMAP
00
00
42
42
44
48
50
70
48
44
42
44
08
10
00
00
ENDCHAR
STARTCHAR GkSmlBetAlt
ENCODING 976
SWIDTH 960 0
DWIDTH 8 0
BBX 8 16 0 -4
BITMAP
00
00
18
24
78
40
78
44
42
42
24
18
00
00
00
00
ENDCHAR
STARTCHAR GkSmlTheAlt
ENCODING 977
SWIDTH 960 0
DWIDTH 8 0
BBX 8 16 0 -4
BITMAP
00
00
18
24
22
22
1e
02
42
22
24
18
00
00
00
00
ENDCHAR
STARTCHAR GkCapUpsAlt
ENCODING 978
SWIDTH 960 0
DWIDTH 8 0
BBX 8 16 0 -4
BITMAP
00
00
63
55
08
08
08
08
08
08
08
08
00
00
00
00
ENDCHAR
STARTCHAR GkCapUpsAltTon
ENCODING 979
SWIDTH 960 0
DWIDTH 8 0
BBX 8 16 0 -4
BITMAP
40
40
80
63
55
08
08
08
08
08
08
08
00
00
00
00
ENDCHAR
STARTCHAR GkCapUpsAltDrss
ENCODING 980
SWIDTH 960 0
DWIDTH 8 0
BBX 8 16 0 -4
BITMAP
12
12
00
63
55
08
08
08
08
08
08
08
00
00
00
00
ENDCHAR
STARTCHAR GkSmlPhiAlt
ENCODING 981
SWIDTH 960 0
DWIDTH 8 0
BBX 8 16 0 -4
BITMAP
00
00
08
08
08
3e
49
49
49
49
49
3e
08
08
08
00
ENDCHAR
STARTCHAR GkSmlPiAlt
ENCODING 982
SWIDTH 960 0
DWIDTH 8 0
BBX 8 16 0 -4
BITMAP
00
00
00
00
00
7f
42
49
49
49
49
36
00
00
00
00
ENDCHAR
STARTCHAR SGkKai
ENCODING 983
SWIDTH 960 0
DWIDTH 8 0
BBX 8 16 0 -4
BITMAP
00
00
00
00
00
42
44
48
70
48
44
42
02
3c
40
00
ENDCHAR
STARTCHAR GkCapKopAlt1
ENCODING 984
SWIDTH 960 0
DWIDTH 8 0
BBX 8 16 0 -4
BITMAP
00
00
1c
22
41
41
41
22
1c
08
08
08
00
00
00
00
ENDCHAR
STARTCHAR GkSmlKopAlt1
ENCODING 985
SWIDTH 960 0
DWIDTH 8 0
BBX 8 16 0 -4
BITMAP
00
00
00
00
00
1c
22
41
41
41
22
1c
08
08
08
00
ENDCHAR
STARTCHAR GkCapSti
ENCODING 986
SWIDTH 960 0
DWIDTH 8 0
BBX 8 16 0 -4
BITMAP
00
00
1e
20
40
40
40
40
3c
04
04
04
00
00
00
00
ENDCHAR
STARTCHAR GkSmlSti
ENCODING 987
SWIDTH 960 0
DWIDTH 8 0
BBX 8 16 0 -4
BITMAP
00
00
00
00
01
1e
20
40
40
40
40
30
08
10
00
00
ENDCHAR
STARTCHAR GkCapDig
ENCODING 988
SWIDTH 960 0
DWIDTH 8 0
BBX 8 16 0 -4
BITMAP
00
00
3f
20
20
20
3c
20
20
20
20
20
00
00
00
00
ENDCHAR
STARTCHAR GkSmlDig
ENCODING 989
SWIDTH 960 0
DWIDTH 8 0
BBX 8 16 0 -4
BITMAP
00
00
00
00
00
3e
40
40
40
40
7c
40
40
40
40
00
ENDCHAR
STARTCHAR GkCapKop
ENCODING 990
SWIDTH 960 0
DWIDTH 8 0
BBX 8 16 0 -4
BITMAP
00
00
10
20
20
40
7e
02
04
04
08
08
00
00
00
00
ENDCHAR
STARTCHAR GkSmlKop
ENCODING 991
SWIDTH 960 0
DWIDTH 8 0
BBX 8 16 0 -4
BITMAP
00
00
80
40
40
40
42
46
5a
62
42
02
02
02
02
00
ENDCHAR
STARTCHAR GkCapSam
ENCODING 992
SWIDTH 960 0
DWIDTH 8 0
BBX 8 16 0 -4
BITMAP
00
00
08
08
14
14
22
26
26
49
49
49
00
00
00
00
ENDCHAR
STARTCHAR GkSmlSam
ENCODING 993
SWIDTH 960 0
DWIDTH 8 0
BBX 8 16 0 -4
BITMAP
00
00
40
20
10
08
08
34
44
04
1a
22
02
02
02
00
ENDCHAR
STARTCHAR GkSmlKapAlt
ENCODING 1008
SWIDTH 960 0
DWIDTH 8 0
BBX 8 16 0 -4
BITMAP
00
00
00
00
00
42
42
24
2c
34
22
42
00
00
00
00
ENDCHAR
STARTCHAR GkSmlRhoAlt
ENCODING 1009
SWIDTH 960 0
DWIDTH 8 0
BBX 8 16 0 -4
BITMAP
00
00
00
00
00
3c
42
42
42
42
62
5c
40
40
3c
00
ENDCHAR
STARTCHAR GkSmlSigLunate
ENCODING 1010
SWIDTH 960 0
DWIDTH 8 0
BBX 8 16 0 -4
BITMAP
00
00
00
00
00
3c
42
40
40
40
42
3c
00
00
00
00
ENDCHAR
STARTCHAR GkSmlYot
ENCODING 1011
SWIDTH 960 0
DWIDTH 8 0
BBX 8 16 0 -4
BITMAP
00
00
04
04
00
1c
04
04
04
04
04
04
44
44
38
00
ENDCHAR
STARTCHAR GkCapTheAlt
ENCODING 1012
SWIDTH 960 0
DWIDTH 8 0
BBX 8 16 0 -4
BITMAP
00
00
3c
42
42
42
7e
42
42
42
42
3c
00
00
00
00
ENDCHAR
STARTCHAR GkSmlEpsAlt
ENCODING 1013
SWIDTH 960 0
DWIDTH 8 0
BBX 8 16 0 -4
BITMAP
00
00
00
00
00
0e
10
20
3c
20
20
1e
00
00
00
00
ENDCHAR
STARTCHAR GkSmlEpsRevAlt
ENCODING 1014
SWIDTH 960 0
DWIDTH 8 0
BBX 8 16 0 -4
BITMAP
00
00
00
00
00
38
04
02
1e
02
02
3c
00
00
00
00
ENDCHAR
STARTCHAR GkCapSho
ENCODING 1015
SWIDTH 960 0
DWIDTH 8 0
BBX 8 16 0 -4
BITMAP
00
00
40
40
7c
42
42
42
42
7c
40
40
00
00
00
00
ENDCHAR
STARTCHAR GkSmlSho
ENCODING 1016
SWIDTH 960 0
DWIDTH 8 0
BBX 8 16 0 -4
BITMAP
00
00
40
40
40
5c
62
42
42
42
62
5c
40
40
40
00
ENDCHAR
STARTCHAR GkCapSigLunate
ENCODING 1017
SWIDTH 960 0
DWIDTH 8 0
BBX 8 16 0 -4
BITMAP
00
00
1c
22
40
40
40
40
40
40
22
1c
00
00
00
00
ENDCHAR
STARTCHAR GkCapSan
ENCODING 1018
SWIDTH 960 0
DWIDTH 8 0
BBX 8 16 0 -4
BITMAP
00
00
22
36
2a
49
41
41
41
41
41
41
00
00
00
00
ENDCHAR
STARTCHAR GkSmlSan
ENCODING 1019
SWIDTH 960 0
DWIDTH 8 0
BBX 8 16 0 -4
BITMAP
00
00
00
00
00
42
66
5a
42
42
42
42
40
40
40
00
ENDCHAR
STARTCHAR GkSmlRhoStroke
ENCODING 1020
SWIDTH 960 0
DWIDTH 8 0
BBX 8 16 0 -4
BITMAP
00
00
00
00
00
3c
42
42
42
42
62
5c
40
f8
40
00
ENDCHAR
STARTCHAR GkCapSigLunateRev
ENCODING 1021
SWIDTH 960 0
DWIDTH 8 0
BBX 8 16 0 -4
BITMAP
00
00
38
44
02
02
02
02
02
02
44
38
00
00
00
00
ENDCHAR
STARTCHAR GkCapSigLunateDot
ENCODING 1022
SWIDTH 960 0
DWIDTH 8 0
BBX 8 16 0 -4
BITMAP
00
00
1c
22
40
40
48
48
40
40
22
1c
00
00
00
00
ENDCHAR
STARTCHAR GkCapSigLunateRevDot
ENCODING 1023
SWIDTH 960 0
DWIDTH 8 0
BBX 8 16 0 -4
BITMAP
00
00
38
44
02
02
12
12
02
02
44
38
00
00
00
00
ENDCHAR
STARTCHAR CyCapIeGrave
ENCODING 1024
SWIDTH 960 0
DWIDTH 8 0
BBX 8 16 0 -4
BITMAP
20
18
00
7e
40
40
40
78
40
40
40
7e
00
00
00
00
ENDCHAR
STARTCHAR CyCapIeDrss
ENCODING 1025
SWIDTH 960 0
DWIDTH 8 0
BBX 8 16 0 -4
BITMAP
24
24
00
7e
40
40
40
78
40
40
40
7e
00
00
00
00
ENDCHAR
STARTCHAR CyCapDje
ENCODING 1026
SWIDTH 960 0
DWIDTH 8 0
BBX 8 16 0 -4
BITMAP
00
00
fe
10
10
1e
11
11
11
11
11
11
01
01
06
00
ENDCHAR
STARTCHAR CyCapGheAcute
ENCODING 1027
SWIDTH 960 0
DWIDTH 8 0
BBX 8 16 0 -4
BITMAP
02
0c
00
3f
20
20
20
20
20
20
20
20
00
00
00
00
ENDCHAR
STARTCHAR CyCapIeUkr
ENCODING 1028
SWIDTH 960 0
DWIDTH 8 0
BBX 8 16 0 -4
BITMAP
00
00
1c
22
40
40
7c
40
40
40
22
1c
00
00
00
00
ENDCHAR
STARTCHAR CyCapDze
ENCODING 1029
SWIDTH 960 0
DWIDTH 8 0
BBX 8 16 0 -4
BITMAP
00
00
3c
42
40
40
30
0c
02
02
42
3c
00
00
00
00
ENDCHAR
STARTCHAR CyCapIUkr
ENCODING 1030
SWIDTH 960 0
DWIDTH 8 0
BBX 8 16 0 -4
BITMAP
00
00
3e
08
08
08
08
08
08
08
08
3e
00
00
00
00
ENDCHAR
STARTCHAR CyCapIUkrDrss
ENCODING 1031
SWIDTH 960 0
DWIDTH 8 0
BBX 8 16 0 -4
BITMAP
12
12
00
3e
08
08
08
08
08
08
08
3e
00
00
00
00
ENDCHAR
STARTCHAR CyCapJe
ENCODING 1032
SWIDTH 960 0
DWIDTH 8 0
BBX 8 16 0 -4
BITMAP
00
00
0e
04
04
04
04
04
04
44
44
38
00
00
00
00
ENDCHAR
STARTCHAR CyCapLje
ENCODING 1033
SWIDTH 960 0
DWIDTH 8 0
BBX 8 16 0 -4
BITMAP
00
00
18
28
48
48
4e
49
49
49
49
8e
00
00
00
00
ENDCHAR
STARTCHAR CyCapNje
ENCODING 1034
SWIDTH 960 0
DWIDTH 8 0
BBX 8 16 0 -4
BITMAP
00
00
48
48
48
48
7e
49
49
49
49
4e
00
00
00
00
ENDCHAR
STARTCHAR CyCapTshe
ENCODING 1035
SWIDTH 960 0
DWIDTH 8 0
BBX 8 16 0 -4
BITMAP
00
00
fe
10
10
1e
11
11
11
11
11
11
00
00
00
00
ENDCHAR
STARTCHAR CyCapKaAcute
ENCODING 1036
SWIDTH 960 0
DWIDTH 8 0
BBX 8 16 0 -4
BITMAP
04
18
00
42
42
44
48
70
48
44
42
42
00
00
00
00
ENDCHAR
STARTCHAR CyCapIGrave
ENCODING 1037
SWIDTH 960 0
DWIDTH 8 0
BBX 8 16 0 -4
BITMAP
20
18
00
42
46
4a
4a
52
52
62
42
42
00
00
00
00
ENDCHAR
STARTCHAR CyCapUBreve
ENCODING 1038
SWIDTH 960 0
DWIDTH 8 0
BBX 8 16 0 -4
BITMAP
24
3c
00
42
22
24
14
14
08
08
50
30
00
00
00
00
ENDCHAR
STARTCHAR CyCapDzhe
ENCODING 1039
SWIDTH 960 0
DWIDTH 8 0
BBX 8 16 0 -4
BITMAP
00
00
42
42
42
42
42
42
42
42
42
7e
08
08
08
00
ENDCHAR
STARTCHAR CyCapA
ENCODING 1040
SWIDTH 960 0
DWIDTH 8 0
BBX 8 16 0 -4
BITMAP
00
00
18
18
24
24
42
42
7e
42
42
42
00
00
00
00
ENDCHAR
STARTCHAR CyCapBe
ENCODING 1041
SWIDTH 960 0
DWIDTH 8 0
BBX 8 16 0 -4
BITMAP
00
00
7c
40
40
40
7c
42
42
42
42
7c
00
00
00
00
ENDCHAR
STARTCHAR CyCapVe
ENCODING 1042
SWIDTH 960 0
DWIDTH 8 0
BBX 8 16 0 -4
BITMAP
00
00
7c
42
42
42
7c
42
42
42
42
7c
00
00
00
00
ENDCHAR
STARTCHAR CyCapGhe
ENCODING 1043
SWIDTH 960 0
DWIDTH 8 0
BBX 8 16 0 -4
BITMAP
00
00
3f
20
20
20
20
20
20
20
20
20
00
00
00
00
ENDCHAR
STARTCHAR CyCapDe
ENCODING 1044
SWIDTH 960 0
DWIDTH 8 0
BBX 8 16 0 -4
BITMAP
00
00
3e
22
22
22
22
22
22
22
22
7f
41
41
41
00
ENDCHAR
STARTCHAR CyCapIe
ENCODING 1045
SWIDTH 960 0
DWIDTH 8 0
BBX 8 16 0 -4
BITMAP
00
00
7e
40
40
40
78
40
40
40
40
7e
00
00
00
00
ENDCHAR
STARTCHAR CyCapZhe
ENCODING 1046
SWIDTH 960 0
DWIDTH 8 0
BBX 8 16 0 -4
BITMAP
00
00
49
49
49
2a
1c
2a
49
49
49
49
00
00
00
00
ENDCHAR
STARTCHAR CyCapZe
ENCODING 1047
SWIDTH 960 0
DWIDTH 8 0
BBX 8 16 0 -4
BITMAP
00
00
38
44
02
04
18
04
02
02
44
38
00
00
00
00
ENDCHAR
STARTCHAR CyCapI
ENCODING 1048
SWIDTH 960 0
DWIDTH 8 0
BBX 8 16 0 -4
BITMAP
00
00
42
42
46
4a
4a
52
52
62
42
42
00
00
00
00
ENDCHAR
STARTCHAR CyCapIBreve
ENCODING 1049
SWIDTH 960 0
DWIDTH 8 0
BBX 8 16 0 -4
BITMAP
24
3c
00
42
46
4a
4a
52
52
62
42
42
00
00
00
00
ENDCHAR
STARTCHAR CyCapKa
ENCODING 1050
SWIDTH 960 0
DWIDTH 8 0
BBX 8 16 0 -4
BITMAP
00
00
42
42
44
48
50
70
48
44
42
42
00
00
00
00
ENDCHAR
STARTCHAR CyCapEl
ENCODING 1051
SWIDTH 960 0
DWIDTH 8 0
BBX 8 16 0 -4
BITMAP
00
00
08
08
14
14
22
22
22
41
41
41
00
00
00
00
ENDCHAR
STARTCHAR CyCapEm
ENCODING 1052
SWIDTH 960 0
DWIDTH 8 0
BBX 8 16 0 -4
BITMAP
00
00
41
41
63
55
55
49
49
41
41
41
00
00
00
00
ENDCHAR
STARTCHAR CyCapEn
ENCODING 1053
SWIDTH 960 0
DWIDTH 8 0
BBX 8 16 0 -4
BITMAP
00
00
42
42
42
42
7e
42
42
42
42
42
00
00
00
00
ENDCHAR
STARTCHAR CyCapO
ENCODING 1054
SWIDTH 960 0
DWIDTH 8 0
BBX 8 16 0 -4
BITMAP
00
00
3c
42
42
42
42
42
42
42
42
3c
00
00
00
00
ENDCHAR
STARTCHAR CyCapPe
ENCODING 1055
SWIDTH 960 0
DWIDTH 8 0
BBX 8 16 0 -4
BITMAP
00
00
7e
42
42
42
42
42
42
42
42
42
00
00
00
00
ENDCHAR
STARTCHAR CyCapEr
ENCODING 1056
SWIDTH 960 0
DWIDTH 8 0
BBX 8 16 0 -4
BITMAP
00
00
7c
42
42
42
42
7c
40
40
40
40
00
00
00
00
ENDCHAR
STARTCHAR CyCapEs
ENCODING 1057
SWIDTH 960 0
DWIDTH 8 0
BBX 8 16 0 -4
BITMAP
00
00
1c
22
40
40
40
40
40
40
22
1c
00
00
00
00
ENDCHAR
STARTCHAR CyCapTe
ENCODING 1058
SWIDTH 960 0
DWIDTH 8 0
BBX 8 16 0 -4
BITMAP
00
00
7f
08
08
08
08
08
08
08
08
08
00
00
00
00
ENDCHAR
STARTCHAR CyCapU
ENCODING 1059
SWIDTH 960 0
DWIDTH 8 0
BBX 8 16 0 -4
BITMAP
00
00
42
42
22
24
14
14
08
08
50
30
00
00
00
00
ENDCHAR
STARTCHAR CyCapEf
ENCODING 1060
SWIDTH 960 0
DWIDTH 8 0
BBX 8 16 0 -4
BITMAP
00
08
08
1c
2a
49
49
49
49
2a
1c
08
08
00
00
00
ENDCHAR
STARTCHAR CyCapHa
ENCODING 1061
SWIDTH 960 0
DWIDTH 8 0
BBX 8 16 0 -4
BITMAP
00
00
42
42
24
24
18
18
24
24
42
42
00
00
00
00
ENDCHAR
STARTCHAR CyCapTse
ENCODING 1062
SWIDTH 960 0
DWIDTH 8 0
BBX 8 16 0 -4
BITMAP
00
00
42
42
42
42
42
42
42
42
42
7f
01
01
01
00
ENDCHAR
STARTCHAR CyCapChe
ENCODING 1063
SWIDTH 960 0
DWIDTH 8 0
BBX 8 16 0 -4
BITMAP
00
00
42
42
42
42
42
3e
02
02
02
02
00
00
00
00
ENDCHAR
STARTCHAR CyCapSha
ENCODING 1064
SWIDTH 960 0
DWIDTH 8 0
BBX 8 16 0 -4
BITMAP
00
00
49
49
49
49
49
49
49
49
49
7f
00
00
00
00
ENDCHAR
STARTCHAR CyCapShcha
ENCODING 1065
SWIDTH 960 0
DWIDTH 8 0
BBX 8 16 0 -4
BITMAP
00
00
49
49
49
49
49
49
49
49
49
7f
01
01
01
00
ENDCHAR
STARTCHAR CyCapHardsign
ENCODING 1066
SWIDTH 960 0
DWIDTH 8 0
BBX 8 16 0 -4
BITMAP
00
00
70
10
10
10
1e
11
11
11
11
1e
00
00
00
00
ENDCHAR
STARTCHAR CyCapYeru
ENCODING 1067
SWIDTH 960 0
DWIDTH 8 0
BBX 8 16 0 -4
BITMAP
00
00
41
41
41
41
79
45
45
45
45
79
00
00
00
00
ENDCHAR
STARTCHAR CyCapSoftsign
ENCODING 1068
SWIDTH 960 0
DWIDTH 8 0
BBX 8 16 0 -4
BITMAP
00
00
40
40
40
40
7c
42
42
42
42
7c
00
00
00
00
ENDCHAR
STARTCHAR CyCapE
ENCODING 1069
SWIDTH 960 0
DWIDTH 8 0
BBX 8 16 0 -4
BITMAP
00
00
38
44
02
02
3e
02
02
02
44
38
00
00
00
00
ENDCHAR
STARTCHAR CyCapYu
ENCODING 1070
SWIDTH 960 0
DWIDTH 8 0
BBX 8 16 0 -4
BITMAP
00
00
4e
51
51
51
71
51
51
51
51
4e
00
00
00
00
ENDCHAR
STARTCHAR CyCapYa
ENCODING 1071
SWIDTH 960 0
DWIDTH 8 0
BBX 8 16 0 -4
BITMAP
00
00
3e
42
42
42
3e
12
22
22
42
42
00
00
00
00
ENDCHAR
STARTCHAR CySmlA
ENCODING 1072
SWIDTH 960 0
DWIDTH 8 0
BBX 8 16 0 -4
BITMAP
00
00
00
00
00
3c
02
02
3e
42
46
3a
00
00
00
00
ENDCHAR
STARTCHAR CySmlBe
ENCODING 1073
SWIDTH 960 0
DWIDTH 8 0
BBX 8 16 0 -4
BITMAP
00
00
04
18
20
40
5c
62
42
42
42
3c
00
00
00
00
ENDCHAR
STARTCHAR CySmlVe
ENCODING 1074
SWIDTH 960 0
DWIDTH 8 0
BBX 8 16 0 -4
BITMAP
00
00
38
44
44
78
44
42
42
42
62
5c
00
00
00
00
ENDCHAR
STARTCHAR CySmlGhe
ENCODING 1075
SWIDTH 960 0
DWIDTH 8 0
BBX 8 16 0 -4
BITMAP
00
00
00
00
00
3c
42
02
3c
40
42
3c
00
00
00
00
ENDCHAR
STARTCHAR CySmlDe
ENCODING 1076
SWIDTH 960 0
DWIDTH 8 0
BBX 8 16 0 -4
BITMAP
00
00
00
00
00
3a
46
42
42
42
46
3a
02
42
3c
00
ENDCHAR
STARTCHAR CySmlIe
ENCODING 1077
SWIDTH 960 0
DWIDTH 8 0
BBX 8 16 0 -4
BITMAP
00
00
00
00
00
3c
42
42
7e
40
40
3c
00
00
00
00
ENDCHAR
STARTCHAR CySmlZhe
ENCODING 1078
SWIDTH 960 0
DWIDTH 8 0
BBX 8 16 0 -4
BITMAP
00
00
08
08
08
49
49
2a
3e
49
49
49
00
00
00
00
ENDCHAR
STARTCHAR CySmlZe
ENCODING 1079
SWIDTH 960 0
DWIDTH 8 0
BBX 8 16 0 -4
BITMAP
00
00
00
00
00
3c
42
02
02
1c
02
02
02
42
3c
00
ENDCHAR
STARTCHAR CySmlI
ENCODING 1080
SWIDTH 960 0
DWIDTH 8 0
BBX 8 16 0 -4
BITMAP
00
00
00
00
00
42
42
42
42
42
46
3a
00
00
00
00
ENDCHAR
STARTCHAR CySmlIBreve
ENCODING 1081
SWIDTH 960 0
DWIDTH 8 0
BBX 8 16 0 -4
BITMAP
00
00
24
3c
00
42
42
42
42
42
46
3a
00
00
00
00
ENDCHAR
STARTCHAR CySmlKa
ENCODING 1082
SWIDTH 960 0
DWIDTH 8 0
BBX 8 16 0 -4
BITMAP
00
00
40
40
40
42
44
48
70
48
44
42
00
00
00
00
ENDCHAR
STARTCHAR CySmlEl
ENCODING 1083
SWIDTH 960 0
DWIDTH 8 0
BBX 8 16 0 -4
BITMAP
00
00
00
00
00
18
18
24
24
42
42
42
00
00
00
00
ENDCHAR
STARTCHAR CySmlEm
ENCODING 1084
SWIDTH 960 0
DWIDTH 8 0
BBX 8 16 0 -4
BITMAP
00
00
00
00
00
41
63
55
55
49
49
41
00
00
00
00
ENDCHAR
STARTCHAR CySmlEn
ENCODING 1085
SWIDTH 960 0
DWIDTH 8 0
BBX 8 16 0 -4
BITMAP
00
00
00
00
00
42
42
42
7e
42
42
42
00
00
00
00
ENDCHAR
STARTCHAR CySmlO
ENCODING 1086
SWIDTH 960 0
DWIDTH 8 0
BBX 8 16 0 -4
BITMAP
00
00
00
00
00
3c
42
42
42
42
42
3c
00
00
00
00
ENDCHAR
STARTCHAR CySmlPe
ENCODING 1087
SWIDTH 960 0
DWIDTH 8 0
BBX 8 16 0 -4
BITMAP
00
00
00
00
00
5c
62
42
42
42
42
42
00
00
00
00
ENDCHAR
STARTCHAR CySmlEr
ENCODING 1088
SWIDTH 960 0
DWIDTH 8 0
BBX 8 16 0 -4
BITMAP
00
00
00
00
00
5c
62
42
42
42
62
5c
40
40
40
00
ENDCHAR
STARTCHAR CySmlEs
ENCODING 1089
SWIDTH 960 0
DWIDTH 8 0
BBX 8 16 0 -4
BITMAP
00
00
00
00
00
3c
42
40
40
40
42
3c
00
00
00
00
ENDCHAR
STARTCHAR CySmlTe
ENCODING 1090
SWIDTH 960 0
DWIDTH 8 0
BBX 8 16 0 -4
BITMAP
00
00
00
00
00
76
49
49
49
49
49
49
00
00
00
00
ENDCHAR
STARTCHAR CySmlU
ENCODING 1091
SWIDTH 960 0
DWIDTH 8 0
BBX 8 16 0 -4
BITMAP
00
00
00
00
00
42
42
22
24
14
14
08
08
50
20
00
ENDCHAR
STARTCHAR CySmlEf
ENCODING 1092
SWIDTH 960 0
DWIDTH 8 0
BBX 8 16 0 -4
BITMAP
00
00
08
08
08
3e
49
49
49
49
49
3e
08
08
08
00
ENDCHAR
STARTCHAR CySmlHa
ENCODING 1093
SWIDTH 960 0
DWIDTH 8 0
BBX 8 16 0 -4
BITMAP
00
00
00
00
00
42
42
24
18
24
42
42
00
00
00
00
ENDCHAR
STARTCHAR CySmlTse
ENCODING 1094
SWIDTH 960 0
DWIDTH 8 0
BBX 8 16 0 -4
BITMAP
00
00
00
00
00
42
42
42
42
42
46
3b
01
01
01
00
ENDCHAR
STARTCHAR CySmlChe
ENCODING 1095
SWIDTH 960 0
DWIDTH 8 0
BBX 8 16 0 -4
BITMAP
00
00
00
00
00
42
42
42
3e
02
02
02
00
00
00
00
ENDCHAR
STARTCHAR CySmlSha
ENCODING 1096
SWIDTH 960 0
DWIDTH 8 0
BBX 8 16 0 -4
BITMAP
00
00
00
00
00
49
49
49
49
49
49
37
00
00
00
00
ENDCHAR
STARTCHAR CySmlShcha
ENCODING 1097
SWIDTH 960 0
DWIDTH 8 0
BBX 8 16 0 -4
BITMAP
00
00
00
00
00
49
49
49
49
49
49
37
01
01
01
00
ENDCHAR
STARTCHAR CySmlHardsign
ENCODING 1098
SWIDTH 960 0
DWIDTH 8 0
BBX 8 16 0 -4
BITMAP
00
00
00
00
00
70
50
10
1c
12
12
1c
00
00
00
00
ENDCHAR
STARTCHAR CySmlYeru
ENCODING 1099
SWIDTH 960 0
DWIDTH 8 0
BBX 8 16 0 -4
BITMAP
00
00
00
00
00
42
42
42
72
4a
4a
72
00
00
00
00
ENDCHAR
STARTCHAR CySmlSoftsign
ENCODING 1100
SWIDTH 960 0
DWIDTH 8 0
BBX 8 16 0 -4
BITMAP
00
00
00
00
00
20
20
20
3c
22
22
3c
00
00
00
00
ENDCHAR
STARTCHAR CySmlE
ENCODING 1101
SWIDTH 960 0
DWIDTH 8 0
BBX 8 16 0 -4
BITMAP
00
00
00
00
00
38
44
02
1e
02
44
38
00
00
00
00
ENDCHAR
STARTCHAR CySmlYu
ENCODING 1102
SWIDTH 960 0
DWIDTH 8 0
BBX 8 16 0 -4
BITMAP
00
00
40
40
40
44
4a
51
71
51
4a
44
00
00
00
00
ENDCHAR
STARTCHAR CySmlYa
ENCODING 1103
SWIDTH 960 0
DWIDTH 8 0
BBX 8 16 0 -4
BITMAP
00
00
00
00
00
3e
42
42
3e
12
22
42
00
00
00
00
ENDCHAR
STARTCHAR CySmlIeGrave
ENCODING 1104
SWIDTH 960 0
DWIDTH 8 0
BBX 8 16 0 -4
BITMAP
00
10
10
08
00
3c
42
42
7e
40
40
3c
00
00
00
00
ENDCHAR
STARTCHAR CySmlIeDrss
ENCODING 1105
SWIDTH 960 0
DWIDTH 8 0
BBX 8 16 0 -4
BITMAP
00
00
24
24
00
3c
42
42
7e
40
40
3c
00
00
00
00
ENDCHAR
STARTCHAR CySmlDje
ENCODING 1106
SWIDTH 960 0
DWIDTH 8 0
BBX 8 16 0 -4
BITMAP
00
00
40
f8
40
58
64
42
42
42
42
44
04
08
30
00
ENDCHAR
STARTCHAR CySmlGheAcute
ENCODING 1107
SWIDTH 960 0
DWIDTH 8 0
BBX 8 16 0 -4
BITMAP
00
08
08
10
00
7e
40
40
40
40
40
40
00
00
00
00
ENDCHAR
STARTCHAR CySmlIeUkr
ENCODING 1108
SWIDTH 960 0
DWIDTH 8 0
BBX 8 16 0 -4
BITMAP
00
00
00
00
00
1c
22
40
78
40
22
1c
00
00
00
00
ENDCHAR
STARTCHAR CySmlDze
ENCODING 1109
SWIDTH 960 0
DWIDTH 8 0
BBX 8 16 0 -4
BITMAP
00
00
00
00
00
3c
42
40
3c
02
42
3c
00
00
00
00
ENDCHAR
STARTCHAR CySmlIUkr
ENCODING 1110
SWIDTH 960 0
DWIDTH 8 0
BBX 8 16 0 -4
BITMAP
00
00
08
08
00
18
08
08
08
08
08
3e
00
00
00
00
ENDCHAR
STARTCHAR CySmlIUkrDrss
ENCODING 1111
SWIDTH 960 0
DWIDTH 8 0
BBX 8 16 0 -4
BITMAP
00
00
24
24
00
18
08
08
08
08
08
3e
00
00
00
00
ENDCHAR
STARTCHAR CySmlJe
ENCODING 1112
SWIDTH 960 0
DWIDTH 8 0
BBX 8 16 0 -4
BITMAP
00
00
04
04
00
1c
04
04
04
04
04
04
44
44
38
00
ENDCHAR
STARTCHAR CySmlLje
ENCODING 1113
SWIDTH 960 0
DWIDTH 8 0
BBX 8 16 0 -4
BITMAP
00
00
00
00
00
18
28
48
4e
49
49
8e
00
00
00
00
ENDCHAR
STARTCHAR CySmlNje
ENCODING 1114
SWIDTH 960 0
DWIDTH 8 0
BBX 8 16 0 -4
BITMAP
00
00
00
00
00
48
48
48
7e
49
49
4e
00
00
00
00
ENDCHAR
STARTCHAR CySmlTshe
ENCODING 1115
SWIDTH 960 0
DWIDTH 8 0
BBX 8 16 0 -4
BITMAP
00
00
40
f8
40
5c
62
42
42
42
42
42
00
00
00
00
ENDCHAR
STARTCHAR CySmlKaAcute
ENCODING 1116
SWIDTH 960 0
DWIDTH 8 0
BBX 8 16 0 -4
BITMAP
00
08
08
10
00
42
44
48
70
48
44
42
00
00
00
00
ENDCHAR
STARTCHAR CySmlIGrave
ENCODING 1117
SWIDTH 960 0
DWIDTH 8 0
BBX 8 16 0 -4
BITMAP
00
10
10
08
00
42
42
42
42
42
46
3a
00
00
00
00
ENDCHAR
STARTCHAR CySmlUBreve
ENCODING 1118
SWIDTH 960 0
DWIDTH 8 0
BBX 8 16 0 -4
BITMAP
00
00
24
3c
00
42
42
22
24
14
14
08
08
50
20
00
ENDCHAR
STARTCHAR CySmlDzhe
ENCODING 1119
SWIDTH 960 0
DWIDTH 8 0
BBX 8 16 0 -4
BITMAP
00
00
00
00
00
42
42
42
42
42
42
7e
08
08
08
00
ENDCHAR
STARTCHAR CyCapOmega
ENCODING 1120
SWIDTH 960 0
DWIDTH 8 0
BBX 8 16 0 -4
BITMAP
00
00
41
49
49
49
49
49
49
49
36
36
00
00
00
00
ENDCHAR
STARTCHAR CySmlOmega
ENCODING 1121
SWIDTH 960 0
DWIDTH 8 0
BBX 8 16 0 -4
BITMAP
00
00
00
00
00
41
49
49
49
49
36
36
00
00
00
00
ENDCHAR
STARTCHAR CyCapYat
ENCODING 1122
SWIDTH 960 0
DWIDTH 8 0
BBX 8 16 0 -4
BITMAP
00
00
20
20
f8
20
3c
22
22
22
22
3c
00
00
00
00
ENDCHAR
STARTCHAR CySmlYat
ENCODING 1123
SWIDTH 960 0
DWIDTH 8 0
BBX 8 16 0 -4
BITMAP
00
00
10
10
10
7e
10
10
1e
11
11
1e
00
00
00
00
ENDCHAR
STARTCHAR CyCapIE
ENCODING 1124
SWIDTH 960 0
DWIDTH 8 0
BBX 8 16 0 -4
BITMAP
00
00
4c
52
50
50
7c
50
50
50
52
4c
00
00
00
00
ENDCHAR
STARTCHAR CySmlIE
ENCODING 1125
SWIDTH 960 0
DWIDTH 8 0
BBX 8 16 0 -4
BITMAP
00
00
00
00
00
4c
52
50
7c
50
52
4c
00
00
00
00
ENDCHAR
STARTCHAR CyCapLittleyus
ENCODING 1126
SWIDTH 960 0
DWIDTH 8 0
BBX 8 16 0 -4
BITMAP
00
00
08
08
14
14
22
3e
2a
49
49
49
00
00
00
00
ENDCHAR
STARTCHAR CySmlLittleyus
ENCODING 1127
SWIDTH 960 0
DWIDTH 8 0
BBX 8 16 0 -4
BITMAP
00
00
00
00
00
08
14
14
3e
2a
49
49
00
00
00
00
ENDCHAR
STARTCHAR CyCapILittleyus
ENCODING 1128
SWIDTH 960 0
DWIDTH 8 0
BBX 8 16 0 -4
BITMAP
00
00
44
44
44
4a
7a
4e
55
55
55
55
00
00
00
00
ENDCHAR
STARTCHAR CySmlILittleyus
ENCODING 1129
SWIDTH 960 0
DWIDTH 8 0
BBX 8 16 0 -4
BITMAP
00
00
00
00
00
44
44
4a
7e
55
55
55
00
00
00
00
ENDCHAR
STARTCHAR CyCapBigyus
ENCODING 1130
SWIDTH 960 0
DWIDTH 8 0
BBX 8 16 0 -4
BITMAP
00
00
7f
41
22
14
08
1c
2a
49
49
49
00
00
00
00
ENDCHAR
STARTCHAR CySmlBigyus
ENCODING 1131
SWIDTH 960 0
DWIDTH 8 0
BBX 8 16 0 -4
BITMAP
00
00
00
00
00
7f
41
22
1c
2a
49
49
00
00
00
00
ENDCHAR
STARTCHAR CyCapIBigyus
ENCODING 1132
SWIDTH 960 0
DWIDTH 8 0
BBX 8 16 0 -4
BITMAP
00
00
5f
51
51
4a
7e
44
4e
55
55
55
00
00
00
00
ENDCHAR
STARTCHAR CySmlIBigyus
ENCODING 1133
SWIDTH 960 0
DWIDTH 8 0
BBX 8 16 0 -4
BITMAP
00
00
00
00
00
5f
51
4a
7c
4e
55
55
00
00
00
00
ENDCHAR
STARTCHAR CyCapKsi
ENCODING 1134
SWIDTH 960 0
DWIDTH 8 0
BBX 8 16 0 -4
BITMAP
24
18
00
3c
42
02
02
1c
02
02
02
3c
40
3c
02
00
ENDCHAR
STARTCHAR CySmlKsi
ENCODING 1135
SWIDTH 960 0
DWIDTH 8 0
BBX 8 16 0 -4
BITMAP
00
00
24
18
00
3c
42
02
0c
02
02
3c
40
3c
02
00
ENDCHAR
STARTCHAR CyCapPsi
ENCODING 1136
SWIDTH 960 0
DWIDTH 8 0
BBX 8 16 0 -4
BITMAP
00
00
49
49
49
49
49
49
3e
08
08
08
00
00
00
00
ENDCHAR
STARTCHAR CySmlPsi
ENCODING 1137
SWIDTH 960 0
DWIDTH 8 0
BBX 8 16 0 -4
BITMAP
00
00
08
08
08
49
49
49
49
49
2a
1c
08
08
08
00
ENDCHAR
STARTCHAR CyCapFita
ENCODING 1138
SWIDTH 960 0
DWIDTH 8 0
BBX 8 16 0 -4
BITMAP
00
00
3c
42
42
42
7e
42
42
42
42
3c
00
00
00
00
ENDCHAR
STARTCHAR CySmlFita
ENCODING 1139
SWIDTH 960 0
DWIDTH 8 0
BBX 8 16 0 -4
BITMAP
00
00
00
00
00
3c
42
42
7e
42
42
3c
00
00
00
00
ENDCHAR
STARTCHAR CyCapIzhitsa
ENCODING 1140
SWIDTH 960 0
DWIDTH 8 0
BBX 8 16 0 -4
BITMAP
00
00
41
42
22
24
24
14
14
18
08
08
00
00
00
00
ENDCHAR
STARTCHAR CySmlIzhitsa
ENCODING 1141
SWIDTH 960 0
DWIDTH 8 0
BBX 8 16 0 -4
BITMAP
00
00
00
00
00
41
42
22
24
14
18
08
00
00
00
00
ENDCHAR
STARTCHAR CyCapIzhitsaGrave2
ENCODING 1142
SWIDTH 960 0
DWIDTH 8 0
BBX 8 16 0 -4
BITMAP
24
12
00
41
42
22
24
14
14
18
08
08
00
00
00
00
ENDCHAR
STARTCHAR CySmlIzhitsaGrave2
ENCODING 1143
SWIDTH 960 0
DWIDTH 8 0
BBX 8 16 0 -4
BITMAP
00
24
24
12
00
41
42
22
24
14
18
08
00
00
00
00
ENDCHAR
STARTCHAR CyCapOu
ENCODING 1144
SWIDTH 960 0
DWIDTH 8 0
BBX 8 16 0 -4
BITMAP
00
00
20
50
50
55
55
55
55
56
52
22
02
04
04
00
ENDCHAR
STARTCHAR CySmlOu
ENCODING 1145
SWIDTH 960 0
DWIDTH 8 0
BBX 8 16 0 -4
BITMAP
00
00
00
00
00
25
55
55
55
56
52
22
02
04
04
00
ENDCHAR
STARTCHAR CyCapOmegaRound
ENCODING 1146
SWIDTH 960 0
DWIDTH 8 0
BBX 8 16 0 -4
BITMAP
00
08
3e
49
41
41
41
41
41
41
49
3e
08
00
00
00
ENDCHAR
STARTCHAR CySmlOmegaRound
ENCODING 1147
SWIDTH 960 0
DWIDTH 8 0
BBX 8 16 0 -4
BITMAP
00
00
00
00
08
3e
49
41
41
41
49
3e
08
00
00
00
ENDCHAR
STARTCHAR CyCapOmegaOrnate
ENCODING 1148
SWIDTH 960 0
DWIDTH 8 0
BBX 8 16 0 -4
BITMAP
38
47
18
2a
41
41
41
5d
49
49
49
36
00
00
00
00
ENDCHAR
STARTCHAR CySmlOmegaOrnate
ENCODING 1149
SWIDTH 960 0
DWIDTH 8 0
BBX 8 16 0 -4
BITMAP
38
44
5a
49
00
22
41
41
5d
49
49
36
00
00
00
00
ENDCHAR
STARTCHAR CyCapOmegaT
ENCODING 1150
SWIDTH 960 0
DWIDTH 8 0
BBX 8 16 0 -4
BITMAP
3e
2a
00
41
49
49
49
49
49
49
36
36
00
00
00
00
ENDCHAR
STARTCHAR CySmlOmegaT
ENCODING 1151
SWIDTH 960 0
DWIDTH 8 0
BBX 8 16 0 -4
BITMAP
00
3e
2a
00
00
41
49
49
49
49
36
36
00
00
00
00
ENDCHAR
STARTCHAR CyCapKoppa
ENCODING 1152
SWIDTH 960 0
DWIDTH 8 0
BBX 8 16 0 -4
BITMAP
00
00
1c
22
40
40
40
40
40
40
20
1c
04
04
04
00
ENDCHAR
STARTCHAR CySmlKoppa
ENCODING 1153
SWIDTH 960 0
DWIDTH 8 0
BBX 8 16 0 -4
BITMAP
00
00
00
00
00
3c
42
40
40
40
40
3c
04
04
04
00
ENDCHAR
STARTCHAR SCyThousands
ENCODING 1154
SWIDTH 960 0
DWIDTH 8 0
BBX 8 16 0 -4
BITMAP
00
00
02
12
0c
0a
08
10
50
30
48
40
00
00
00
00
ENDCHAR
STARTCHAR CombTitlo
ENCODING 1155
SWIDTH 960 0
DWIDTH 8 0
BBX 8 16 0 -4
BITMAP
00
04
3c
20
00
00
00
00
00
00
00
00
00
00
00
00
ENDCHAR
STARTCHAR CombCyPalat
ENCODING 1156
SWIDTH 960 0
DWIDTH 8 0
BBX 8 16 0 -4
BITMAP
00
00
06
09
00
00
00
00
00
00
00
00
00
00
00
00
ENDCHAR
STARTCHAR CombCyDasia
ENCODING 1157
SWIDTH 960 0
DWIDTH 8 0
BBX 8 16 0 -4
BITMAP
00
18
10
08
00
00
00
00
00
00
00
00
00
00
00
00
ENDCHAR
STARTCHAR CombCyPsili
ENCODING 1158
SWIDTH 960 0
DWIDTH 8 0
BBX 8 16 0 -4
BITMAP
00
18
08
10
00
00
00
00
00
00
00
00
00
00
00
00
ENDCHAR
STARTCHAR CombPokrytie
ENCODING 1159
SWIDTH 960 0
DWIDTH 8 0
BBX 8 16 0 -4
BITMAP
38
44
42
41
00
00
00
00
00
00
00
00
00
00
00
00
ENDCHAR
STARTCHAR CyCapIBreveTail
ENCODING 1162
SWIDTH 960 0
DWIDTH 8 0
BBX 8 16 0 -4
BITMAP
24
3c
00
42
46
4a
4a
52
52
62
42
47
01
02
04
00
ENDCHAR
STARTCHAR CySmlIBreveTail
ENCODING 1163
SWIDTH 960 0
DWIDTH 8 0
BBX 8 16 0 -4
BITMAP
00
00
24
3c
00
42
42
46
4a
52
62
47
01
02
04
00
ENDCHAR
STARTCHAR CyCapSemisoftsign
ENCODING 1164
SWIDTH 960 0
DWIDTH 8 0
BBX 8 16 0 -4
BITMAP
00
00
40
40
f8
40
7c
42
42
42
42
7c
00
00
00
00
ENDCHAR
STARTCHAR CySmlSemisoftsign
ENCODING 1165
SWIDTH 960 0
DWIDTH 8 0
BBX 8 16 0 -4
BITMAP
00
00
00
00
00
20
78
20
3c
22
22
3c
00
00
00
00
ENDCHAR
STARTCHAR CyCapErTick
ENCODING 1166
SWIDTH 960 0
DWIDTH 8 0
BBX 8 16 0 -4
BITMAP
00
00
7c
42
42
4a
44
7a
40
40
40
40
00
00
00
00
ENDCHAR
STARTCHAR CySmlErTick
ENCODING 1167
SWIDTH 960 0
DWIDTH 8 0
BBX 8 16 0 -4
BITMAP
00
00
00
00
00
5c
62
42
42
4a
64
5a
40
40
40
00
ENDCHAR
STARTCHAR CyCapGheUpturn
ENCODING 1168
SWIDTH 960 0
DWIDTH 8 0
BBX 8 16 0 -4
BITMAP
01
01
3f
20
20
20
20
20
20
20
20
20
00
00
00
00
ENDCHAR
STARTCHAR CySmlGheUpturn
ENCODING 1169
SWIDTH 960 0
DWIDTH 8 0
BBX 8 16 0 -4
BITMAP
00
00
00
02
02
7e
40
40
40
40
40
40
00
00
00
00
ENDCHAR
STARTCHAR CyCapGheStroke
ENCODING 1170
SWIDTH 960 0
DWIDTH 8 0
BBX 8 16 0 -4
BITMAP
00
00
3f
20
20
20
78
20
20
20
20
20
00
00
00
00
ENDCHAR
STARTCHAR CySmlGheStroke
ENCODING 1171
SWIDTH 960 0
DWIDTH 8 0
BBX 8 16 0 -4
BITMAP
00
00
00
00
00
3f
20
20
78
20
20
20
00
00
00
00
ENDCHAR
STARTCHAR CyCapGheMhook
ENCODING 1172
SWIDTH 960 0
DWIDTH 8 0
BBX 8 16 0 -4
BITMAP
00
00
7e
40
40
40
78
44
42
42
42
42
02
04
38
00
ENDCHAR
STARTCHAR CySmlGheMhook
ENCODING 1173
SWIDTH 960 0
DWIDTH 8 0
BBX 8 16 0 -4
BITMAP
00
00
00
00
00
7e
40
40
78
44
42
42
02
04
38
00
ENDCHAR
STARTCHAR CyCapZheDesc
ENCODING 1174
SWIDTH 960 0
DWIDTH 8 0
BBX 8 16 0 -4
BITMAP
00
00
49
49
49
2a
1c
2a
49
49
49
49
01
01
01
00
ENDCHAR
STARTCHAR CySmlZheDesc
ENCODING 1175
SWIDTH 960 0
DWIDTH 8 0
BBX 8 16 0 -4
BITMAP
00
00
00
00
00
49
49
2a
3e
49
49
49
01
01
01
00
ENDCHAR
STARTCHAR CyCapZeDesc
ENCODING 1176
SWIDTH 960 0
DWIDTH 8 0
BBX 8 16 0 -4
BITMAP
00
00
38
44
02
04
18
04
02
02
44
38
10
08
10
00
ENDCHAR
STARTCHAR CySmlZeDesc
ENCODING 1177
SWIDTH 960 0
DWIDTH 8 0
BBX 8 16 0 -4
BITMAP
00
00
00
00
00
3c
42
02
0c
02
42
3c
10
08
10
00
ENDCHAR
STARTCHAR CyCapKaDesc
ENCODING 1178
SWIDTH 960 0
DWIDTH 8 0
BBX 8 16 0 -4
BITMAP
00
00
42
42
44
48
50
70
48
44
42
43
01
01
01
00
ENDCHAR
STARTCHAR CySmlKaDesc
ENCODING 1179
SWIDTH 960 0
DWIDTH 8 0
BBX 8 16 0 -4
BITMAP
00
00
00
00
00
42
44
48
70
48
44
46
02
02
02
00
ENDCHAR
STARTCHAR CyCapKaStrokeV
ENCODING 1180
SWIDTH 960 0
DWIDTH 8 0
BBX 8 16 0 -4
BITMAP
00
00
42
42
54
54
78
54
54
42
42
42
00
00
00
00
ENDCHAR
STARTCHAR CySmlKaStrokeV
ENCODING 1181
SWIDTH 960 0
DWIDTH 8 0
BBX 8 16 0 -4
BITMAP
00
00
00
00
00
42
52
54
78
54
52
42
00
00
00
00
ENDCHAR
STARTCHAR CyCapKaStroke
ENCODING 1182
SWIDTH 960 0
DWIDTH 8 0
BBX 8 16 0 -4
BITMAP
00
00
42
f2
44
48
50
70
48
44
42
42
00
00
00
00
ENDCHAR
STARTCHAR CySmlKaStroke
ENCODING 1183
SWIDTH 960 0
DWIDTH 8 0
BBX 8 16 0 -4
BITMAP
00
00
40
f0
40
42
44
48
70
48
44
42
00
00
00
00
ENDCHAR
STARTCHAR CyCapKaBshk
ENCODING 1184
SWIDTH 960 0
DWIDTH 8 0
BBX 8 16 0 -4
BITMAP
00
00
71
11
12
12
14
1c
12
12
11
11
00
00
00
00
ENDCHAR
STARTCHAR CySmlKaBshk
ENCODING 1185
SWIDTH 960 0
DWIDTH 8 0
BBX 8 16 0 -4
BITMAP
00
00
00
00
00
71
11
12
1c
12
11
11
00
00
00
00
ENDCHAR
STARTCHAR CyCapEnDesc
ENCODING 1186
SWIDTH 960 0
DWIDTH 8 0
BBX 8 16 0 -4
BITMAP
00
00
42
42
42
42
7e
42
42
42
42
43
01
01
01
00
ENDCHAR
STARTCHAR CySmlEnDesc
ENCODING 1187
SWIDTH 960 0
DWIDTH 8 0
BBX 8 16 0 -4
BITMAP
00
00
00
00
00
42
42
42
7e
42
42
43
01
01
01
00
ENDCHAR
STARTCHAR CyCapEnGhe
ENCODING 1188
SWIDTH 960 0
DWIDTH 8 0
BBX 8 16 0 -4
BITMAP
00
00
47
44
44
44
7c
44
44
44
44
44
00
00
00
00
ENDCHAR
STARTCHAR CySmlEnGhe
ENCODING 1189
SWIDTH 960 0
DWIDTH 8 0
BBX 8 16 0 -4
BITMAP
00
00
00
00
00
47
44
44
7c
44
44
44
00
00
00
00
ENDCHAR
STARTCHAR CyCapPeMhook
ENCODING 1190
SWIDTH 960 0
DWIDTH 8 0
BBX 8 16 0 -4
BITMAP
00
00
78
48
48
48
4e
49
49
49
49
49
01
01
06
00
ENDCHAR
STARTCHAR CySmlPeMhook
ENCODING 1191
SWIDTH 960 0
DWIDTH 8 0
BBX 8 16 0 -4
BITMAP
00
00
00
00
00
78
48
48
4e
49
49
49
01
01
06
00
ENDCHAR
STARTCHAR CyCapHaAbkh
ENCODING 1192
SWIDTH 960 0
DWIDTH 8 0
BBX 8 16 0 -4
BITMAP
00
00
3c
42
44
4a
4a
4a
4a
4a
46
3d
00
00
00
00
ENDCHAR
STARTCHAR CySmlHaAbkh
ENCODING 1193
SWIDTH 960 0
DWIDTH 8 0
BBX 8 16 0 -4
BITMAP
00
00
00
00
00
3c
42
44
4a
4a
46
3d
00
00
00
00
ENDCHAR
STARTCHAR CyCapEsDesc
ENCODING 1194
SWIDTH 960 0
DWIDTH 8 0
BBX 8 16 0 -4
BITMAP
00
00
1c
22
40
40
40
40
40
40
22
1c
10
08
10
00
ENDCHAR
STARTCHAR CySmlEsDesc
ENCODING 1195
SWIDTH 960 0
DWIDTH 8 0
BBX 8 16 0 -4
BITMAP
00
00
00
00
00
3c
42
40
40
40
42
3c
10
08
10
00
ENDCHAR
STARTCHAR CyCapTeDesc
ENCODING 1196
SWIDTH 960 0
DWIDTH 8 0
BBX 8 16 0 -4
BITMAP
00
00
7f
08
08
08
08
08
08
08
08
0c
04
04
04
00
ENDCHAR
STARTCHAR CySmlTeDesc
ENCODING 1197
SWIDTH 960 0
DWIDTH 8 0
BBX 8 16 0 -4
BITMAP
00
00
00
00
00
7f
08
08
08
08
08
0c
04
04
04
00
ENDCHAR
STARTCHAR CyCapUStrt
ENCODING 1198
SWIDTH 960 0
DWIDTH 8 0
BBX 8 16 0 -4
BITMAP
00
00
41
22
22
14
14
08
08
08
08
08
00
00
00
00
ENDCHAR
STARTCHAR CySmlUStrt
ENCODING 1199
SWIDTH 960 0
DWIDTH 8 0
BBX 8 16 0 -4
BITMAP
00
00
00
00
00
41
22
22
14
14
08
08
08
08
08
00
ENDCHAR
STARTCHAR CyCapUStrtStroke
ENCODING 1200
SWIDTH 960 0
DWIDTH 8 0
BBX 8 16 0 -4
BITMAP
00
00
41
22
22
14
14
08
08
3e
08
08
00
00
00
00
ENDCHAR
STARTCHAR CySmlUStrtStroke
ENCODING 1201
SWIDTH 960 0
DWIDTH 8 0
BBX 8 16 0 -4
BITMAP
00
00
00
00
00
41
22
22
14
14
08
08
3e
08
08
00
ENDCHAR
STARTCHAR CyCapHaDesc
ENCODING 1202
SWIDTH 960 0
DWIDTH 8 0
BBX 8 16 0 -4
BITMAP
00
00
42
42
24
24
18
18
24
24
42
43
01
01
01
00
ENDCHAR
STARTCHAR CySmlHaDesc
ENCODING 1203
SWIDTH 960 0
DWIDTH 8 0
BBX 8 16 0 -4
BITMAP
00
00
00
00
00
42
42
24
18
24
42
43
01
01
01
00
ENDCHAR
STARTCHAR CyCapTeTse
ENCODING 1204
SWIDTH 960 0
DWIDTH 8 0
BBX 8 16 0 -4
BITMAP
00
00
fa
22
22
22
22
22
22
22
22
3f
01
01
01
00
ENDCHAR
STARTCHAR CySmlTeTse
ENCODING 1205
SWIDTH 960 0
DWIDTH 8 0
BBX 8 16 0 -4
BITMAP
00
00
00
00
00
fa
22
22
22
22
22
3f
01
01
01
00
ENDCHAR
STARTCHAR CyCapCheDesc
ENCODING 1206
SWIDTH 960 0
DWIDTH 8 0
BBX 8 16 0 -4
BITMAP
00
00
42
42
42
42
42
3e
02
02
02
03
01
01
01
00
ENDCHAR
STARTCHAR CySmlCheDesc
ENCODING 1207
SWIDTH 960 0
DWIDTH 8 0
BBX 8 16 0 -4
BITMAP
00
00
00
00
00
42
42
42
3e
02
02
03
01
01
01
00
ENDCHAR
STARTCHAR CyCapCheStrokeV
ENCODING 1208
SWIDTH 960 0
DWIDTH 8 0
BBX 8 16 0 -4
BITMAP
00
00
42
42
42
4a
4a
3e
0a
0a
02
02
00
00
00
00
ENDCHAR
STARTCHAR CySmlCheStrokeV
ENCODING 1209
SWIDTH 960 0
DWIDTH 8 0
BBX 8 16 0 -4
BITMAP
00
00
00
00
00
42
4a
4a
3e
0a
0a
02
00
00
00
00
ENDCHAR
STARTCHAR CyCapShha
ENCODING 1210
SWIDTH 960 0
DWIDTH 8 0
BBX 8 16 0 -4
BITMAP
00
00
40
40
40
40
7c
42
42
42
42
42
00
00
00
00
ENDCHAR
STARTCHAR CySmlShha
ENCODING 1211
SWIDTH 960 0
DWIDTH 8 0
BBX 8 16 0 -4
BITMAP
00
00
40
40
40
5c
62
42
42
42
42
42
00
00
00
00
ENDCHAR
STARTCHAR CyCapCheAbkh
ENCODING 1212
SWIDTH 960 0
DWIDTH 8 0
BBX 8 16 0 -4
BITMAP
00
00
26
49
51
51
3f
10
10
10
09
06
00
00
00
00
ENDCHAR
STARTCHAR CySmlCheAbkh
ENCODING 1213
SWIDTH 960 0
DWIDTH 8 0
BBX 8 16 0 -4
BITMAP
00
00
00
00
00
26
49
51
3f
10
09
06
00
00
00
00
ENDCHAR
STARTCHAR CyCapCheAbkhDesc
ENCODING 1214
SWIDTH 960 0
DWIDTH 8 0
BBX 8 16 0 -4
BITMAP
00
00
26
49
51
51
3f
10
10
10
09
06
02
02
02
00
ENDCHAR
STARTCHAR CySmlCheAbkhDesc
ENCODING 1215
SWIDTH 960 0
DWIDTH 8 0
BBX 8 16 0 -4
BITMAP
00
00
00
00
00
26
49
51
3f
10
09
06
02
02
02
00
ENDCHAR
STARTCHAR CyCapPalochka
ENCODING 1216
SWIDTH 960 0
DWIDTH 8 0
BBX 8 16 0 -4
BITMAP
00
00
1c
08
08
08
08
08
08
08
08
1c
00
00
00
00
ENDCHAR
STARTCHAR CyCapZheBreve
ENCODING 1217
SWIDTH 960 0
DWIDTH 8 0
BBX 8 16 0 -4
BITMAP
24
3c
00
49
49
49
2a
1c
2a
49
49
49
00
00
00
00
ENDCHAR
STARTCHAR CySmlZheBreve
ENCODING 1218
SWIDTH 960 0
DWIDTH 8 0
BBX 8 16 0 -4
BITMAP
00
00
24
3c
00
49
49
2a
3e
49
49
49
00
00
00
00
ENDCHAR
STARTCHAR CyCapKaLhook
ENCODING 1219
SWIDTH 960 0
DWIDTH 8 0
BBX 8 16 0 -4
BITMAP
00
00
42
42
44
48
50
70
48
44
42
42
02
04
38
00
ENDCHAR
STARTCHAR CySmlKaLhook
ENCODING 1220
SWIDTH 960 0
DWIDTH 8 0
BBX 8 16 0 -4
BITMAP
00
00
00
00
00
42
44
48
78
44
42
42
02
04
38
00
ENDCHAR
STARTCHAR CyCapElTail
ENCODING 1221
SWIDTH 960 0
DWIDTH 8 0
BBX 8 16 0 -4
BITMAP
00
00
0e
12
22
22
22
22
22
22
22
c7
01
02
04
00
ENDCHAR
STARTCHAR CySmlElTail
ENCODING 1222
SWIDTH 960 0
DWIDTH 8 0
BBX 8 16 0 -4
BITMAP
00
00
00
00
00
0e
12
22
22
22
22
47
01
02
04
00
ENDCHAR
STARTCHAR CyCapEnLhook
ENCODING 1223
SWIDTH 960 0
DWIDTH 8 0
BBX 8 16 0 -4
BITMAP
00
00
42
42
42
42
7e
42
42
42
42
42
02
04
38
00
ENDCHAR
STARTCHAR CySmlEnLhook
ENCODING 1224
SWIDTH 960 0
DWIDTH 8 0
BBX 8 16 0 -4
BITMAP
00
00
00
00
00
42
42
42
7e
42
42
42
02
04
38
00
ENDCHAR
STARTCHAR CyCapEnTail
ENCODING 1225
SWIDTH 960 0
DWIDTH 8 0
BBX 8 16 0 -4
BITMAP
00
00
42
42
42
42
7e
42
42
42
42
47
01
02
04
00
ENDCHAR
STARTCHAR CySmlEnTail
ENCODING 1226
SWIDTH 960 0
DWIDTH 8 0
BBX 8 16 0 -4
BITMAP
00
00
00
00
00
42
42
42
7e
42
42
47
01
02
04
00
ENDCHAR
STARTCHAR CyCapCheKhks
ENCODING 1227
SWIDTH 960 0
DWIDTH 8 0
BBX 8 16 0 -4
BITMAP
00
00
42
42
42
42
42
3e
02
02
02
06
04
04
04
00
ENDCHAR
STARTCHAR CySmlCheKhks
ENCODING 1228
SWIDTH 960 0
DWIDTH 8 0
BBX 8 16 0 -4
BITMAP
00
00
00
00
00
42
42
42
3e
02
02
06
04
04
04
00
ENDCHAR
STARTCHAR CyCapEmTail
ENCODING 1229
SWIDTH 960 0
DWIDTH 8 0
BBX 8 16 0 -4
BITMAP
00
00
41
41
63
55
55
49
49
41
41
43
01
02
04
00
ENDCHAR
STARTCHAR CySmlEmTail
ENCODING 1230
SWIDTH 960 0
DWIDTH 8 0
BBX 8 16 0 -4
BITMAP
00
00
00
00
00
41
63
55
55
49
49
43
01
02
04
00
ENDCHAR
STARTCHAR CySmlPalochka
ENCODING 1231
SWIDTH 960 0
DWIDTH 8 0
BBX 8 16 0 -4
BITMAP
00
00
1c
08
08
08
08
08
08
08
08
1c
00
00
00
00
ENDCHAR
STARTCHAR CyCapABreve
ENCODING 1232
SWIDTH 960 0
DWIDTH 8 0
BBX 8 16 0 -4
BITMAP
24
18
00
18
18
24
24
42
7e
42
42
42
00
00
00
00
ENDCHAR
STARTCHAR CySmlABreve
ENCODING 1233
SWIDTH 960 0
DWIDTH 8 0
BBX 8 16 0 -4
BITMAP
00
00
24
18
00
3c
02
02
3e
42
46
3a
00
00
00
00
ENDCHAR
STARTCHAR CyCapADrss
ENCODING 1234
SWIDTH 960 0
DWIDTH 8 0
BBX 8 16 0 -4
BITMAP
24
24
00
18
18
24
24
42
7e
42
42
42
00
00
00
00
ENDCHAR
STARTCHAR CySmlADrss
ENCODING 1235
SWIDTH 960 0
DWIDTH 8 0
BBX 8 16 0 -4
BITMAP
00
00
24
24
00
3c
02
02
3e
42
46
3a
00
00
00
00
ENDCHAR
STARTCHAR CyCapAIe
ENCODING 1236
SWIDTH 960 0
DWIDTH 8 0
BBX 8 16 0 -4
BITMAP
00
00
1f
18
28
28
2e
48
78
48
88
8f
00
00
00
00
ENDCHAR
STARTCHAR CySmlAIe
ENCODING 1237
SWIDTH 960 0
DWIDTH 8 0
BBX 8 16 0 -4
BITMAP
00
00
00
00
00
76
09
09
3f
48
48
37
00
00
00
00
ENDCHAR
STARTCHAR CyCapIeBreve
ENCODING 1238
SWIDTH 960 0
DWIDTH 8 0
BBX 8 16 0 -4
BITMAP
24
18
00
7e
40
40
40
78
40
40
40
7e
00
00
00
00
ENDCHAR
STARTCHAR CySmlIeBreve
ENCODING 1239
SWIDTH 960 0
DWIDTH 8 0
BBX 8 16 0 -4
BITMAP
00
00
24
18
00
3c
42
42
7e
40
40
3c
00
00
00
00
ENDCHAR
STARTCHAR CyCapSchwa
ENCODING 1240
SWIDTH 960 0
DWIDTH 8 0
BBX 8 16 0 -4
BITMAP
00
00
38
24
02
02
02
7e
42
42
24
18
00
00
00
00
ENDCHAR
STARTCHAR CySmlSchwa
ENCODING 1241
SWIDTH 960 0
DWIDTH 8 0
BBX 8 16 0 -4
BITMAP
00
00
00
00
00
38
04
02
7e
42
24
18
00
00
00
00
ENDCHAR
STARTCHAR CyCapSchwaDrss
ENCODING 1242
SWIDTH 960 0
DWIDTH 8 0
BBX 8 16 0 -4
BITMAP
24
24
00
38
24
02
02
7e
42
42
24
18
00
00
00
00
ENDCHAR
STARTCHAR CySmlSchwaDrss
ENCODING 1243
SWIDTH 960 0
DWIDTH 8 0
BBX 8 16 0 -4
BITMAP
00
00
24
24
00
38
04
02
7e
42
24
18
00
00
00
00
ENDCHAR
STARTCHAR CyCapZheDrss
ENCODING 1244
SWIDTH 960 0
DWIDTH 8 0
BBX 8 16 0 -4
BITMAP
12
12
00
49
49
49
2a
1c
2a
49
49
49
00
00
00
00
ENDCHAR
STARTCHAR CySmlZheDrss
ENCODING 1245
SWIDTH 960 0
DWIDTH 8 0
BBX 8 16 0 -4
BITMAP
00
00
12
12
00
49
49
2a
3e
49
49
49
00
00
00
00
ENDCHAR
STARTCHAR CyCapZeDrss
ENCODING 1246
SWIDTH 960 0
DWIDTH 8 0
BBX 8 16 0 -4
BITMAP
24
24
00
38
44
02
04
18
04
02
44
38
00
00
00
00
ENDCHAR
STARTCHAR CySmlZeDrss
ENCODING 1247
SWIDTH 960 0
DWIDTH 8 0
BBX 8 16 0 -4
BITMAP
00
00
24
24
00
3c
42
02
0c
02
42
3c
00
00
00
00
ENDCHAR
STARTCHAR CyCapDzeAbkh
ENCODING 1248
SWIDTH 960 0
DWIDTH 8 0
BBX 8 16 0 -4
BITMAP
00
00
7e
02
04
08
1c
02
02
02
42
3c
00
00
00
00
ENDCHAR
STARTCHAR CySmlDzeAbkh
ENCODING 1249
SWIDTH 960 0
DWIDTH 8 0
BBX 8 16 0 -4
BITMAP
00
00
00
00
00
7e
02
04
08
1c
02
02
02
42
3c
00
ENDCHAR
STARTCHAR CyCapIMacron
ENCODING 1250
SWIDTH 960 0
DWIDTH 8 0
BBX 8 16 0 -4
BITMAP
3c
00
42
42
46
4a
4a
52
52
62
42
42
00
00
00
00
ENDCHAR
STARTCHAR CySmlIMacron
ENCODING 1251
SWIDTH 960 0
DWIDTH 8 0
BBX 8 16 0 -4
BITMAP
00
00
3c
00
00
42
42
46
4a
52
62
42
00
00
00
00
ENDCHAR
STARTCHAR CyCapIDrss
ENCODING 1252
SWIDTH 960 0
DWIDTH 8 0
BBX 8 16 0 -4
BITMAP
24
24
00
42
46
4a
4a
52
52
62
42
42
00
00
00
00
ENDCHAR
STARTCHAR CySmlIDrss
ENCODING 1253
SWIDTH 960 0
DWIDTH 8 0
BBX 8 16 0 -4
BITMAP
00
00
24
24
00
42
42
46
4a
52
62
42
00
00
00
00
ENDCHAR
STARTCHAR CyCapODrss
ENCODING 1254
SWIDTH 960 0
DWIDTH 8 0
BBX 8 16 0 -4
BITMAP
24
24
00
3c
42
42
42
42
42
42
42
3c
00
00
00
00
ENDCHAR
STARTCHAR CySmlODrss
ENCODING 1255
SWIDTH 960 0
DWIDTH 8 0
BBX 8 16 0 -4
BITMAP
00
00
24
24
00
3c
42
42
42
42
42
3c
00
00
00
00
ENDCHAR
STARTCHAR CyCapOStrokeH
ENCODING 1256
SWIDTH 960 0
DWIDTH 8 0
BBX 8 16 0 -4
BITMAP
00
00
3c
42
42
42
7e
42
42
42
42
3c
00
00
00
00
ENDCHAR
STARTCHAR CySmlOStrokeH
ENCODING 1257
SWIDTH 960 0
DWIDTH 8 0
BBX 8 16 0 -4
BITMAP
00
00
00
00
00
3c
42
42
7e
42
42
3c
00
00
00
00
ENDCHAR
STARTCHAR CyCapOStrokeHDrss
ENCODING 1258
SWIDTH 960 0
DWIDTH 8 0
BBX 8 16 0 -4
BITMAP
24
24
00
3c
42
42
42
7e
42
42
42
3c
00
00
00
00
ENDCHAR
STARTCHAR CySmlOStrokeHDrss
ENCODING 1259
SWIDTH 960 0
DWIDTH 8 0
BBX 8 16 0 -4
BITMAP
00
00
24
24
00
3c
42
42
7e
42
42
3c
00
00
00
00
ENDCHAR
STARTCHAR CyCapEDrss
ENCODING 1260
SWIDTH 960 0
DWIDTH 8 0
BBX 8 16 0 -4
BITMAP
24
24
00
38
44
02
02
3e
02
02
44
38
00
00
00
00
ENDCHAR
STARTCHAR CySmlEDrss
ENCODING 1261
SWIDTH 960 0
DWIDTH 8 0
BBX 8 16 0 -4
BITMAP
00
00
24
24
00
38
44
02
1e
02
44
38
00
00
00
00
ENDCHAR
STARTCHAR CyCapUMacron
ENCODING 1262
SWIDTH 960 0
DWIDTH 8 0
BBX 8 16 0 -4
BITMAP
3c
00
42
42
22
24
14
14
08
08
50
30
00
00
00
00
ENDCHAR
STARTCHAR CySmlUMacron
ENCODING 1263
SWIDTH 960 0
DWIDTH 8 0
BBX 8 16 0 -4
BITMAP
00
00
3c
00
00
42
42
22
24
14
14
08
08
50
20
00
ENDCHAR
STARTCHAR CyCapUDrss
ENCODING 1264
SWIDTH 960 0
DWIDTH 8 0
BBX 8 16 0 -4
BITMAP
24
24
00
42
22
24
14
14
08
08
50
30
00
00
00
00
ENDCHAR
STARTCHAR CySmlUDrss
ENCODING 1265
SWIDTH 960 0
DWIDTH 8 0
BBX 8 16 0 -4
BITMAP
00
00
24
24
00
42
42
22
24
14
14
08
08
50
20
00
ENDCHAR
STARTCHAR CyCapUAcute2
ENCODING 1266
SWIDTH 960 0
DWIDTH 8 0
BBX 8 16 0 -4
BITMAP
12
24
00
42
22
24
14
14
08
08
50
30
00
00
00
00
ENDCHAR
STARTCHAR CySmlUAcute2
ENCODING 1267
SWIDTH 960 0
DWIDTH 8 0
BBX 8 16 0 -4
BITMAP
00
12
12
24
00
42
42
22
24
14
14
08
08
50
20
00
ENDCHAR
STARTCHAR CyCapCheDrss
ENCODING 1268
SWIDTH 960 0
DWIDTH 8 0
BBX 8 16 0 -4
BITMAP
24
24
00
42
42
42
42
3e
02
02
02
02
00
00
00
00
ENDCHAR
STARTCHAR CySmlCheDrss
ENCODING 1269
SWIDTH 960 0
DWIDTH 8 0
BBX 8 16 0 -4
BITMAP
00
00
24
24
00
42
42
42
3e
02
02
02
00
00
00
00
ENDCHAR
STARTCHAR CyCapGheDesc
ENCODING 1270
SWIDTH 960 0
DWIDTH 8 0
BBX 8 16 0 -4
BITMAP
00
00
3f
20
20
20
20
20
20
20
20
30
10
10
10
00
ENDCHAR
STARTCHAR CySmlGheDesc
ENCODING 1271
SWIDTH 960 0
DWIDTH 8 0
BBX 8 16 0 -4
BITMAP
00
00
00
00
00
7e
40
40
40
40
40
60
20
20
20
00
ENDCHAR
STARTCHAR CyCapYeruDrss
ENCODING 1272
SWIDTH 960 0
DWIDTH 8 0
BBX 8 16 0 -4
BITMAP
24
24
00
41
41
41
79
45
45
45
45
79
00
00
00
00
ENDCHAR
STARTCHAR CySmlYeruDrss
ENCODING 1273
SWIDTH 960 0
DWIDTH 8 0
BBX 8 16 0 -4
BITMAP
00
00
24
24
00
42
42
42
72
4a
4a
72
00
00
00
00
ENDCHAR
STARTCHAR CyCapGheStrokeLhook
ENCODING 1274
SWIDTH 960 0
DWIDTH 8 0
BBX 8 16 0 -4
BITMAP
00
00
3f
20
20
20
78
20
20
20
20
38
04
04
18
00
ENDCHAR
STARTCHAR CySmlGheStrokeLhook
ENCODING 1275
SWIDTH 960 0
DWIDTH 8 0
BBX 8 16 0 -4
BITMAP
00
00
00
00
00
3f
20
20
78
20
20
38
04
04
18
00
ENDCHAR
STARTCHAR CyCapHaLhook
ENCODING 1276
SWIDTH 960 0
DWIDTH 8 0
BBX 8 16 0 -4
BITMAP
00
00
42
42
24
24
18
18
24
24
42
42
02
04
18
00
ENDCHAR
STARTCHAR CySmlHaLhook
ENCODING 1277
SWIDTH 960 0
DWIDTH 8 0
BBX 8 16 0 -4
BITMAP
00
00
00
00
00
42
42
24
18
24
42
42
02
04
18
00
ENDCHAR
STARTCHAR CyCapHaStroke
ENCODING 1278
SWIDTH 960 0
DWIDTH 8 0
BBX 8 16 0 -4
BITMAP
00
00
42
42
24
18
7e
18
24
24
42
42
00
00
00
00
ENDCHAR
STARTCHAR CySmlHaStroke
ENCODING 1279
SWIDTH 960 0
DWIDTH 8 0
BBX 8 16 0 -4
BITMAP
00
00
00
00
00
42
24
18
7e
18
24
42
00
00
00
00
ENDCHAR
STARTCHAR CyCapDeKomi
ENCODING 1280
SWIDTH 960 0
DWIDTH 8 0
BBX 8 16 0 -4
BITMAP
00
00
02
02
02
02
3e
42
42
42
42
3e
00
00
00
00
ENDCHAR
STARTCHAR CySmlDeKomi
ENCODING 1281
SWIDTH 960 0
DWIDTH 8 0
BBX 8 16 0 -4
BITMAP
00
00
02
02
02
3a
46
42
42
42
46
3a
00
00
00
00
ENDCHAR
STARTCHAR CyCapDjeKomi
ENCODING 1282
SWIDTH 960 0
DWIDTH 8 0
BBX 8 16 0 -4
BITMAP
00
00
04
04
04
04
3d
45
45
45
45
3e
00
00
00
00
ENDCHAR
STARTCHAR CySmlDjeKomi
ENCODING 1283
SWIDTH 960 0
DWIDTH 8 0
BBX 8 16 0 -4
BITMAP
00
00
04
04
04
34
4c
44
45
45
4d
36
00
00
00
00
ENDCHAR
STARTCHAR CyCapZjeKomi
ENCODING 1284
SWIDTH 960 0
DWIDTH 8 0
BBX 8 16 0 -4
BITMAP
00
00
78
44
04
04
19
05
05
05
05
02
00
00
00
00
ENDCHAR
STARTCHAR CySmlZjeKomi
ENCODING 1285
SWIDTH 960 0
DWIDTH 8 0
BBX 8 16 0 -4
BITMAP
00
00
00
00
00
38
44
04
19
05
05
02
00
00
00
00
ENDCHAR
STARTCHAR CyCapDzjeKomi
ENCODING 1286
SWIDTH 960 0
DWIDTH 8 0
BBX 8 16 0 -4
BITMAP
00
00
38
44
02
04
18
04
02
02
02
03
01
01
01
00
ENDCHAR
STARTCHAR CySmlDzjeKomi
ENCODING 1287
SWIDTH 960 0
DWIDTH 8 0
BBX 8 16 0 -4
BITMAP
00
00
00
00
00
3c
42
02
0c
02
02
03
01
01
01
00
ENDCHAR
STARTCHAR CyCapLjeKomi
ENCODING 1288
SWIDTH 960 0
DWIDTH 8 0
BBX 8 16 0 -4
BITMAP
00
00
1c
24
44
44
45
45
45
45
45
82
00
00
00
00
ENDCHAR
STARTCHAR CySmlLjeKomi
ENCODING 1289
SWIDTH 960 0
DWIDTH 8 0
BBX 8 16 0 -4
BITMAP
00
00
00
00
00
1c
24
44
45
45
45
82
00
00
00
00
ENDCHAR
STARTCHAR CyCapNjeKomi
ENCODING 1290
SWIDTH 960 0
DWIDTH 8 0
BBX 8 16 0 -4
BITMAP
00
00
44
44
44
44
7d
45
45
45
45
42
00
00
00
00
ENDCHAR
STARTCHAR CySmlNjeKomi
ENCODING 1291
SWIDTH 960 0
DWIDTH 8 0
BBX 8 16 0 -4
BITMAP
00
00
00
00
00
44
44
44
7d
45
45
42
00
00
00
00
ENDCHAR
STARTCHAR CyCapSjeKomi
ENCODING 1292
SWIDTH 960 0
DWIDTH 8 0
BBX 8 16 0 -4
BITMAP
00
00
1c
22
40
40
40
42
42
42
22
1c
00
00
00
00
ENDCHAR
STARTCHAR CySmlSjeKomi
ENCODING 1293
SWIDTH 960 0
DWIDTH 8 0
BBX 8 16 0 -4
BITMAP
00
00
00
00
00
3c
40
40
42
42
42
3c
00
00
00
00
ENDCHAR
STARTCHAR CyCapTjeKomi
ENCODING 1294
SWIDTH 960 0
DWIDTH 8 0
BBX 8 16 0 -4
BITMAP
00
00
7f
08
08
08
09
09
09
09
09
06
00
00
00
00
ENDCHAR
STARTCHAR CySmlTjeKomi
ENCODING 1295
SWIDTH 960 0
DWIDTH 8 0
BBX 8 16 0 -4
BITMAP
00
00
00
00
00
7f
08
08
09
09
09
06
00
00
00
00
ENDCHAR
STARTCHAR CyCapZeRev
ENCODING 1296
SWIDTH 960 0
DWIDTH 8 0
BBX 8 16 0 -4
BITMAP
00
00
1c
22
40
20
18
20
40
40
22
1c
00
00
00
00
ENDCHAR
STARTCHAR CySmlZeRev
ENCODING 1297
SWIDTH 960 0
DWIDTH 8 0
BBX 8 16 0 -4
BITMAP
00
00
00
00
00
3c
42
40
30
40
42
3c
00
00
00
00
ENDCHAR
STARTCHAR CyCapElLhook
ENCODING 1298
SWIDTH 960 0
DWIDTH 8 0
BBX 8 16 0 -4
BITMAP
00
00
0e
12
22
22
22
22
22
22
22
c2
02
04
18
00
ENDCHAR
STARTCHAR CySmlElLhook
ENCODING 1299
SWIDTH 960 0
DWIDTH 8 0
BBX 8 16 0 -4
BITMAP
00
00
00
00
00
0e
12
22
22
22
22
42
02
04
18
00
ENDCHAR
STARTCHAR CyCapQa
ENCODING 1306
SWIDTH 960 0
DWIDTH 8 0
BBX 8 16 0 -4
BITMAP
00
00
3c
42
42
42
42
42
42
4a
46
3c
03
00
00
00
ENDCHAR
STARTCHAR CySmlQa
ENCODING 1307
SWIDTH 960 0
DWIDTH 8 0
BBX 8 16 0 -4
BITMAP
00
00
00
00
00
3a
46
42
42
42
46
3a
02
02
02
00
ENDCHAR
STARTCHAR CyCapWe
ENCODING 1308
SWIDTH 960 0
DWIDTH 8 0
BBX 8 16 0 -4
BITMAP
00
00
41
41
49
49
49
55
55
22
22
22
00
00
00
00
ENDCHAR
STARTCHAR CySmlWe
ENCODING 1309
SWIDTH 960 0
DWIDTH 8 0
BBX 8 16 0 -4
BITMAP
00
00
00
00
00
41
49
49
49
36
22
22
00
00
00
00
ENDCHAR
STARTCHAR CyCapPeDesc
ENCODING 1316
SWIDTH 960 0
DWIDTH 8 0
BBX 8 16 0 -4
BITMAP
00
00
7e
42
42
42
42
42
42
42
42
43
01
01
01
00
ENDCHAR
STARTCHAR CySmlPeDesc
ENCODING 1317
SWIDTH 960 0
DWIDTH 8 0
BBX 8 16 0 -4
BITMAP
00
00
00
00
00
7e
42
42
42
42
42
43
01
01
01
00
ENDCHAR
STARTCHAR CyCapShhaDesc
ENCODING 1318
SWIDTH 960 0
DWIDTH 8 0
BBX 8 16 0 -4
BITMAP
00
00
40
40
40
40
7c
42
42
42
42
43
01
01
01
00
ENDCHAR
STARTCHAR CySmlShhaDesc
ENCODING 1319
SWIDTH 960 0
DWIDTH 8 0
BBX 8 16 0 -4
BITMAP
00
00
40
40
40
5c
62
42
42
42
42
43
01
01
01
00
ENDCHAR
STARTCHAR AmCapAyb
ENCODING 1329
SWIDTH 960 0
DWIDTH 8 0
BBX 8 16 0 -4
BITMAP
00
00
44
44
44
44
44
44
44
4e
45
39
00
00
00
00
ENDCHAR
STARTCHAR AmCapBen
ENCODING 1330
SWIDTH 960 0
DWIDTH 8 0
BBX 8 16 0 -4
BITMAP
00
00
3c
42
42
42
40
40
7e
40
40
40
00
00
00
00
ENDCHAR
STARTCHAR AmCapGim
ENCODING 1331
SWIDTH 960 0
DWIDTH 8 0
BBX 8 16 0 -4
BITMAP
00
00
38
44
44
44
44
44
3f
04
04
04
00
00
00
00
ENDCHAR
STARTCHAR AmCapDa
ENCODING 1332
SWIDTH 960 0
DWIDTH 8 0
BBX 8 16 0 -4
BITMAP
00
00
38
44
44
44
44
04
07
04
04
04
00
00
00
00
ENDCHAR
STARTCHAR AmCapEch
ENCODING 1333
SWIDTH 960 0
DWIDTH 8 0
BBX 8 16 0 -4
BITMAP
00
00
40
40
40
7e
40
40
40
42
42
3c
00
00
00
00
ENDCHAR
STARTCHAR AmCapZa
ENCODING 1334
SWIDTH 960 0
DWIDTH 8 0
BBX 8 16 0 -4
BITMAP
00
00
38
44
44
44
38
08
08
50
7c
42
00
00
00
00
ENDCHAR
STARTCHAR AmCapEh
ENCODING 1335
SWIDTH 960 0
DWIDTH 8 0
BBX 8 16 0 -4
BITMAP
00
00
40
40
40
7e
40
40
40
40
40
7c
00
00
00
00
ENDCHAR
STARTCHAR AmCapEt
ENCODING 1336
SWIDTH 960 0
DWIDTH 8 0
BBX 8 16 0 -4
BITMAP
00
00
3c
42
42
42
42
40
40
40
40
7e
00
00
00
00
ENDCHAR
STARTCHAR AmCapTo
ENCODING 1337
SWIDTH 960 0
DWIDTH 8 0
BBX 8 16 0 -4
BITMAP
00
00
3c
42
42
4f
52
52
4c
40
40
40
00
00
00
00
ENDCHAR
STARTCHAR AmCapZhe
ENCODING 1338
SWIDTH 960 0
DWIDTH 8 0
BBX 8 16 0 -4
BITMAP
00
00
02
02
02
3f
42
42
42
42
42
3c
00
00
00
00
ENDCHAR
STARTCHAR AmCapIni
ENCODING 1339
SWIDTH 960 0
DWIDTH 8 0
BBX 8 16 0 -4
BITMAP
00
00
40
40
40
7c
42
42
42
40
40
40
00
00
00
00
ENDCHAR
STARTCHAR AmCapLiwn
ENCODING 1340
SWIDTH 960 0
DWIDTH 8 0
BBX 8 16 0 -4
BITMAP
00
00
40
40
40
40
40
40
40
40
40
7e
00
00
00
00
ENDCHAR
STARTCHAR AmCapXeh
ENCODING 1341
SWIDTH 960 0
DWIDTH 8 0
BBX 8 16 0 -4
BITMAP
00
00
40
40
40
72
52
52
52
52
52
4c
00
00
00
00
ENDCHAR
STARTCHAR AmCapCa
ENCODING 1342
SWIDTH 960 0
DWIDTH 8 0
BBX 8 16 0 -4
BITMAP
00
00
46
38
24
42
42
42
42
42
24
18
00
00
00
00
ENDCHAR
STARTCHAR AmCapKen
ENCODING 1343
SWIDTH 960 0
DWIDTH 8 0
BBX 8 16 0 -4
BITMAP
00
00
40
40
40
42
42
42
3e
02
02
02
00
00
00
00
ENDCHAR
STARTCHAR AmCapHo
ENCODING 1344
SWIDTH 960 0
DWIDTH 8 0
BBX 8 16 0 -4
BITMAP
00
00
08
10
18
08
10
20
40
60
18
06
00
00
00
00
ENDCHAR
STARTCHAR AmCapJa
ENCODING 1345
SWIDTH 960 0
DWIDTH 8 0
BBX 8 16 0 -4
BITMAP
00
00
38
44
42
02
02
04
34
48
4c
32
00
00
00
00
ENDCHAR
STARTCHAR AmCapGhad
ENCODING 1346
SWIDTH 960 0
DWIDTH 8 0
BBX 8 16 0 -4
BITMAP
00
00
38
44
44
44
04
04
04
04
04
07
00
00
00
00
ENDCHAR
STARTCHAR AmCapCheh
ENCODING 1347
SWIDTH 960 0
DWIDTH 8 0
BBX 8 16 0 -4
BITMAP
00
00
66
18
18
24
24
42
42
42
42
7e
00
00
00
00
ENDCHAR
STARTCHAR AmCapMen
ENCODING 1348
SWIDTH 960 0
DWIDTH 8 0
BBX 8 16 0 -4
BITMAP
00
00
46
45
45
44
44
44
44
44
44
38
00
00
00
00
ENDCHAR
STARTCHAR AmCapYi
ENCODING 1349
SWIDTH 960 0
DWIDTH 8 0
BBX 8 16 0 -4
BITMAP
00
00
18
24
04
04
78
04
02
02
44
38
00
00
00
00
ENDCHAR
STARTCHAR AmCapNow
ENCODING 1350
SWIDTH 960 0
DWIDTH 8 0
BBX 8 16 0 -4
BITMAP
00
00
60
20
20
20
20
22
22
22
22
1c
00
00
00
00
ENDCHAR
STARTCHAR AmCapSha
ENCODING 1351
SWIDTH 960 0
DWIDTH 8 0
BBX 8 16 0 -4
BITMAP
00
00
60
18
26
40
40
40
40
40
22
1c
00
00
00
00
ENDCHAR
STARTCHAR AmCapVo
ENCODING 1352
SWIDTH 960 0
DWIDTH 8 0
BBX 8 16 0 -4
BITMAP
00
00
3c
42
42
42
42
42
42
42
42
42
00
00
00
00
ENDCHAR
STARTCHAR AmCapCha
ENCODING 1353
SWIDTH 960 0
DWIDTH 8 0
BBX 8 16 0 -4
BITMAP
00
00
38
44
02
02
02
02
44
38
0c
02
00
00
00
00
ENDCHAR
STARTCHAR AmCapPeh
ENCODING 1354
SWIDTH 960 0
DWIDTH 8 0
BBX 8 16 0 -4
BITMAP
00
00
3e
49
49
49
09
09
09
01
01
01
00
00
00
00
ENDCHAR
STARTCHAR AmCapJheh
ENCODING 1355
SWIDTH 960 0
DWIDTH 8 0
BBX 8 16 0 -4
BITMAP
00
00
38
44
42
22
12
0a
0c
48
7c
42
00
00
00
00
ENDCHAR
STARTCHAR AmCapRa
ENCODING 1356
SWIDTH 960 0
DWIDTH 8 0
BBX 8 16 0 -4
BITMAP
00
00
38
44
44
44
44
44
47
44
44
44
00
00
00
00
ENDCHAR
STARTCHAR AmCapSeh
ENCODING 1357
SWIDTH 960 0
DWIDTH 8 0
BBX 8 16 0 -4
BITMAP
00
00
42
42
42
42
42
42
42
42
42
3c
00
00
00
00
ENDCHAR
STARTCHAR AmCapVew
ENCODING 1358
SWIDTH 960 0
DWIDTH 8 0
BBX 8 16 0 -4
BITMAP
00
00
04
04
04
44
44
44
3c
04
04
06
00
00
00
00
ENDCHAR
STARTCHAR AmCapTiwn
ENCODING 1359
SWIDTH 960 0
DWIDTH 8 0
BBX 8 16 0 -4
BITMAP
00
00
3c
42
42
20
10
08
04
42
42
3c
00
00
00
00
ENDCHAR
STARTCHAR AmCapReh
ENCODING 1360
SWIDTH 960 0
DWIDTH 8 0
BBX 8 16 0 -4
BITMAP
00
00
3c
42
42
42
42
40
40
40
40
40
00
00
00
00
ENDCHAR
STARTCHAR AmCapCo
ENCODING 1361
SWIDTH 960 0
DWIDTH 8 0
BBX 8 16 0 -4
BITMAP
00
00
38
44
44
24
38
44
02
02
44
38
00
00
00
00
ENDCHAR
STARTCHAR AmCapYiwn
ENCODING 1362
SWIDTH 960 0
DWIDTH 8 0
BBX 8 16 0 -4
BITMAP
00
00
20
20
20
3e
20
20
20
20
20
20
00
00
00
00
ENDCHAR
STARTCHAR AmCapPiwr
ENCODING 1363
SWIDTH 960 0
DWIDTH 8 0
BBX 8 16 0 -4
BITMAP
00
00
08
1c
2a
49
49
49
49
2a
1c
08
00
00
00
00
ENDCHAR
STARTCHAR AmCapKeh
ENCODING 1364
SWIDTH 960 0
DWIDTH 8 0
BBX 8 16 0 -4
BITMAP
00
00
1c
22
22
22
22
3c
20
7c
20
20
00
00
00
00
ENDCHAR
STARTCHAR AmCapOh
ENCODING 1365
SWIDTH 960 0
DWIDTH 8 0
BBX 8 16 0 -4
BITMAP
00
00
3c
42
42
42
42
42
42
42
42
3c
00
00
00
00
ENDCHAR
STARTCHAR AmCapFeh
ENCODING 1366
SWIDTH 960 0
DWIDTH 8 0
BBX 8 16 0 -4
BITMAP
00
00
18
28
28
1c
0a
09
09
49
4a
3c
00
00
00
00
ENDCHAR
STARTCHAR AccAmRingHalfL
ENCODING 1369
SWIDTH 960 0
DWIDTH 8 0
BBX 8 16 0 -4
BITMAP
00
18
20
20
18
00
00
00
00
00
00
00
00
00
00
00
ENDCHAR
STARTCHAR PAmApostrophe
ENCODING 1370
SWIDTH 960 0
DWIDTH 8 0
BBX 8 16 0 -4
BITMAP
00
10
18
08
10
00
00
00
00
00
00
00
00
00
00
00
ENDCHAR
STARTCHAR AccAmEmphasis
ENCODING 1371
SWIDTH 960 0
DWIDTH 8 0
BBX 8 16 0 -4
BITMAP
00
04
08
10
00
00
00
00
00
00
00
00
00
00
00
00
ENDCHAR
STARTCHAR AccAmExclam
ENCODING 1372
SWIDTH 960 0
DWIDTH 8 0
BBX 8 16 0 -4
BITMAP
00
02
1c
20
00
00
00
00
00
00
00
00
00
00
00
00
ENDCHAR
STARTCHAR PAmComma
ENCODING 1373
SWIDTH 960 0
DWIDTH 8 0
BBX 8 16 0 -4
BITMAP
00
10
18
08
04
00
00
00
00
00
00
00
00
00
00
00
ENDCHAR
STARTCHAR AccAmQuestion
ENCODING 1374
SWIDTH 960 0
DWIDTH 8 0
BBX 8 16 0 -4
BITMAP
00
1c
22
2a
2c
00
00
00
00
00
00
00
00
00
00
00
ENDCHAR
STARTCHAR AccAmAbbrev
ENCODING 1375
SWIDTH 960 0
DWIDTH 8 0
BBX 8 16 0 -4
BITMAP
00
18
20
20
1e
00
00
00
00
00
00
00
00
00
00
00
ENDCHAR
STARTCHAR AmSmlAyb
ENCODING 1377
SWIDTH 960 0
DWIDTH 8 0
BBX 8 16 0 -4
BITMAP
00
00
00
00
00
00
49
49
49
49
49
3f
00
00
00
00
ENDCHAR
STARTCHAR AmSmlBen
ENCODING 1378
SWIDTH 960 0
DWIDTH 8 0
BBX 8 16 0 -4
BITMAP
00
00
00
00
00
00
3c
22
22
20
20
3e
20
20
20
20
ENDCHAR
STARTCHAR AmSmlGim
ENCODING 1379
SWIDTH 960 0
DWIDTH 8 0
BBX 8 16 0 -4
BITMAP
00
00
00
00
00
00
3c
44
44
44
44
3f
04
04
04
04
ENDCHAR
STARTCHAR AmSmlDa
ENCODING 1380
SWIDTH 960 0
DWIDTH 8 0
BBX 8 16 0 -4
BITMAP
00
00
00
00
00
00
78
44
44
44
44
47
04
04
04
04
ENDCHAR
STARTCHAR AmSmlEch
ENCODING 1381
SWIDTH 960 0
DWIDTH 8 0
BBX 8 16 0 -4
BITMAP
00
00
20
20
20
20
3e
20
20
22
22
1e
00
00
00
00
ENDCHAR
STARTCHAR AmSmlZa
ENCODING 1382
SWIDTH 960 0
DWIDTH 8 0
BBX 8 16 0 -4
BITMAP
00
00
00
00
00
00
1e
22
22
22
22
1e
02
02
02
03
ENDCHAR
STARTCHAR AmSmlEh
ENCODING 1383
SWIDTH 960 0
DWIDTH 8 0
BBX 8 16 0 -4
BITMAP
00
00
20
20
20
20
3e
20
20
20
20
1c
02
04
00
00
ENDCHAR
STARTCHAR AmSmlEt
ENCODING 1384
SWIDTH 960 0
DWIDTH 8 0
BBX 8 16 0 -4
BITMAP
00
00
00
00
00
00
3c
22
22
22
22
22
20
20
20
3e
ENDCHAR
STARTCHAR AmSmlTo
ENCODING 1385
SWIDTH 960 0
DWIDTH 8 0
BBX 8 16 0 -4
BITMAP
00
00
3c
22
22
22
27
2a
2a
2a
2a
24
20
20
20
20
ENDCHAR
STARTCHAR AmSmlZhe
ENCODING 1386
SWIDTH 960 0
DWIDTH 8 0
BBX 8 16 0 -4
BITMAP
00
00
02
02
02
02
1f
22
22
22
22
1c
00
00
00
00
ENDCHAR
STARTCHAR AmSmlIni
ENCODING 1387
SWIDTH 960 0
DWIDTH 8 0
BBX 8 16 0 -4
BITMAP
00
00
20
20
20
20
3c
22
22
22
22
22
20
20
20
20
ENDCHAR
STARTCHAR AmSmlLiwn
ENCODING 1388
SWIDTH 960 0
DWIDTH 8 0
BBX 8 16 0 -4
BITMAP
00
00
00
00
00
00
18
08
08
08
08
08
08
08
08
0f
ENDCHAR
STARTCHAR AmSmlXeh
ENCODING 1389
SWIDTH 960 0
DWIDTH 8 0
BBX 8 16 0 -4
BITMAP
00
00
40
40
40
40
79
49
49
49
49
47
40
40
40
40
ENDCHAR
STARTCHAR AmSmlCa
ENCODING 1390
SWIDTH 960 0
DWIDTH 8 0
BBX 8 16 0 -4
BITMAP
00
00
20
20
10
08
0f
14
22
22
22
1c
00
00
00
00
ENDCHAR
STARTCHAR AmSmlKen
ENCODING 1391
SWIDTH 960 0
DWIDTH 8 0
BBX 8 16 0 -4
BITMAP
00
00
20
20
20
20
22
22
22
22
22
1e
02
02
02
02
ENDCHAR
STARTCHAR AmSmlHo
ENCODING 1392
SWIDTH 960 0
DWIDTH 8 0
BBX 8 16 0 -4
BITMAP
00
00
0c
14
10
20
20
60
18
06
02
02
00
00
00
00
ENDCHAR
STARTCHAR AmSmlJa
ENCODING 1393
SWIDTH 960 0
DWIDTH 8 0
BBX 8 16 0 -4
BITMAP
00
00
04
08
04
04
08
14
22
22
22
1e
00
00
00
00
ENDCHAR
STARTCHAR AmSmlGhad
ENCODING 1394
SWIDTH 960 0
DWIDTH 8 0
BBX 8 16 0 -4
BITMAP
00
00
00
00
00
00
3c
22
22
22
22
22
02
02
02
03
ENDCHAR
STARTCHAR AmSmlCheh
ENCODING 1395
SWIDTH 960 0
DWIDTH 8 0
BBX 8 16 0 -4
BITMAP
00
00
02
04
08
08
38
14
22
22
22
3e
00
00
00
00
ENDCHAR
STARTCHAR AmSmlMen
ENCODING 1396
SWIDTH 960 0
DWIDTH 8 0
BBX 8 16 0 -4
BITMAP
00
00
06
0a
04
02
22
22
22
22
22
1e
00
00
00
00
ENDCHAR
STARTCHAR AmSmlYi
ENCODING 1397
SWIDTH 960 0
DWIDTH 8 0
BBX 8 16 0 -4
BITMAP
00
00
00
00
00
00
18
08
08
08
08
08
08
08
08
70
ENDCHAR
STARTCHAR AmSmlNow
ENCODING 1398
SWIDTH 960 0
DWIDTH 8 0
BBX 8 16 0 -4
BITMAP
00
00
60
80
40
20
22
22
22
22
22
1e
00
00
00
00
ENDCHAR
STARTCHAR AmSmlSha
ENCODING 1399
SWIDTH 960 0
DWIDTH 8 0
BBX 8 16 0 -4
BITMAP
00
00
00
00
00
00
1c
22
02
02
04
08
10
20
20
1e
ENDCHAR
STARTCHAR AmSmlVo
ENCODING 1400
SWIDTH 960 0
DWIDTH 8 0
BBX 8 16 0 -4
BITMAP
00
00
00
00
00
00
3c
22
22
22
22
22
00
00
00
00
ENDCHAR
STARTCHAR AmSmlCha
ENCODING 1401
SWIDTH 960 0
DWIDTH 8 0
BBX 8 16 0 -4
BITMAP
00
00
00
00
00
00
08
10
10
08
04
08
10
20
20
1e
ENDCHAR
STARTCHAR AmSmlPeh
ENCODING 1402
SWIDTH 960 0
DWIDTH 8 0
BBX 8 16 0 -4
BITMAP
00
00
00
00
00
00
49
49
49
49
49
37
01
01
01
01
ENDCHAR
STARTCHAR AmSmlJheh
ENCODING 1403
SWIDTH 960 0
DWIDTH 8 0
BBX 8 16 0 -4
BITMAP
00
00
08
14
22
22
22
22
22
14
08
08
10
20
20
1e
ENDCHAR
STARTCHAR AmSmlRa
ENCODING 1404
SWIDTH 960 0
DWIDTH 8 0
BBX 8 16 0 -4
BITMAP
00
00
00
00
00
00
78
44
44
44
44
47
00
00
00
00
ENDCHAR
STARTCHAR AmSmlSeh
ENCODING 1405
SWIDTH 960 0
DWIDTH 8 0
BBX 8 16 0 -4
BITMAP
00
00
00
00
00
00
22
22
22
22
22
1e
00
00
00
00
ENDCHAR
STARTCHAR AmSmlVew
ENCODING 1406
SWIDTH 960 0
DWIDTH 8 0
BBX 8 16 0 -4
BITMAP
00
00
02
02
02
02
22
22
22
22
22
1e
02
02
02
03
ENDCHAR
STARTCHAR AmSmlTiwn
ENCODING 1407
SWIDTH 960 0
DWIDTH 8 0
BBX 8 16 0 -4
BITMAP
00
00
00
00
00
00
4e
49
49
49
49
39
00
00
00
00
ENDCHAR
STARTCHAR AmSmlReh
ENCODING 1408
SWIDTH 960 0
DWIDTH 8 0
BBX 8 16 0 -4
BITMAP
00
00
00
00
00
00
3c
22
22
22
22
22
20
20
20
20
ENDCHAR
STARTCHAR AmSmlCo
ENCODING 1409
SWIDTH 960 0
DWIDTH 8 0
BBX 8 16 0 -4
BITMAP
00
00
00
00
00
00
1e
22
22
22
22
1e
02
02
22
1c
ENDCHAR
STARTCHAR AmSmlYiwn
ENCODING 1410
SWIDTH 960 0
DWIDTH 8 0
BBX 8 16 0 -4
BITMAP
00
00
00
00
00
00
30
10
10
10
10
1e
00
00
00
00
ENDCHAR
STARTCHAR AmSmlPiwr
ENCODING 1411
SWIDTH 960 0
DWIDTH 8 0
BBX 8 16 0 -4
BITMAP
00
00
08
08
08
08
4e
49
49
49
49
39
08
08
08
08
ENDCHAR
STARTCHAR AmSmlKeh
ENCODING 1412
SWIDTH 960 0
DWIDTH 8 0
BBX 8 16 0 -4
BITMAP
00
00
00
00
00
00
3c
22
22
22
22
3c
20
20
7e
20
ENDCHAR
STARTCHAR AmSmlOh
ENCODING 1413
SWIDTH 960 0
DWIDTH 8 0
BBX 8 16 0 -4
BITMAP
00
00
00
00
00
00
1c
22
22
22
22
1c
00
00
00
00
ENDCHAR
STARTCHAR AmSmlFeh
ENCODING 1414
SWIDTH 960 0
DWIDTH 8 0
BBX 8 16 0 -4
BITMAP
00
00
18
28
28
28
1c
0a
0a
2a
2a
1c
08
08
08
08
ENDCHAR
STARTCHAR AmSmlEchYiwn
ENCODING 1415
SWIDTH 960 0
DWIDTH 8 0
BBX 8 16 0 -4
BITMAP
00
00
20
20
20
20
22
22
22
22
22
1f
00
00
00
00
ENDCHAR
STARTCHAR PAmFullStop
ENCODING 1417
SWIDTH 960 0
DWIDTH 8 0
BBX 8 16 0 -4
BITMAP
00
00
00
00
00
00
18
18
00
00
18
18
00
00
00
00
ENDCHAR
STARTCHAR PAmHyphen
ENCODING 1418
SWIDTH 960 0
DWIDTH 8 0
BBX 8 16 0 -4
BITMAP
00
00
00
00
00
00
00
32
1c
00
00
00
00
00
00
00
ENDCHAR
STARTCHAR CurrDram
ENCODING 1423
SWIDTH 960 0
DWIDTH 8 0
BBX 8 16 0 -4
BITMAP
00
00
38
44
44
44
1f
04
1f
04
04
04
00
00
00
00
ENDCHAR
STARTCHAR CombHbSheva
ENCODING 1456
SWIDTH 960 0
DWIDTH 8 0
BBX 8 16 0 -4
BITMAP
00
00
00
00
00
00
00
00
00
00
00
00
00
18
00
18
ENDCHAR
STARTCHAR CombHbHatafSegol
ENCODING 1457
SWIDTH 960 0
DWIDTH 8 0
BBX 8 16 0 -4
BITMAP
00
00
00
00
00
00
00
00
00
00
00
00
00
8e
a8
26
ENDCHAR
STARTCHAR CombHbHatafPatah
ENCODING 1458
SWIDTH 960 0
DWIDTH 8 0
BBX 8 16 0 -4
BITMAP
00
00
00
00
00
00
00
00
00
00
00
00
00
06
f0
06
ENDCHAR
STARTCHAR CombHbHatafQamats
ENCODING 1459
SWIDTH 960 0
DWIDTH 8 0
BBX 8 16 0 -4
BITMAP
00
00
00
00
00
00
00
00
00
00
00
00
00
76
20
26
ENDCHAR
STARTCHAR CombHbHiriq
ENCODING 1460
SWIDTH 960 0
DWIDTH 8 0
BBX 8 16 0 -4
BITMAP
00
00
00
00
00
00
00
00
00
00
00
00
00
10
10
00
ENDCHAR
STARTCHAR CombHbTsere
ENCODING 1461
SWIDTH 960 0
DWIDTH 8 0
BBX 8 16 0 -4
BITMAP
00
00
00
00
00
00
00
00
00
00
00
00
00
24
24
00
ENDCHAR
STARTCHAR CombHbSegol
ENCODING 1462
SWIDTH 960 0
DWIDTH 8 0
BBX 8 16 0 -4
BITMAP
00
00
00
00
00
00
00
00
00
00
00
00
00
66
00
18
ENDCHAR
STARTCHAR CombHbPatah
ENCODING 1463
SWIDTH 960 0
DWIDTH 8 0
BBX 8 16 0 -4
BITMAP
00
00
00
00
00
00
00
00
00
00
00
00
00
3c
00
00
ENDCHAR
STARTCHAR CombHbQamats
ENCODING 1464
SWIDTH 960 0
DWIDTH 8 0
BBX 8 16 0 -4
BITMAP
00
00
00
00
00
00
00
00
00
00
00
00
00
38
10
10
ENDCHAR
STARTCHAR CombHbHolam
ENCODING 1465
SWIDTH 960 0
DWIDTH 8 0
BBX 8 16 0 -4
BITMAP
00
20
20
00
00
00
00
00
00
00
00
00
00
00
00
00
ENDCHAR
STARTCHAR CombHbQubuts
ENCODING 1467
SWIDTH 960 0
DWIDTH 8 0
BBX 8 16 0 -4
BITMAP
00
00
00
00
00
00
00
00
00
00
00
00
00
60
18
06
ENDCHAR
STARTCHAR CombHbDagesh
ENCODING 1468
SWIDTH 960 0
DWIDTH 8 0
BBX 8 16 0 -4
BITMAP
00
00
00
00
00
00
00
10
10
00
00
00
00
00
00
00
ENDCHAR
STARTCHAR CombHbMeteg
ENCODING 1469
SWIDTH 960 0
DWIDTH 8 0
BBX 8 16 0 -4
BITMAP
00
00
00
00
00
00
00
00
00
00
00
00
00
10
10
10
ENDCHAR
STARTCHAR PHbMaqaf
ENCODING 1470
SWIDTH 960 0
DWIDTH 8 0
BBX 8 16 0 -4
BITMAP
00
00
00
00
7c
00
00
00
00
00
00
00
00
00
00
00
ENDCHAR
STARTCHAR CombHbRafe
ENCODING 1471
SWIDTH 960 0
DWIDTH 8 0
BBX 8 16 0 -4
BITMAP
00
00
78
00
00
00
00
00
00
00
00
00
00
00
00
00
ENDCHAR
STARTCHAR PHbPaseq
ENCODING 1472
SWIDTH 960 0
DWIDTH 8 0
BBX 8 16 0 -4
BITMAP
00
00
00
00
10
10
10
10
10
10
10
10
00
00
00
00
ENDCHAR
STARTCHAR CombHbDotShin
ENCODING 1473
SWIDTH 960 0
DWIDTH 8 0
BBX 8 16 0 -4
BITMAP
00
02
02
00
00
00
00
00
00
00
00
00
00
00
00
00
ENDCHAR
STARTCHAR CombHbDotSin
ENCODING 1474
SWIDTH 960 0
DWIDTH 8 0
BBX 8 16 0 -4
BITMAP
00
80
80
00
00
00
00
00
00
00
00
00
00
00
00
00
ENDCHAR
STARTCHAR PHbSofPasuq
ENCODING 1475
SWIDTH 960 0
DWIDTH 8 0
BBX 8 16 0 -4
BITMAP
00
00
00
00
00
00
18
18
00
00
18
18
00
00
00
00
ENDCHAR
STARTCHAR CombHbUpperDot
ENCODING 1476
SWIDTH 960 0
DWIDTH 8 0
BBX 8 16 0 -4
BITMAP
00
10
10
00
00
00
00
00
00
00
00
00
00
00
00
00
ENDCHAR
STARTCHAR HbAlef
ENCODING 1488
SWIDTH 960 0
DWIDTH 8 0
BBX 8 16 0 -4
BITMAP
00
00
00
00
44
42
24
34
48
44
42
62
00
00
00
00
ENDCHAR
STARTCHAR HbBet
ENCODING 1489
SWIDTH 960 0
DWIDTH 8 0
BBX 8 16 0 -4
BITMAP
00
00
00
00
78
04
04
04
04
04
04
7e
00
00
00
00
ENDCHAR
STARTCHAR HbGimel
ENCODING 1490
SWIDTH 960 0
DWIDTH 8 0
BBX 8 16 0 -4
BITMAP
00
00
00
00
30
08
08
08
08
08
34
44
00
00
00
00
ENDCHAR
STARTCHAR HbDalet
ENCODING 1491
SWIDTH 960 0
DWIDTH 8 0
BBX 8 16 0 -4
BITMAP
00
00
00
00
7e
04
04
04
04
04
04
04
00
00
00
00
ENDCHAR
STARTCHAR HbHe
ENCODING 1492
SWIDTH 960 0
DWIDTH 8 0
BBX 8 16 0 -4
BITMAP
00
00
00
00
fe
02
02
42
42
42
42
42
00
00
00
00
ENDCHAR
STARTCHAR HbVav
ENCODING 1493
SWIDTH 960 0
DWIDTH 8 0
BBX 8 16 0 -4
BITMAP
00
00
00
00
18
08
08
08
08
08
08
08
00
00
00
00
ENDCHAR
STARTCHAR HbZayin
ENCODING 1494
SWIDTH 960 0
DWIDTH 8 0
BBX 8 16 0 -4
BITMAP
00
00
00
00
7c
10
10
10
10
10
10
10
00
00
00
00
ENDCHAR
STARTCHAR HbHet
ENCODING 1495
SWIDTH 960 0
DWIDTH 8 0
BBX 8 16 0 -4
BITMAP
00
00
00
00
fe
42
42
42
42
42
42
42
00
00
00
00
ENDCHAR
STARTCHAR HbTet
ENCODING 1496
SWIDTH 960 0
DWIDTH 8 0
BBX 8 16 0 -4
BITMAP
00
00
00
00
46
4a
42
42
42
42
44
78
00
00
00
00
ENDCHAR
STARTCHAR HbYod
ENCODING 1497
SWIDTH 960 0
DWIDTH 8 0
BBX 8 16 0 -4
BITMAP
00
00
00
00
18
08
08
08
00
00
00
00
00
00
00
00
ENDCHAR
STARTCHAR HbKafTrm
ENCODING 1498
SWIDTH 960 0
DWIDTH 8 0
BBX 8 16 0 -4
BITMAP
00
00
00
00
7e
02
02
02
02
02
02
02
02
02
02
00
ENDCHAR
STARTCHAR HbKaf
ENCODING 1499
SWIDTH 960 0
DWIDTH 8 0
BBX 8 16 0 -4
BITMAP
00
00
00
00
78
04
02
02
02
02
04
78
00
00
00
00
ENDCHAR
STARTCHAR HbLamed
ENCODING 1500
SWIDTH 960 0
DWIDTH 8 0
BBX 8 16 0 -4
BITMAP
00
40
40
40
7c
02
02
02
02
04
08
10
00
00
00
00
ENDCHAR
STARTCHAR HbMemTrm
ENCODING 1501
SWIDTH 960 0
DWIDTH 8 0
BBX 8 16 0 -4
BITMAP
00
00
00
00
fe
42
42
42
42
42
42
7e
00
00
00
00
ENDCHAR
STARTCHAR HbMem
ENCODING 1502
SWIDTH 960 0
DWIDTH 8 0
BBX 8 16 0 -4
BITMAP
00
00
00
00
4c
54
22
22
42
42
42
4e
00
00
00
00
ENDCHAR
STARTCHAR HbNunTrm
ENCODING 1503
SWIDTH 960 0
DWIDTH 8 0
BBX 8 16 0 -4
BITMAP
00
00
00
00
18
08
08
08
08
08
08
08
08
08
08
00
ENDCHAR
STARTCHAR HbNun
ENCODING 1504
SWIDTH 960 0
DWIDTH 8 0
BBX 8 16 0 -4
BITMAP
00
00
00
00
0c
04
04
04
04
04
04
3c
00
00
00
00
ENDCHAR
STARTCHAR HbSamekh
ENCODING 1505
SWIDTH 960 0
DWIDTH 8 0
BBX 8 16 0 -4
BITMAP
00
00
00
00
fc
24
42
42
42
42
24
18
00
00
00
00
ENDCHAR
STARTCHAR HbAyin
ENCODING 1506
SWIDTH 960 0
DWIDTH 8 0
BBX 8 16 0 -4
BITMAP
00
00
00
00
66
22
12
12
0a
0c
18
60
00
00
00
00
ENDCHAR
STARTCHAR HbPeTrm
ENCODING 1507
SWIDTH 960 0
DWIDTH 8 0
BBX 8 16 0 -4
BITMAP
00
00
00
00
fc
42
42
42
62
02
02
02
02
02
02
00
ENDCHAR
STARTCHAR HbPe
ENCODING 1508
SWIDTH 960 0
DWIDTH 8 0
BBX 8 16 0 -4
BITMAP
00
00
00
00
fc
42
42
42
62
02
02
7c
00
00
00
00
ENDCHAR
STARTCHAR HbTsadiTrm
ENCODING 1509
SWIDTH 960 0
DWIDTH 8 0
BBX 8 16 0 -4
BITMAP
00
00
00
00
62
22
24
28
30
20
20
20
20
20
20
00
ENDCHAR
STARTCHAR HbTsadi
ENCODING 1510
SWIDTH 960 0
DWIDTH 8 0
BBX 8 16 0 -4
BITMAP
00
00
00
00
42
42
24
14
08
04
02
7e
00
00
00
00
ENDCHAR
STARTCHAR HbQof
ENCODING 1511
SWIDTH 960 0
DWIDTH 8 0
BBX 8 16 0 -4
BITMAP
00
00
00
00
7c
02
02
42
44
48
50
50
40
40
40
00
ENDCHAR
STARTCHAR HbResh
ENCODING 1512
SWIDTH 960 0
DWIDTH 8 0
BBX 8 16 0 -4
BITMAP
00
00
00
00
7c
02
02
02
02
02
02
02
00
00
00
00
ENDCHAR
STARTCHAR HbShin
ENCODING 1513
SWIDTH 960 0
DWIDTH 8 0
BBX 8 16 0 -4
BITMAP
00
00
00
00
92
92
92
92
92
92
a4
f8
00
00
00
00
ENDCHAR
STARTCHAR HbTav
ENCODING 1514
SWIDTH 960 0
DWIDTH 8 0
BBX 8 16 0 -4
BITMAP
00
00
00
00
7c
22
22
22
22
22
22
e2
00
00
00
00
ENDCHAR
STARTCHAR HbVavVav
ENCODING 1520
SWIDTH 960 0
DWIDTH 8 0
BBX 8 16 0 -4
BITMAP
00
00
00
00
66
22
22
22
22
22
22
22
00
00
00
00
ENDCHAR
STARTCHAR HbVavYod
ENCODING 1521
SWIDTH 960 0
DWIDTH 8 0
BBX 8 16 0 -4
BITMAP
00
00
00
00
66
22
22
22
02
02
02
02
00
00
00
00
ENDCHAR
STARTCHAR HbYodYod
ENCODING 1522
SWIDTH 960 0
DWIDTH 8 0
BBX 8 16 0 -4
BITMAP
00
00
00
00
66
22
22
22
00
00
00
00
00
00
00
00
ENDCHAR
STARTCHAR PHbGeresh
ENCODING 1523
SWIDTH 960 0
DWIDTH 8 0
BBX 8 16 0 -4
BITMAP
00
00
00
00
04
08
10
20
00
00
00
00
00
00
00
00
ENDCHAR
STARTCHAR PHbGershayim
ENCODING 1524
SWIDTH 960 0
DWIDTH 8 0
BBX 8 16 0 -4
BITMAP
00
00
00
00
12
24
48
90
00
00
00
00
00
00
00
00
ENDCHAR
STARTCHAR ThKoKai
ENCODING 3585
SWIDTH 960 0
DWIDTH 8 0
BBX 8 16 0 -4
BITMAP
00
00
00
00
00
3c
42
62
22
22
22
22
00
00
00
00
ENDCHAR
STARTCHAR ThKhoKhai
ENCODING 3586
SWIDTH 960 0
DWIDTH 8 0
BBX 8 16 0 -4
BITMAP
00
00
00
00
00
62
52
12
12
12
12
0c
00
00
00
00
ENDCHAR
STARTCHAR ThKhoKhuat
ENCODING 3587
SWIDTH 960 0
DWIDTH 8 0
BBX 8 16 0 -4
BITMAP
00
00
00
00
00
69
59
49
69
69
09
06
00
00
00
00
ENDCHAR
STARTCHAR ThKhoKhwai
ENCODING 3588
SWIDTH 960 0
DWIDTH 8 0
BBX 8 16 0 -4
BITMAP
00
00
00
00
00
3c
42
42
5a
7a
42
42
00
00
00
00
ENDCHAR
STARTCHAR ThKhoKhon
ENCODING 3589
SWIDTH 960 0
DWIDTH 8 0
BBX 8 16 0 -4
BITMAP
00
00
00
00
00
34
5a
42
5a
7a
42
42
00
00
00
00
ENDCHAR
STARTCHAR ThKhoRakhang
ENCODING 3590
SWIDTH 960 0
DWIDTH 8 0
BBX 8 16 0 -4
BITMAP
00
00
00
00
00
69
59
49
69
6d
1b
19
00
00
00
00
ENDCHAR
STARTCHAR ThNgoNgu
ENCODING 3591
SWIDTH 960 0
DWIDTH 8 0
BBX 8 16 0 -4
BITMAP
00
00
00
00
00
06
06
02
62
12
0a
06
00
00
00
00
ENDCHAR
STARTCHAR ThChoChan
ENCODING 3592
SWIDTH 960 0
DWIDTH 8 0
BBX 8 16 0 -4
BITMAP
00
00
00
00
00
3c
42
1a
1a
0a
06
02
00
00
00
00
ENDCHAR
STARTCHAR ThChoChing
ENCODING 3593
SWIDTH 960 0
DWIDTH 8 0
BBX 8 16 0 -4
BITMAP
00
00
00
00
00
7c
02
32
32
16
1b
13
00
00
00
00
ENDCHAR
STARTCHAR ThChoChang
ENCODING 3594
SWIDTH 960 0
DWIDTH 8 0
BBX 8 16 0 -4
BITMAP
00
00
00
00
00
62
56
1c
14
12
12
0c
00
00
00
00
ENDCHAR
STARTCHAR ThSoSo
ENCODING 3595
SWIDTH 960 0
DWIDTH 8 0
BBX 8 16 0 -4
BITMAP
00
00
00
00
00
69
5b
4e
6a
69
09
06
00
00
00
00
ENDCHAR
STARTCHAR ThChoChoe
ENCODING 3596
SWIDTH 960 0
DWIDTH 8 0
BBX 8 16 0 -4
BITMAP
00
00
00
00
00
32
4a
4a
4a
4a
5e
5a
00
00
00
00
ENDCHAR
STARTCHAR ThYoYing
ENCODING 3597
SWIDTH 960 0
DWIDTH 8 0
BBX 8 16 0 -4
BITMAP
00
00
00
00
00
32
4a
4a
4a
4a
4a
44
00
12
0c
00
ENDCHAR
STARTCHAR ThDoChada
ENCODING 3598
SWIDTH 960 0
DWIDTH 8 0
BBX 8 16 0 -4
BITMAP
00
00
00
00
00
3c
42
62
22
22
62
62
02
02
1c
00
ENDCHAR
STARTCHAR ThToPatak
ENCODING 3599
SWIDTH 960 0
DWIDTH 8 0
BBX 8 16 0 -4
BITMAP
00
00
00
00
00
3c
42
62
22
22
62
62
02
2a
3c
00
ENDCHAR
STARTCHAR ThThoThan
ENCODING 3600
SWIDTH 960 0
DWIDTH 8 0
BBX 8 16 0 -4
BITMAP
00
00
00
00
00
7e
04
02
1a
1a
06
02
00
2a
3c
00
ENDCHAR
STARTCHAR ThThoNangmontho
ENCODING 3601
SWIDTH 960 0
DWIDTH 8 0
BBX 8 16 0 -4
BITMAP
00
00
00
00
00
69
5b
4d
6d
69
09
09
00
00
00
00
ENDCHAR
STARTCHAR ThThoPhuthao
ENCODING 3602
SWIDTH 960 0
DWIDTH 8 0
BBX 8 16 0 -4
BITMAP
00
00
00
00
00
29
55
55
45
45
6f
2d
00
00
00
00
ENDCHAR
STARTCHAR ThNoNen
ENCODING 3603
SWIDTH 960 0
DWIDTH 8 0
BBX 8 16 0 -4
BITMAP
00
00
00
00
00
32
4a
4a
4a
4a
4f
4b
00
00
00
00
ENDCHAR
STARTCHAR ThDoDek
ENCODING 3604
SWIDTH 960 0
DWIDTH 8 0
BBX 8 16 0 -4
BITMAP
00
00
00
00
00
3c
42
5a
5a
4a
52
62
00
00
00
00
ENDCHAR
STARTCHAR ThToTao
ENCODING 3605
SWIDTH 960 0
DWIDTH 8 0
BBX 8 16 0 -4
BITMAP
00
00
00
00
00
34
5a
42
5a
5a
4a
72
00
00
00
00
ENDCHAR
STARTCHAR ThThoThung
ENCODING 3606
SWIDTH 960 0
DWIDTH 8 0
BBX 8 16 0 -4
BITMAP
00
00
00
00
00
3c
42
62
22
22
32
32
00
00
00
00
ENDCHAR
STARTCHAR ThThoThahan
ENCODING 3607
SWIDTH 960 0
DWIDTH 8 0
BBX 8 16 0 -4
BITMAP
00
00
00
00
00
66
6a
2a
32
32
22
22
00
00
00
00
ENDCHAR
STARTCHAR ThThoThong
ENCODING 3608
SWIDTH 960 0
DWIDTH 8 0
BBX 8 16 0 -4
BITMAP
00
00
00
00
00
3e
40
78
04
22
22
7c
00
00
00
00
ENDCHAR
STARTCHAR ThNoNu
ENCODING 3609
SWIDTH 960 0
DWIDTH 8 0
BBX 8 16 0 -4
BITMAP
00
00
00
00
00
62
62
22
22
2e
33
23
00
00
00
00
ENDCHAR
STARTCHAR ThBoBaimai
ENCODING 3610
SWIDTH 960 0
DWIDTH 8 0
BBX 8 16 0 -4
BITMAP
00
00
00
00
00
62
62
22
22
22
22
7e
00
00
00
00
ENDCHAR
STARTCHAR ThPoPla
ENCODING 3611
SWIDTH 960 0
DWIDTH 8 0
BBX 8 16 0 -4
BITMAP
00
00
02
02
02
62
62
22
22
22
22
7e
00
00
00
00
ENDCHAR
STARTCHAR ThPhoPhung
ENCODING 3612
SWIDTH 960 0
DWIDTH 8 0
BBX 8 16 0 -4
BITMAP
00
00
00
00
00
61
61
41
49
55
63
41
00
00
00
00
ENDCHAR
STARTCHAR ThFoFa
ENCODING 3613
SWIDTH 960 0
DWIDTH 8 0
BBX 8 16 0 -4
BITMAP
00
00
01
01
01
61
61
41
49
55
63
41
00
00
00
00
ENDCHAR
STARTCHAR ThPhoPhan
ENCODING 3614
SWIDTH 960 0
DWIDTH 8 0
BBX 8 16 0 -4
BITMAP
00
00
00
00
00
49
49
55
55
63
63
41
00
00
00
00
ENDCHAR
STARTCHAR ThFoFan
ENCODING 3615
SWIDTH 960 0
DWIDTH 8 0
BBX 8 16 0 -4
BITMAP
00
00
01
01
01
49
49
55
55
63
63
41
00
00
00
00
ENDCHAR
STARTCHAR ThPhoSamphao
ENCODING 3616
SWIDTH 960 0
DWIDTH 8 0
BBX 8 16 0 -4
BITMAP
00
00
00
00
00
3c
42
62
22
22
62
62
00
00
00
00
ENDCHAR
STARTCHAR ThMoMa
ENCODING 3617
SWIDTH 960 0
DWIDTH 8 0
BBX 8 16 0 -4
BITMAP
00
00
00
00
00
62
62
22
22
3a
66
62
00
00
00
00
ENDCHAR
STARTCHAR ThYoYak
ENCODING 3618
SWIDTH 960 0
DWIDTH 8 0
BBX 8 16 0 -4
BITMAP
00
00
00
00
00
72
72
42
32
42
42
7e
00
00
00
00
ENDCHAR
STARTCHAR ThRoRua
ENCODING 3619
SWIDTH 960 0
DWIDTH 8 0
BBX 8 16 0 -4
BITMAP
00
00
00
00
00
3e
40
78
04
04
0c
0c
00
00
00
00
ENDCHAR
STARTCHAR ThRu
ENCODING 3620
SWIDTH 960 0
DWIDTH 8 0
BBX 8 16 0 -4
BITMAP
00
00
00
00
00
3c
42
62
22
22
32
32
02
02
02
00
ENDCHAR
STARTCHAR ThLoLing
ENCODING 3621
SWIDTH 960 0
DWIDTH 8 0
BBX 8 16 0 -4
BITMAP
00
00
00
00
00
3c
42
02
3a
46
62
62
00
00
00
00
ENDCHAR
STARTCHAR ThLu
ENCODING 3622
SWIDTH 960 0
DWIDTH 8 0
BBX 8 16 0 -4
BITMAP
00
00
00
00
00
3c
42
62
22
22
62
62
02
02
02
00
ENDCHAR
STARTCHAR ThWoWaen
ENCODING 3623
SWIDTH 960 0
DWIDTH 8 0
BBX 8 16 0 -4
BITMAP
00
00
00
00
00
3c
42
42
02
02
06
06
00
00
00
00
ENDCHAR
STARTCHAR ThSoSala
ENCODING 3624
SWIDTH 960 0
DWIDTH 8 0
BBX 8 16 0 -4
BITMAP
00
00
00
00
00
3d
46
4a
7a
5a
42
42
00
00
00
00
ENDCHAR
STARTCHAR ThSoRusi
ENCODING 3625
SWIDTH 960 0
DWIDTH 8 0
BBX 8 16 0 -4
BITMAP
00
00
00
00
00
62
62
2e
2f
22
22
7e
00
00
00
00
ENDCHAR
STARTCHAR ThSoSua
ENCODING 3626
SWIDTH 960 0
DWIDTH 8 0
BBX 8 16 0 -4
BITMAP
00
00
00
00
00
3d
46
0a
3a
46
62
62
00
00
00
00
ENDCHAR
STARTCHAR ThHoHip
ENCODING 3627
SWIDTH 960 0
DWIDTH 8 0
BBX 8 16 0 -4
BITMAP
00
00
00
00
00
66
66
24
2e
32
22
22
00
00
00
00
ENDCHAR
STARTCHAR ThLoChula
ENCODING 3628
SWIDTH 960 0
DWIDTH 8 0
BBX 8 16 0 -4
BITMAP
00
00
00
03
07
41
49
49
55
63
63
41
00
00
00
00
ENDCHAR
STARTCHAR ThOAng
ENCODING 3629
SWIDTH 960 0
DWIDTH 8 0
BBX 8 16 0 -4
BITMAP
00
00
00
00
00
3c
42
02
32
32
22
1c
00
00
00
00
ENDCHAR
STARTCHAR ThHoNokhuk
ENCODING 3630
SWIDTH 960 0
DWIDTH 8 0
BBX 8 16 0 -4
BITMAP
00
00
00
00
00
3a
4c
32
02
72
42
3c
00
00
00
00
ENDCHAR
STARTCHAR ThPaiyannoi
ENCODING 3631
SWIDTH 960 0
DWIDTH 8 0
BBX 8 16 0 -4
BITMAP
00
00
00
00
00
12
22
26
1a
02
02
04
00
00
00
00
ENDCHAR
STARTCHAR ThSaraA
ENCODING 3632
SWIDTH 960 0
DWIDTH 8 0
BBX 8 16 0 -4
BITMAP
00
00
00
00
00
32
1c
00
00
00
32
1c
00
00
00
00
ENDCHAR
STARTCHAR ThMaiHanAkat
ENCODING 3633
SWIDTH 960 0
DWIDTH 8 0
BBX 8 16 0 -4
BITMAP
00
00
09
06
00
00
00
00
00
00
00
00
00
00
00
00
ENDCHAR
STARTCHAR ThSaraAa
ENCODING 3634
SWIDTH 960 0
DWIDTH 8 0
BBX 8 16 0 -4
BITMAP
00
00
00
00
00
1c
22
22
02
02
02
02
00
00
00
00
ENDCHAR
STARTCHAR ThSaraAm
ENCODING 3635
SWIDTH 960 0
DWIDTH 8 0
BBX 8 16 0 -4
BITMAP
00
00
c0
c0
00
1c
22
22
02
02
02
02
00
00
00
00
ENDCHAR
STARTCHAR ThSaraI
ENCODING 3636
SWIDTH 960 0
DWIDTH 8 0
BBX 8 16 0 -4
BITMAP
00
00
00
7e
00
00
00
00
00
00
00
00
00
00
00
00
ENDCHAR
STARTCHAR ThSaraIi
ENCODING 3637
SWIDTH 960 0
DWIDTH 8 0
BBX 8 16 0 -4
BITMAP
00
00
02
7e
00
00
00
00
00
00
00
00
00
00
00
00
ENDCHAR
STARTCHAR ThSaraUe
ENCODING 3638
SWIDTH 960 0
DWIDTH 8 0
BBX 8 16 0 -4
BITMAP
00
00
0e
7e
00
00
00
00
00
00
00
00
00
00
00
00
ENDCHAR
STARTCHAR ThSaraUee
ENCODING 3639
SWIDTH 960 0
DWIDTH 8 0
BBX 8 16 0 -4
BITMAP
00
00
0a
7a
00
00
00
00
00
00
00
00
00
00
00
00
ENDCHAR
STARTCHAR ThSaraU
ENCODING 3640
SWIDTH 960 0
DWIDTH 8 0
BBX 8 16 0 -4
BITMAP
00
00
00
00
00
00
00
00
00
00
00
00
00
06
06
02
ENDCHAR
STARTCHAR ThSaraUu
ENCODING 3641
SWIDTH 960 0
DWIDTH 8 0
BBX 8 16 0 -4
BITMAP
00
00
00
00
00
00
00
00
00
00
00
00
00
1a
1a
0e
ENDCHAR
STARTCHAR ThPhinthu
ENCODING 3642
SWIDTH 960 0
DWIDTH 8 0
BBX 8 16 0 -4
BITMAP
00
00
00
00
00
00
00
00
00
00
00
00
00
06
06
00
ENDCHAR
STARTCHAR CurrBaht
ENCODING 3647
SWIDTH 960 0
DWIDTH 8 0
BBX 8 16 0 -4
BITMAP
00
00
10
7c
52
52
52
7c
52
52
52
7c
10
00
00
00
ENDCHAR
STARTCHAR ThSaraE
ENCODING 3648
SWIDTH 960 0
DWIDTH 8 0
BBX 8 16 0 -4
BITMAP
00
00
00
00
00
10
10
10
10
10
18
18
00
00
00
00
ENDCHAR
STARTCHAR ThSaraAe
ENCODING 3649
SWIDTH 960 0
DWIDTH 8 0
BBX 8 16 0 -4
BITMAP
00
00
00
00
00
44
44
44
44
44
66
66
00
00
00
00
ENDCHAR
STARTCHAR ThSaraO
ENCODING 3650
SWIDTH 960 0
DWIDTH 8 0
BBX 8 16 0 -4
BITMAP
00
00
3c
40
30
08
08
08
08
08
0c
0c
00
00
00
00
ENDCHAR
STARTCHAR ThSaraAiMaimuan
ENCODING 3651
SWIDTH 960 0
DWIDTH 8 0
BBX 8 16 0 -4
BITMAP
00
00
18
24
34
34
04
04
04
04
06
06
00
00
00
00
ENDCHAR
STARTCHAR ThSaraAiMaimalai
ENCODING 3652
SWIDTH 960 0
DWIDTH 8 0
BBX 8 16 0 -4
BITMAP
00
00
48
54
24
24
04
04
04
04
06
06
00
00
00
00
ENDCHAR
STARTCHAR ThLakkhangyao
ENCODING 3653
SWIDTH 960 0
DWIDTH 8 0
BBX 8 16 0 -4
BITMAP
00
00
00
00
00
1c
22
22
02
02
02
02
02
02
02
00
ENDCHAR
STARTCHAR ThMaiyamok
ENCODING 3654
SWIDTH 960 0
DWIDTH 8 0
BBX 8 16 0 -4
BITMAP
00
00
00
00
00
34
4a
62
62
02
02
02
02
02
04
00
ENDCHAR
STARTCHAR ThMaitaikhu
ENCODING 3655
SWIDTH 960 0
DWIDTH 8 0
BBX 8 16 0 -4
BITMAP
00
38
50
78
00
00
00
00
00
00
00
00
00
00
00
00
ENDCHAR
STARTCHAR ThMaiEk
ENCODING 3656
SWIDTH 960 0
DWIDTH 8 0
BBX 8 16 0 -4
BITMAP
02
02
00
00
00
00
00
00
00
00
00
00
00
00
00
00
ENDCHAR
STARTCHAR ThMaiTho
ENCODING 3657
SWIDTH 960 0
DWIDTH 8 0
BBX 8 16 0 -4
BITMAP
0d
06
00
00
00
00
00
00
00
00
00
00
00
00
00
00
ENDCHAR
STARTCHAR ThMaiTri
ENCODING 3658
SWIDTH 960 0
DWIDTH 8 0
BBX 8 16 0 -4
BITMAP
3d
26
00
00
00
00
00
00
00
00
00
00
00
00
00
00
ENDCHAR
STARTCHAR ThMaiChattawa
ENCODING 3659
SWIDTH 960 0
DWIDTH 8 0
BBX 8 16 0 -4
BITMAP
02
07
02
00
00
00
00
00
00
00
00
00
00
00
00
00
ENDCHAR
STARTCHAR ThThanthakhat
ENCODING 3660
SWIDTH 960 0
DWIDTH 8 0
BBX 8 16 0 -4
BITMAP
01
0f
0c
00
00
00
00
00
00
00
00
00
00
00
00
00
ENDCHAR
STARTCHAR ThNikhahit
ENCODING 3661
SWIDTH 960 0
DWIDTH 8 0
BBX 8 16 0 -4
BITMAP
00
00
06
06
00
00
00
00
00
00
00
00
00
00
00
00
ENDCHAR
STARTCHAR ThYamakkan
ENCODING 3662
SWIDTH 960 0
DWIDTH 8 0
BBX 8 16 0 -4
BITMAP
00
06
0c
0e
00
00
00
00
00
00
00
00
00
00
00
00
ENDCHAR
STARTCHAR ThFongman
ENCODING 3663
SWIDTH 960 0
DWIDTH 8 0
BBX 8 16 0 -4
BITMAP
00
00
00
00
3c
42
99
a5
a5
99
42
3c
00
00
00
00
ENDCHAR
STARTCHAR ThDigit0
ENCODING 3664
SWIDTH 960 0
DWIDTH 8 0
BBX 8 16 0 -4
BITMAP
00
00
00
00
00
00
3c
42
42
42
42
3c
00
00
00
00
ENDCHAR
STARTCHAR ThDigit1
ENCODING 3665
SWIDTH 960 0
DWIDTH 8 0
BBX 8 16 0 -4
BITMAP
00
00
00
00
00
00
3c
42
5a
5a
52
24
00
00
00
00
ENDCHAR
STARTCHAR ThDigit2
ENCODING 3666
SWIDTH 960 0
DWIDTH 8 0
BBX 8 16 0 -4
BITMAP
00
00
00
00
40
40
4e
55
51
59
41
7f
00
00
00
00
ENDCHAR
STARTCHAR ThDigit3
ENCODING 3667
SWIDTH 960 0
DWIDTH 8 0
BBX 8 16 0 -4
BITMAP
00
00
00
00
00
00
36
59
49
41
71
32
00
00
00
00
ENDCHAR
STARTCHAR ThDigit4
ENCODING 3668
SWIDTH 960 0
DWIDTH 8 0
BBX 8 16 0 -4
BITMAP
00
00
00
00
00
02
1c
20
40
4c
4c
36
00
00
00
00
ENDCHAR
STARTCHAR ThDigit5
ENCODING 3669
SWIDTH 960 0
DWIDTH 8 0
BBX 8 16 0 -4
BITMAP
00
00
00
00
30
2a
1c
20
40
4c
4c
36
00
00
00
00
ENDCHAR
STARTCHAR ThDigit6
ENCODING 3670
SWIDTH 960 0
DWIDTH 8 0
BBX 8 16 0 -4
BITMAP
00
00
00
00
40
40
78
04
02
62
64
38
00
00
00
00
ENDCHAR
STARTCHAR ThDigit7
ENCODING 3671
SWIDTH 960 0
DWIDTH 8 0
BBX 8 16 0 -4
BITMAP
00
00
00
00
01
01
29
55
55
45
65
26
00
00
00
00
ENDCHAR
STARTCHAR ThDigit8
ENCODING 3672
SWIDTH 960 0
DWIDTH 8 0
BBX 8 16 0 -4
BITMAP
00
00
00
00
00
02
1c
20
40
43
5b
67
00
00
00
00
ENDCHAR
STARTCHAR ThDigit9
ENCODING 3673
SWIDTH 960 0
DWIDTH 8 0
BBX 8 16 0 -4
BITMAP
00
00
00
00
01
01
36
4c
44
42
72
31
00
00
00
00
ENDCHAR
STARTCHAR ThAngkhankhu
ENCODING 3674
SWIDTH 960 0
DWIDTH 8 0
BBX 8 16 0 -4
BITMAP
00
00
00
00
00
25
45
4d
35
05
05
0a
00
00
00
00
ENDCHAR
STARTCHAR ThKhomut
ENCODING 3675
SWIDTH 960 0
DWIDTH 8 0
BBX 8 16 0 -4
BITMAP
00
00
00
00
20
40
48
4a
4a
55
54
20
00
00
00
00
ENDCHAR
STARTCHAR GeAn
ENCODING 4304
SWIDTH 960 0
DWIDTH 8 0
BBX 8 16 0 -4
BITMAP
00
00
00
00
00
08
08
04
02
42
42
3c
00
00
00
00
ENDCHAR
STARTCHAR GeBan
ENCODING 4305
SWIDTH 960 0
DWIDTH 8 0
BBX 8 16 0 -4
BITMAP
00
00
20
30
08
08
3c
42
42
42
42
3c
00
00
00
00
ENDCHAR
STARTCHAR GeGan
ENCODING 4306
SWIDTH 960 0
DWIDTH 8 0
BBX 8 16 0 -4
BITMAP
00
00
00
00
00
00
30
48
08
08
3c
42
42
42
42
3c
ENDCHAR
STARTCHAR GeDon
ENCODING 4307
SWIDTH 960 0
DWIDTH 8 0
BBX 8 16 0 -4
BITMAP
00
00
00
00
00
00
3c
42
42
42
42
3c
20
38
44
02
ENDCHAR
STARTCHAR GeEn
ENCODING 4308
SWIDTH 960 0
DWIDTH 8 0
BBX 8 16 0 -4
BITMAP
00
00
00
00
00
00
1c
22
22
02
02
02
02
42
42
3c
ENDCHAR
STARTCHAR GeVin
ENCODING 4309
SWIDTH 960 0
DWIDTH 8 0
BBX 8 16 0 -4
BITMAP
00
00
00
00
00
00
1c
22
22
02
0c
02
02
42
42
3c
ENDCHAR
STARTCHAR GeZen
ENCODING 4310
SWIDTH 960 0
DWIDTH 8 0
BBX 8 16 0 -4
BITMAP
00
00
38
44
44
38
10
2c
42
42
42
3c
00
00
00
00
ENDCHAR
STARTCHAR GeTan
ENCODING 4311
SWIDTH 960 0
DWIDTH 8 0
BBX 8 16 0 -4
BITMAP
00
00
00
00
00
00
36
49
49
49
49
31
00
00
00
00
ENDCHAR
STARTCHAR GeIn
ENCODING 4312
SWIDTH 960 0
DWIDTH 8 0
BBX 8 16 0 -4
BITMAP
00
00
00
00
00
00
3c
42
42
42
42
24
00
00
00
00
ENDCHAR
STARTCHAR GeKan
ENCODING 4313
SWIDTH 960 0
DWIDTH 8 0
BBX 8 16 0 -4
BITMAP
00
00
00
00
00
00
02
02
02
02
1c
02
02
42
42
3c
ENDCHAR
STARTCHAR GeLas
ENCODING 4314
SWIDTH 960 0
DWIDTH 8 0
BBX 8 16 0 -4
BITMAP
00
00
00
00
00
00
3c
42
42
42
42
42
20
38
44
02
ENDCHAR
STARTCHAR GeMan
ENCODING 4315
SWIDTH 960 0
DWIDTH 8 0
BBX 8 16 0 -4
BITMAP
00
00
1c
22
22
02
3a
46
42
42
42
3c
00
00
00
00
ENDCHAR
STARTCHAR GeNar
ENCODING 4316
SWIDTH 960 0
DWIDTH 8 0
BBX 8 16 0 -4
BITMAP
00
00
3c
40
40
40
5c
62
42
42
42
3c
00
00
00
00
ENDCHAR
STARTCHAR GeOn
ENCODING 4317
SWIDTH 960 0
DWIDTH 8 0
BBX 8 16 0 -4
BITMAP
00
00
00
00
00
00
36
49
49
49
49
41
00
00
00
00
ENDCHAR
STARTCHAR GePar
ENCODING 4318
SWIDTH 960 0
DWIDTH 8 0
BBX 8 16 0 -4
BITMAP
00
00
20
20
1c
02
02
1c
02
42
42
3c
00
00
00
00
ENDCHAR
STARTCHAR GeZhar
ENCODING 4319
SWIDTH 960 0
DWIDTH 8 0
BBX 8 16 0 -4
BITMAP
00
00
00
00
00
00
06
1a
4a
4a
32
02
02
22
22
1c
ENDCHAR
STARTCHAR GeRae
ENCODING 4320
SWIDTH 960 0
DWIDTH 8 0
BBX 8 16 0 -4
BITMAP
00
00
02
0c
10
20
36
49
49
49
49
41
00
00
00
00
ENDCHAR
STARTCHAR GeSan
ENCODING 4321
SWIDTH 960 0
DWIDTH 8 0
BBX 8 16 0 -4
BITMAP
00
00
40
40
40
40
46
48
44
42
42
3c
00
00
00
00
ENDCHAR
STARTCHAR GeTar
ENCODING 4322
SWIDTH 960 0
DWIDTH 8 0
BBX 8 16 0 -4
BITMAP
00
00
00
00
00
08
14
1c
2a
41
41
41
41
41
22
1c
ENDCHAR
STARTCHAR GeUn
ENCODING 4323
SWIDTH 960 0
DWIDTH 8 0
BBX 8 16 0 -4
BITMAP
00
00
00
00
00
00
4c
72
12
12
02
02
02
42
42
3c
ENDCHAR
STARTCHAR GePhar
ENCODING 4324
SWIDTH 960 0
DWIDTH 8 0
BBX 8 16 0 -4
BITMAP
00
00
00
00
00
00
36
49
49
49
49
32
01
01
11
0e
ENDCHAR
STARTCHAR GeKhar
ENCODING 4325
SWIDTH 960 0
DWIDTH 8 0
BBX 8 16 0 -4
BITMAP
00
00
02
06
02
02
02
1e
22
02
02
02
02
42
42
3c
ENDCHAR
STARTCHAR GeGhan
ENCODING 4326
SWIDTH 960 0
DWIDTH 8 0
BBX 8 16 0 -4
BITMAP
00
00
00
00
00
00
36
49
49
49
49
41
20
38
44
02
ENDCHAR
STARTCHAR GeQar
ENCODING 4327
SWIDTH 960 0
DWIDTH 8 0
BBX 8 16 0 -4
BITMAP
00
00
00
00
00
00
42
42
42
26
1a
02
42
42
42
3c
ENDCHAR
STARTCHAR GeShin
ENCODING 4328
SWIDTH 960 0
DWIDTH 8 0
BBX 8 16 0 -4
BITMAP
00
00
6c
52
52
02
3a
46
42
42
42
3c
00
00
00
00
ENDCHAR
STARTCHAR GeChin
ENCODING 4329
SWIDTH 960 0
DWIDTH 8 0
BBX 8 16 0 -4
BITMAP
00
00
30
48
70
40
58
64
42
42
42
42
00
00
00
00
ENDCHAR
STARTCHAR GeCan
ENCODING 4330
SWIDTH 960 0
DWIDTH 8 0
BBX 8 16 0 -4
BITMAP
00
00
00
00
00
00
24
42
41
41
46
41
41
41
22
1c
ENDCHAR
STARTCHAR GeJil
ENCODING 4331
SWIDTH 960 0
DWIDTH 8 0
BBX 8 16 0 -4
BITMAP
00
00
02
02
02
02
3a
46
42
42
42
3c
00
00
00
00
ENDCHAR
STARTCHAR GeCil
ENCODING 4332
SWIDTH 960 0
DWIDTH 8 0
BBX 8 16 0 -4
BITMAP
00
00
36
49
49
40
40
3e
22
22
14
14
14
08
08
08
ENDCHAR
STARTCHAR GeChar
ENCODING 4333
SWIDTH 960 0
DWIDTH 8 0
BBX 8 16 0 -4
BITMAP
00
00
10
10
08
04
04
36
4c
36
04
04
04
44
44
38
ENDCHAR
STARTCHAR GeXan
ENCODING 4334
SWIDTH 960 0
DWIDTH 8 0
BBX 8 16 0 -4
BITMAP
00
00
40
40
48
50
7c
42
42
42
42
3c
00
00
00
00
ENDCHAR
STARTCHAR GeJhan
ENCODING 4335
SWIDTH 960 0
DWIDTH 8 0
BBX 8 16 0 -4
BITMAP
00
00
00
00
00
00
62
54
08
18
2a
46
20
10
60
00
ENDCHAR
STARTCHAR GeHae
ENCODING 4336
SWIDTH 960 0
DWIDTH 8 0
BBX 8 16 0 -4
BITMAP
00
00
10
0c
02
0c
02
0c
04
42
42
3c
00
00
00
00
ENDCHAR
STARTCHAR GeHe
ENCODING 4337
SWIDTH 960 0
DWIDTH 8 0
BBX 8 16 0 -4
BITMAP
00
00
24
54
52
51
66
41
46
41
22
1c
00
00
00
00
ENDCHAR
STARTCHAR GeHie
ENCODING 4338
SWIDTH 960 0
DWIDTH 8 0
BBX 8 16 0 -4
BITMAP
00
00
00
00
00
00
3c
42
42
42
24
18
24
42
00
00
ENDCHAR
STARTCHAR GeWe
ENCODING 4339
SWIDTH 960 0
DWIDTH 8 0
BBX 8 16 0 -4
BITMAP
00
00
00
00
00
00
3e
22
04
08
1c
02
02
42
42
3c
ENDCHAR
STARTCHAR GeHar
ENCODING 4340
SWIDTH 960 0
DWIDTH 8 0
BBX 8 16 0 -4
BITMAP
00
00
08
10
10
10
0e
02
04
08
1c
02
02
42
42
3c
ENDCHAR
STARTCHAR GeHoe
ENCODING 4341
SWIDTH 960 0
DWIDTH 8 0
BBX 8 16 0 -4
BITMAP
00
00
38
44
44
3e
04
3e
44
44
44
38
00
00
00
00
ENDCHAR
STARTCHAR GeFi
ENCODING 4342
SWIDTH 960 0
DWIDTH 8 0
BBX 8 16 0 -4
BITMAP
00
00
00
00
00
00
36
49
49
49
49
2e
08
08
08
30
ENDCHAR
STARTCHAR GeYn
ENCODING 4343
SWIDTH 960 0
DWIDTH 8 0
BBX 8 16 0 -4
BITMAP
00
00
00
00
00
00
3c
42
42
02
0c
30
40
42
42
3c
ENDCHAR
STARTCHAR GeElifi
ENCODING 4344
SWIDTH 960 0
DWIDTH 8 0
BBX 8 16 0 -4
BITMAP
00
00
00
00
00
00
42
42
42
64
58
40
42
42
42
3c
ENDCHAR
STARTCHAR GeGanTrnd
ENCODING 4345
SWIDTH 960 0
DWIDTH 8 0
BBX 8 16 0 -4
BITMAP
00
00
00
00
00
00
3c
42
42
42
42
3c
10
10
12
0c
ENDCHAR
STARTCHAR GeAin
ENCODING 4346
SWIDTH 960 0
DWIDTH 8 0
BBX 8 16 0 -4
BITMAP
00
00
00
00
00
00
1c
22
40
40
20
3c
40
00
00
00
ENDCHAR
STARTCHAR PGeParSep
ENCODING 4347
SWIDTH 960 0
DWIDTH 8 0
BBX 8 16 0 -4
BITMAP
00
00
00
00
00
00
60
60
06
06
60
60
00
00
00
00
ENDCHAR
STARTCHAR SupGeNar
ENCODING 4348
SWIDTH 960 0
DWIDTH 8 0
BBX 8 16 0 -4
BITMAP
1c
20
20
3c
22
22
22
1c
00
00
00
00
00
00
00
00
ENDCHAR
STARTCHAR GeAen
ENCODING 4349
SWIDTH 960 0
DWIDTH 8 0
BBX 8 16 0 -4
BITMAP
00
00
18
24
24
20
18
04
02
42
42
3c
00
00
00
00
ENDCHAR
STARTCHAR GeHardSign
ENCODING 4350
SWIDTH 960 0
DWIDTH 8 0
BBX 8 16 0 -4
BITMAP
00
00
00
00
40
66
18
24
42
42
42
3c
00
00
00
00
ENDCHAR
STARTCHAR GeLabialSign
ENCODING 4351
SWIDTH 960 0
DWIDTH 8 0
BBX 8 16 0 -4
BITMAP
00
00
00
00
00
00
3c
42
42
42
42
3c
00
00
00
00
ENDCHAR
STARTCHAR SupSmlA
ENCODING 7491
SWIDTH 960 0
DWIDTH 8 0
BBX 8 16 0 -4
BITMAP
00
00
1c
02
1e
22
22
1e
00
00
00
00
00
00
00
00
ENDCHAR
STARTCHAR SupSmlB
ENCODING 7495
SWIDTH 960 0
DWIDTH 8 0
BBX 8 16 0 -4
BITMAP
20
20
2c
32
22
22
32
2c
00
00
00
00
00
00
00
00
ENDCHAR
STARTCHAR SupSmlD
ENCODING 7496
SWIDTH 960 0
DWIDTH 8 0
BBX 8 16 0 -4
BITMAP
02
02
1a
26
22
22
26
1a
00
00
00
00
00
00
00
00
ENDCHAR
STARTCHAR SupSmlE
ENCODING 7497
SWIDTH 960 0
DWIDTH 8 0
BBX 8 16 0 -4
BITMAP
00
00
1c
22
3e
20
20
1c
00
00
00
00
00
00
00
00
ENDCHAR
STARTCHAR SupSmlSchwa
ENCODING 7498
SWIDTH 960 0
DWIDTH 8 0
BBX 8 16 0 -4
BITMAP
00
00
1c
02
02
3e
22
1c
00
00
00
00
00
00
00
00
ENDCHAR
STARTCHAR SupSmlG
ENCODING 7501
SWIDTH 960 0
DWIDTH 8 0
BBX 8 16 0 -4
BITMAP
00
00
1e
24
18
10
3c
22
1c
00
00
00
00
00
00
00
ENDCHAR
STARTCHAR SupSmlK
ENCODING 7503
SWIDTH 960 0
DWIDTH 8 0
BBX 8 16 0 -4
BITMAP
20
20
22
24
28
38
24
22
00
00
00
00
00
00
00
00
ENDCHAR
STARTCHAR SupSmlM
ENCODING 7504
SWIDTH 960 0
DWIDTH 8 0
BBX 8 16 0 -4
BITMAP
00
00
34
2a
2a
2a
2a
2a
00
00
00
00
00
00
00
00
ENDCHAR
STARTCHAR SupSmlO
ENCODING 7506
SWIDTH 960 0
DWIDTH 8 0
BBX 8 16 0 -4
BITMAP
00
00
1c
22
22
22
22
1c
00
00
00
00
00
00
00
00
ENDCHAR
STARTCHAR SupSmlP
ENCODING 7510
SWIDTH 960 0
DWIDTH 8 0
BBX 8 16 0 -4
BITMAP
00
00
2c
32
22
22
3c
20
20
00
00
00
00
00
00
00
ENDCHAR
STARTCHAR SupSmlT
ENCODING 7511
SWIDTH 960 0
DWIDTH 8 0
BBX 8 16 0 -4
BITMAP
10
10
3c
10
10
10
12
0c
00
00
00
00
00
00
00
00
ENDCHAR
STARTCHAR SupSmlU
ENCODING 7512
SWIDTH 960 0
DWIDTH 8 0
BBX 8 16 0 -4
BITMAP
00
00
22
22
22
22
26
1a
00
00
00
00
00
00
00
00
ENDCHAR
STARTCHAR SupSmlV
ENCODING 7515
SWIDTH 960 0
DWIDTH 8 0
BBX 8 16 0 -4
BITMAP
00
00
22
22
14
14
08
08
00
00
00
00
00
00
00
00
ENDCHAR
STARTCHAR SubSmlI
ENCODING 7522
SWIDTH 960 0
DWIDTH 8 0
BBX 8 16 0 -4
BITMAP
00
00
00
00
00
00
08
00
18
08
08
08
08
1c
00
00
ENDCHAR
STARTCHAR SubSmlR
ENCODING 7523
SWIDTH 960 0
DWIDTH 8 0
BBX 8 16 0 -4
BITMAP
00
00
00
00
00
00
00
00
2c
34
20
20
20
20
00
00
ENDCHAR
STARTCHAR SubSmlU
ENCODING 7524
SWIDTH 960 0
DWIDTH 8 0
BBX 8 16 0 -4
BITMAP
00
00
00
00
00
00
00
00
22
22
22
22
26
1a
00
00
ENDCHAR
STARTCHAR SubSmlV
ENCODING 7525
SWIDTH 960 0
DWIDTH 8 0
BBX 8 16 0 -4
BITMAP
00
00
00
00
00
00
00
00
22
22
14
14
08
08
00
00
ENDCHAR
STARTCHAR SupSmlC
ENCODING 7580
SWIDTH 960 0
DWIDTH 8 0
BBX 8 16 0 -4
BITMAP
00
00
1c
22
20
20
22
1c
00
00
00
00
00
00
00
00
ENDCHAR
STARTCHAR SupSmlF
ENCODING 7584
SWIDTH 960 0
DWIDTH 8 0
BBX 8 16 0 -4
BITMAP
0c
10
10
10
3c
10
10
10
00
00
00
00
00
00
00
00
ENDCHAR
STARTCHAR SupSmlZ
ENCODING 7611
SWIDTH 960 0
DWIDTH 8 0
BBX 8 16 0 -4
BITMAP
00
00
3c
04
08
10
20
3c
00
00
00
00
00
00
00
00
ENDCHAR
STARTCHAR LtCapALring
ENCODING 7680
SWIDTH 960 0
DWIDTH 8 0
BBX 8 16 0 -4
BITMAP
00
00
18
18
24
24
42
42
7e
42
42
42
08
14
08
00
ENDCHAR
STARTCHAR LtSmlALring
ENCODING 7681
SWIDTH 960 0
DWIDTH 8 0
BBX 8 16 0 -4
BITMAP
00
00
00
00
00
3c
02
02
3e
42
46
3a
08
14
08
00
ENDCHAR
STARTCHAR LtCapBDot
ENCODING 7682
SWIDTH 960 0
DWIDTH 8 0
BBX 8 16 0 -4
BITMAP
10
10
00
7c
42
42
42
7c
42
42
42
7c
00
00
00
00
ENDCHAR
STARTCHAR LtSmlBDot
ENCODING 7683
SWIDTH 960 0
DWIDTH 8 0
BBX 8 16 0 -4
BITMAP
08
08
40
40
40
5c
62
42
42
42
62
5c
00
00
00
00
ENDCHAR
STARTCHAR LtCapBLdot
ENCODING 7684
SWIDTH 960 0
DWIDTH 8 0
BBX 8 16 0 -4
BITMAP
00
00
7c
42
42
42
7c
42
42
42
42
7c
00
10
10
00
ENDCHAR
STARTCHAR LtSmlBLdot
ENCODING 7685
SWIDTH 960 0
DWIDTH 8 0
BBX 8 16 0 -4
BITMAP
00
00
40
40
40
5c
62
42
42
42
62
5c
00
08
08
00
ENDCHAR
STARTCHAR LtCapBLmacron
ENCODING 7686
SWIDTH 960 0
DWIDTH 8 0
BBX 8 16 0 -4
BITMAP
00
00
7c
42
42
42
7c
42
42
42
42
7c
00
00
3c
00
ENDCHAR
ENDFONT
